<mxfile host="app.diagrams.net" modified="2023-12-06T16:10:18.918Z" agent="Mozilla/5.0 (Macintosh; Intel Mac OS X 10_15_7) AppleWebKit/537.36 (KHTML, like Gecko) Chrome/119.0.0.0 Safari/537.36" etag="TYQXGEYnpXlFWrwxUxbY" version="22.1.6" type="device">
  <diagram name="Página-1" id="k29LO2Y5olFIAJzZQsGU">
    <mxGraphModel dx="1434" dy="1934" grid="1" gridSize="10" guides="1" tooltips="1" connect="1" arrows="1" fold="1" page="1" pageScale="1" pageWidth="827" pageHeight="1169" math="0" shadow="0">
      <root>
        <mxCell id="0" />
        <mxCell id="1" parent="0" />
        <mxCell id="_OX-JBq8yyOv4rNZ1e_I-90" value="idUtilizador" style="text;html=1;align=center;verticalAlign=middle;resizable=0;points=[];autosize=1;strokeColor=none;fillColor=none;fontSize=12;" parent="1" vertex="1">
          <mxGeometry x="324" y="-759.5" width="80" height="30" as="geometry" />
        </mxCell>
        <mxCell id="_OX-JBq8yyOv4rNZ1e_I-91" value="nome" style="text;html=1;align=center;verticalAlign=middle;resizable=0;points=[];autosize=1;strokeColor=none;fillColor=none;fontSize=12;" parent="1" vertex="1">
          <mxGeometry x="339" y="-744" width="50" height="30" as="geometry" />
        </mxCell>
        <mxCell id="m8FWC069CCOMlwwMVzGk-7" value="desafio" style="rounded=1;arcSize=10;whiteSpace=wrap;html=1;align=center;" parent="1" vertex="1">
          <mxGeometry x="145" y="-584" width="100" height="40" as="geometry" />
        </mxCell>
        <mxCell id="m8FWC069CCOMlwwMVzGk-30" value="utilizador" style="rounded=1;arcSize=10;whiteSpace=wrap;html=1;align=center;" parent="1" vertex="1">
          <mxGeometry x="314" y="-704" width="100" height="40" as="geometry" />
        </mxCell>
        <mxCell id="m8FWC069CCOMlwwMVzGk-33" value="registo" style="rounded=1;arcSize=10;whiteSpace=wrap;html=1;align=center;" parent="1" vertex="1">
          <mxGeometry x="470" y="-584" width="100" height="40" as="geometry" />
        </mxCell>
        <mxCell id="m8FWC069CCOMlwwMVzGk-37" value="cria" style="rhombus;whiteSpace=wrap;html=1;" parent="1" vertex="1">
          <mxGeometry x="140" y="-724" width="60" height="60" as="geometry" />
        </mxCell>
        <mxCell id="m8FWC069CCOMlwwMVzGk-42" value="validar" style="rhombus;whiteSpace=wrap;html=1;" parent="1" vertex="1">
          <mxGeometry x="490" y="-714" width="60" height="60" as="geometry" />
        </mxCell>
        <mxCell id="A9Ve7NAt99WnuOBKvE6o-100" value="" style="endArrow=none;html=1;rounded=0;exitX=0;exitY=0.5;exitDx=0;exitDy=0;entryX=1;entryY=0.5;entryDx=0;entryDy=0;" parent="1" source="m8FWC069CCOMlwwMVzGk-42" target="m8FWC069CCOMlwwMVzGk-30" edge="1">
          <mxGeometry width="50" height="50" relative="1" as="geometry">
            <mxPoint x="406" y="-960" as="sourcePoint" />
            <mxPoint x="420" y="-679" as="targetPoint" />
          </mxGeometry>
        </mxCell>
        <mxCell id="A9Ve7NAt99WnuOBKvE6o-101" value="" style="endArrow=none;html=1;rounded=0;entryX=0.5;entryY=1;entryDx=0;entryDy=0;" parent="1" source="m8FWC069CCOMlwwMVzGk-33" target="m8FWC069CCOMlwwMVzGk-42" edge="1">
          <mxGeometry width="50" height="50" relative="1" as="geometry">
            <mxPoint x="590" y="-690" as="sourcePoint" />
            <mxPoint x="495" y="-790" as="targetPoint" />
          </mxGeometry>
        </mxCell>
        <mxCell id="A9Ve7NAt99WnuOBKvE6o-103" value="" style="endArrow=none;html=1;rounded=0;exitX=0;exitY=0.25;exitDx=0;exitDy=0;entryX=1;entryY=0.5;entryDx=0;entryDy=0;" parent="1" source="m8FWC069CCOMlwwMVzGk-30" target="m8FWC069CCOMlwwMVzGk-37" edge="1">
          <mxGeometry width="50" height="50" relative="1" as="geometry">
            <mxPoint x="280" y="-677" as="sourcePoint" />
            <mxPoint x="240" y="-682" as="targetPoint" />
          </mxGeometry>
        </mxCell>
        <mxCell id="A9Ve7NAt99WnuOBKvE6o-135" value="N&lt;br&gt;" style="text;html=1;align=center;verticalAlign=middle;resizable=0;points=[];autosize=1;strokeColor=none;fillColor=none;" parent="1" vertex="1">
          <mxGeometry x="145" y="-614" width="30" height="30" as="geometry" />
        </mxCell>
        <mxCell id="A9Ve7NAt99WnuOBKvE6o-160" value="&lt;font style=&quot;vertical-align: inherit;&quot;&gt;&lt;font style=&quot;vertical-align: inherit;&quot;&gt;1&lt;/font&gt;&lt;/font&gt;" style="text;html=1;align=center;verticalAlign=middle;resizable=0;points=[];autosize=1;strokeColor=none;fillColor=none;" parent="1" vertex="1">
          <mxGeometry x="284" y="-724" width="30" height="30" as="geometry" />
        </mxCell>
        <mxCell id="LG2tEvLyeP2BqsjF69uh-1" value="email" style="text;html=1;align=center;verticalAlign=middle;resizable=0;points=[];autosize=1;strokeColor=none;fillColor=none;fontSize=12;" parent="1" vertex="1">
          <mxGeometry x="339" y="-729.5" width="50" height="30" as="geometry" />
        </mxCell>
        <mxCell id="LG2tEvLyeP2BqsjF69uh-3" value="idDesafio" style="text;html=1;align=center;verticalAlign=middle;resizable=0;points=[];autosize=1;strokeColor=none;fillColor=none;fontSize=12;" parent="1" vertex="1">
          <mxGeometry x="160" y="-544" width="70" height="30" as="geometry" />
        </mxCell>
        <mxCell id="LG2tEvLyeP2BqsjF69uh-5" value="descriçao" style="text;html=1;align=center;verticalAlign=middle;resizable=0;points=[];autosize=1;strokeColor=none;fillColor=none;fontSize=12;" parent="1" vertex="1">
          <mxGeometry x="160" y="-514" width="70" height="30" as="geometry" />
        </mxCell>
        <mxCell id="LG2tEvLyeP2BqsjF69uh-6" value="país" style="text;html=1;align=center;verticalAlign=middle;resizable=0;points=[];autosize=1;strokeColor=none;fillColor=none;fontSize=12;" parent="1" vertex="1">
          <mxGeometry x="170" y="-484" width="50" height="30" as="geometry" />
        </mxCell>
        <mxCell id="LG2tEvLyeP2BqsjF69uh-7" value="região" style="text;html=1;align=center;verticalAlign=middle;resizable=0;points=[];autosize=1;strokeColor=none;fillColor=none;fontSize=12;" parent="1" vertex="1">
          <mxGeometry x="165" y="-499.5" width="60" height="30" as="geometry" />
        </mxCell>
        <mxCell id="LG2tEvLyeP2BqsjF69uh-9" value="localidade" style="text;html=1;align=center;verticalAlign=middle;resizable=0;points=[];autosize=1;strokeColor=none;fillColor=none;fontSize=12;" parent="1" vertex="1">
          <mxGeometry x="155" y="-529.5" width="80" height="30" as="geometry" />
        </mxCell>
        <mxCell id="LG2tEvLyeP2BqsjF69uh-10" value="idRegisto" style="text;html=1;align=center;verticalAlign=middle;resizable=0;points=[];autosize=1;strokeColor=none;fillColor=none;fontSize=12;" parent="1" vertex="1">
          <mxGeometry x="485" y="-544" width="70" height="30" as="geometry" />
        </mxCell>
        <mxCell id="LG2tEvLyeP2BqsjF69uh-13" value="&lt;font style=&quot;vertical-align: inherit;&quot;&gt;&lt;font style=&quot;vertical-align: inherit;&quot;&gt;data_validação&lt;/font&gt;&lt;/font&gt;" style="text;html=1;align=center;verticalAlign=middle;resizable=0;points=[];autosize=1;strokeColor=none;fillColor=none;fontSize=12;" parent="1" vertex="1">
          <mxGeometry x="480" y="-514" width="100" height="30" as="geometry" />
        </mxCell>
        <mxCell id="LG2tEvLyeP2BqsjF69uh-14" value="completado_sucesso" style="text;html=1;align=center;verticalAlign=middle;resizable=0;points=[];autosize=1;strokeColor=none;fillColor=none;fontSize=12;" parent="1" vertex="1">
          <mxGeometry x="460" y="-529.5" width="140" height="30" as="geometry" />
        </mxCell>
        <mxCell id="LG2tEvLyeP2BqsjF69uh-16" value="complet." style="rhombus;whiteSpace=wrap;html=1;" parent="1" vertex="1">
          <mxGeometry x="334" y="-594" width="60" height="60" as="geometry" />
        </mxCell>
        <mxCell id="LG2tEvLyeP2BqsjF69uh-17" value="" style="endArrow=none;html=1;rounded=0;exitX=0;exitY=0.5;exitDx=0;exitDy=0;entryX=1;entryY=0.5;entryDx=0;entryDy=0;" parent="1" source="m8FWC069CCOMlwwMVzGk-33" target="LG2tEvLyeP2BqsjF69uh-16" edge="1">
          <mxGeometry width="50" height="50" relative="1" as="geometry">
            <mxPoint x="500" y="-674" as="sourcePoint" />
            <mxPoint x="424" y="-674" as="targetPoint" />
          </mxGeometry>
        </mxCell>
        <mxCell id="LG2tEvLyeP2BqsjF69uh-18" value="" style="endArrow=none;html=1;rounded=0;exitX=0;exitY=0.5;exitDx=0;exitDy=0;entryX=1;entryY=0.5;entryDx=0;entryDy=0;" parent="1" source="LG2tEvLyeP2BqsjF69uh-16" target="m8FWC069CCOMlwwMVzGk-7" edge="1">
          <mxGeometry width="50" height="50" relative="1" as="geometry">
            <mxPoint x="321" y="-564.36" as="sourcePoint" />
            <mxPoint x="280" y="-550" as="targetPoint" />
          </mxGeometry>
        </mxCell>
        <mxCell id="LG2tEvLyeP2BqsjF69uh-20" value="1" style="edgeLabel;html=1;align=center;verticalAlign=middle;resizable=0;points=[];" parent="1" vertex="1" connectable="0">
          <mxGeometry x="449.99984908954764" y="-694.4980867978635" as="geometry">
            <mxPoint x="-21" y="-3" as="offset" />
          </mxGeometry>
        </mxCell>
        <mxCell id="LG2tEvLyeP2BqsjF69uh-21" value="N&lt;br&gt;" style="text;html=1;align=center;verticalAlign=middle;resizable=0;points=[];autosize=1;strokeColor=none;fillColor=none;" parent="1" vertex="1">
          <mxGeometry x="440" y="-564.9999999999999" width="30" height="30" as="geometry" />
        </mxCell>
        <mxCell id="LG2tEvLyeP2BqsjF69uh-22" value="1" style="edgeLabel;html=1;align=center;verticalAlign=middle;resizable=0;points=[];" parent="1" vertex="1" connectable="0">
          <mxGeometry x="283.99984908954764" y="-549.9980867978635" as="geometry">
            <mxPoint x="-21" y="-3" as="offset" />
          </mxGeometry>
        </mxCell>
        <mxCell id="ewBVVVlj6XX4nbLFyOXV-1" value="" style="endArrow=none;html=1;rounded=0;exitX=0.5;exitY=1;exitDx=0;exitDy=0;entryX=1;entryY=0.5;entryDx=0;entryDy=0;" parent="1" source="m8FWC069CCOMlwwMVzGk-30" target="ewBVVVlj6XX4nbLFyOXV-2" edge="1">
          <mxGeometry width="50" height="50" relative="1" as="geometry">
            <mxPoint x="310" y="-670" as="sourcePoint" />
            <mxPoint x="280" y="-674" as="targetPoint" />
            <Array as="points">
              <mxPoint x="364" y="-654" />
            </Array>
          </mxGeometry>
        </mxCell>
        <mxCell id="ewBVVVlj6XX4nbLFyOXV-2" value="participa" style="rhombus;whiteSpace=wrap;html=1;" parent="1" vertex="1">
          <mxGeometry x="200" y="-684" width="60" height="60" as="geometry" />
        </mxCell>
        <mxCell id="ewBVVVlj6XX4nbLFyOXV-3" value="" style="endArrow=none;html=1;rounded=0;exitX=0.5;exitY=1;exitDx=0;exitDy=0;entryX=0.25;entryY=0;entryDx=0;entryDy=0;" parent="1" source="m8FWC069CCOMlwwMVzGk-37" target="m8FWC069CCOMlwwMVzGk-7" edge="1">
          <mxGeometry width="50" height="50" relative="1" as="geometry">
            <mxPoint x="119" y="-654" as="sourcePoint" />
            <mxPoint x="10" y="-654" as="targetPoint" />
          </mxGeometry>
        </mxCell>
        <mxCell id="ewBVVVlj6XX4nbLFyOXV-4" value="" style="endArrow=none;html=1;rounded=0;exitX=0.5;exitY=1;exitDx=0;exitDy=0;entryX=0.75;entryY=0;entryDx=0;entryDy=0;" parent="1" source="ewBVVVlj6XX4nbLFyOXV-2" target="m8FWC069CCOMlwwMVzGk-7" edge="1">
          <mxGeometry width="50" height="50" relative="1" as="geometry">
            <mxPoint x="180" y="-654" as="sourcePoint" />
            <mxPoint x="230" y="-590" as="targetPoint" />
            <Array as="points">
              <mxPoint x="230" y="-600" />
              <mxPoint x="220" y="-600" />
            </Array>
          </mxGeometry>
        </mxCell>
        <mxCell id="3SzaWMMR1ydV6BAzwiTZ-1" value="N&lt;br&gt;" style="text;html=1;align=center;verticalAlign=middle;resizable=0;points=[];autosize=1;strokeColor=none;fillColor=none;" parent="1" vertex="1">
          <mxGeometry x="200" y="-624" width="30" height="30" as="geometry" />
        </mxCell>
        <mxCell id="3SzaWMMR1ydV6BAzwiTZ-2" value="N&lt;br&gt;" style="text;html=1;align=center;verticalAlign=middle;resizable=0;points=[];autosize=1;strokeColor=none;fillColor=none;" parent="1" vertex="1">
          <mxGeometry x="359" y="-664" width="30" height="30" as="geometry" />
        </mxCell>
        <mxCell id="JZQrbL0kekuzYIPqlFxs-4" value="N&lt;br&gt;" style="text;html=1;align=center;verticalAlign=middle;resizable=0;points=[];autosize=1;strokeColor=none;fillColor=none;" parent="1" vertex="1">
          <mxGeometry x="515" y="-613.9999999999999" width="30" height="30" as="geometry" />
        </mxCell>
        <mxCell id="N-942g2xH2eBXg5PhxMF-1" value="" style="shape=image;verticalLabelPosition=bottom;labelBackgroundColor=default;verticalAlign=top;aspect=fixed;imageAspect=0;image=data:image/png,iVBORw0KGgoAAAANSUhEUgAAA3MAAAFkCAYAAACKBWJwAAAAAXNSR0IArs4c6QAAAERlWElmTU0AKgAAAAgAAYdpAAQAAAABAAAAGgAAAAAAA6ABAAMAAAABAAEAAKACAAQAAAABAAADc6ADAAQAAAABAAABZAAAAAA5ojWwAABAAElEQVR4AeydB5guRZX+e3UQRYIEJYmCimBAYPmjKAae1UUxgWJCMCAgK7BEFRUREVwDQUAB14C4CuKKqKCi6CNmFFQEdQUBJUgGCRLvveD//uryjmd6Ks18/X3TM3PO83xT3XVOnfPWW9U9XV3d1f+y0kor/aN5QB70oAc1//Iv/9Lcf//9zT/+MZ4t9Xi68sorNzfffPP4vt2gPH4oj5+YKE7KRvqZxgH2GizD5qMWB3YpLF20Sxc48FHCIs5T/WNUOGycFBZh9b4KW0tkUE5K/YMoipFqF2szzLaZSRyLz93NokWLmttvvz0QLyz33Xdf2G//kX6YfFjeS22Dnl9KUucy7EfZR/qCg3qXsMAL7RsTtX+pXeRjmG3z4Ac/uOoaYab7qjibaRy0Zw2WUv/AR03719hMl5NRHrvwNggn4nyYfICxC06Edbrt0hUO/NRgGaRdbIxhtk0X7WKxDrNtxiBUAnAEcnKyzDLL5NShY2KQ8qM4KRvpU+UVfNg4iFODpS84wJvDUqqL9PhJcS+blJ6ySA4H+pwf6bBLxZFNSk9ZZBAclFcctmOxpI/pKCMZNg7i1GDpCw7w5rCU6iI9flLcyyalpyySw4E+50c67FJxZJPSUxaZDo6llloqXKxQvhSnpMcHMh0cS0ou+as47KXqjE1KJ1+jwpHDia4vOGqxpHitbZcSH7U4cn6EpYQ1pcc3Muy2KeFcgmL4OIhTg2XYfNTiwC6HpVQX6fGT6gOySekpi+RwoM/5kQ67VBzZpPSURQbBQXnFYTsWS/qYjjKSYeMgTg2WvuAAbw5LqS7S4yfFvWxSesoiORzoc37G7AxbzWgah4gttyRnyV+C4QfQjEJjojgpG+lLo1h8DxMH/mux9AVHipMu2mUqfKRwkF/CIs5T/WNUOGycFBZh9b4KW0tkUE5K/YMoipFqF2szzLbpCw5b30Fn5vA1ivMZbccvJ6PAQX8r9ZG+4Ci1jeoS47RPfbWrmbkSH9S55hyRshFnpf4xbBz4r8XS977q53dac6J0wUlt/yByX/pIX3CkOOmiXfA9irZ5EIFcnAFnwBlwBmYXAyuuuGKz/PLLzy7QjtYZcAacAWfAGXAGOmVgrFNv7swZcAacAWdgJAzwSMaCBQtGEsuDOAPOgDPgDDgDzkA/GfCZuX62i6NyBpwBZ8AZcAacAWfAGXAGnAFnIMuAz8xl6XGlM+AMOAP9ZODaa68tvnPWT+SOyhlwBpwBZ8AZcAa6YsAHc10x6X6cAWfAGRghAyzK4OIMOAPOgDPgDDgD85uBMVZrsaJ9pVZnt3N6dKwONYiNyiq1se12To9uUBzEUgylNr62S7pR4bB4hU3pKPnI4ZAux0ktVvlSHWPpsNtG/pXGMJRw1tY3x5mNkcNS0tXEqLGxeKbKySj5KOEsYSnprf8c99Yuxlc7ztJLLx1WYVy4cOG4OTa5GNIpHS/Y2sjp0dW0f8mGkLk4JX1XOIRBaYuKsFvSlepai7VU50H1o8JRilPS23pim5OcvjZOrv3kX2kKS07fBY5aTvqCw+JtczZKPnI4pCu1f04vHzZlOybDbhv5VxrDQF5Oj66mvjU2NbFyGGti1NiUcOT0o+Qjh0O6VH3HWDJTwnLBamQKpAQbW87aocMP+tQS2bKhXCxOX3CArwbLsPmoxYFdCos4H6RdusAhjLk+IqzYxvrHqHBYrCksNf1DfoZ5zNRykuofwphrF2vD9rDaRu3vfRWWl0iMk0c+8pENA7kbb7wxGMlmWO1CEMXoom1Ky70Ty4+ZJe2vvyVOumgXYiCpfoSuhKN0HkGPpGL05bzaFxxwVYNl0Hah/LDbRjFmQ18VVu+rMLBEuuIEP304v1OrFBbVdTb01TF7MtV2zeM7sn2gfccT8qk4acoGgqRTOu5g8YbyZhoHmGqxyM7WQ+UH5UN+SKfLCfj6gEN1yWEp9Q/5GIQP+cjhwKaERe0+3XbpCof8kJawCDO2VvrSR/qCA25KWEr9Qz5IS+1ibdm2EsNBnn7YCgt5MVF+1zjasYSDfMVs25DfFxxgK2HJ1WPQcwjx5b+Ew9qybQUflnurY9vqFK9to/xBcZQ4URylM4WjxInwDZuPEg74qcUiuxinpXbpEofFbLGArw84hC+HZRR81ODApoRF7e59FbaWyKCczKa+OtZueHUYkSBSbIquXU56yjMjl7PBFn3Opi84wFrCUqpHF3zU4MAmhaWrdhkUh8qXOCn1D/mRHfsxSfGBbVeclPoHsUaBQ3XKcdIXHDlOumqXGj5yOFS+r3311ltvDedaey7Ota/qk+sfXfAhHyUsfcFROn5z9ehjX7X9gbawIs5zNiU+8DcoJ6VjihijwKG6lOoj3rCPSal8TX0VY5C26QsOOEph6eMxk8KqeuT02HhfhYWJUuIkx2lf+khfcMBsCYsvgDKx//meM+AMOAOzgoE77rhjVuB0kM6AM+AMOAPOgDMwPAb++cLc8GK4Z2fAGXAGnAFnwBlwBpwBZ8AZcAacgY4Z8MFcx4S6O2fAGXAGRsHAqquu2qy00kqjCOUxnAFnwBlwBpwBZ6CnDPhjlj1tGIflDDgDzkCOgbGxseS7y7lyrnMGnAFnwBlwBpyBucOAz8zNnbb0mjgDzsA8YmDRokXJz7/MIxq8qs6AM+AMOAPOwLxmYMJ35liiFWHVFH4pQSfbmE1NefmP+VFejR/ZDgMHPuU/hwWd7GYSB7FzWHJ1UFlskFR9lF/jS7bBYetPrrzVpXwo39q2QoRd9LJN6bFJifUf86M8axfzNWwcxKzB0hcc4M1hqeETG0T1Djvmj/JrfMnWFB/fzJW3upQP5VvbcedmA71sTfb4Zru8vi+nMtJrf7zgAxvKl11br/2p4lA5pda/YkqnlHxW7cM2JaPCQXyLuY2nLziEM8Up+pzO1jFlp3xr2+ajBkdN+RzeUeIAawpLX3BYfDlu0QlzqFTrT64splaf8qN8a9sKE3ZzWGrKYoMoXtgxf5Rf40u2pvj4Zq681aV8KN/ajjs3G+hla7LHN2vKY4PE/Civxo9sx4ObjZryORwWX84Xuj7gAG8OS64OKosNkqqP8mt8yTY4bP3JlR8TCAHRPsuG5kR2bRvy+egk5VM+ZMNyvTGhMvKf8qFystO+UsUYBAe+arH0BQeYY1hGzUcKh/JzfURYU/0DH7XtonikbVGcQfpIX3BQt1ossf5B+S74mAoOxSS10hccYCphkb5PfTV1zqztH6q3bRNtq76DHDP4AguSwhqUi/8QLyZd4lCMHBbZtLGMGgfxc1jgNVUPYe1DX+X83wccJU76dsyo7VNtXOofuf+7KjvsthHn1CFVD9nMdB/pC46atvG+CksTZVBO1P6zoa9O+Gi4vm+idCItE/dSB6HNt9sTSzfj36KL2Si+0nZZux8rj97m221blm1OFuhTNsKgtF1e+6nyNt9uq5zSrnDgLxbH5tltxVc6bBxtfCksfcEB3hwW9Qul4jGWpupq8+1220cOB7bCoLRdXvupGDbfbquc0q5w4C8Wx+bZbcVXOmwcbXwpLDOFY9lllw198+677xYl4311PMNsqF8oNapJm6m62ny73XZQw0lfcIC9hCVVV5tvt6fDRw0ObFJxlK+0jYH9mnbBrsQHNqk4Nt9uU0bSFxzgyWERD0qFP5am6mrz7XbbRw4HtsKgtF1e+6kYNt9uq5zSrnDgLxbH5tltxVc6bBxtfCksfcEB3hwW9Qul4jGWpupq8+1220cOB7bCoLRdXvupGDbfbquc0q5w4C8Wx+bZbcVXOmwcbXwxLEP5aDiB+KUaktGywKVsGBHLjwhrp7kYtnwqRg0OYlpfbQzs9wVHDoutw7D5yOFAV8LSVbsMioPyNVhsfSgTk770kb7ggKMUFsun99UlvSnGyXLLLdcsWLCgufPOO4OR+mqKM4ysnyWeJ/9NtUu7fCqOcOT84As9v5Tkytt6DIrD+oph6QsOsJWwwMWw+ajBAc4S1pyeGKV26QJHTV/tC44aTnKc2nrMZB/pC442nzFOavpH2w/7MRlF21huYxjIGwUO4pSw9AVHjhNbh1j/oGxf+ogvgEJruDgDzoAz4Aw4A86AM+AMOAPOgDMwyxjwTxPMsgZzuM6AM+AMwMBNN92UnIVxhpwBZ8AZcAacAWdgfjDgg7n50c5eS2fAGZhjDNx7771zrEZeHWfAGXAGnAFnwBmYKgP+mOVUGXN7Z8AZcAZ6wADP6vNMv4sz4Aw4A86AM+AMzF8GfDA3f9vea+4MOAOzmIHVV1+9WWWVVWZxDRy6M+AMOAPOgDPgDAzKwISPhvN9Ea3ekrvji04ruMQA6FsmMR15lOWXWh2mLzjAWoNl2HzU4sAuh2XQdukKh/ywmlFMSv1D5akrPkhTkuNDflI40Jew1PQP/AwbBzFqsPQFR4kT76swNFHanKgt6aOI+mqqP9f0D/zIL9sxaeNo2whH6vyOPT5YzplYKRkVDuLkziN9wQFPNVhSfNa2S4mPWhypfkh52r/UP0aBo8RJ346ZEic1/SPXLiU+1HYlHKU+0tU5ZFAcqk+Kk1HxUcKBvoTF+yosTZQuOJktfXXCR8M5MHQySHVuUYVdTOQDXcrG6mI28kHnnUkcwgmeEpZYPWx5bZPGROWVtm3I51fCQbmYD5VP6RVPZZUqX6n8TBeH4su/UvlXqnylyldKPr9h4yCeMCgVBun6gGMqWGL1sOW1TRoTlVfatiGf33TbRuXxm4phdSkb+ZkuDsWQf6XkW1G+Uqtjm3x+XeO45557mkWLFk3gSLHaGIaJIxVLMVP6rvlIxSnhqGkbbGJi+U7Z2PgpG/npgpNUjFHjsPHa3Amj0pgeXRd85HBYXQwLeX3AIZw1WGL1sOW1TRoTlVfatiGf33TbRuXxm4phdSkb+ZkuDsWQf6XkW1G+Uqtjm3x+w8ahWDZlW9IXHOCpxYJdTFRevmI2VlfyM9226QsO1VX1VGp5mfCdOQZOVJo7pjnBLndXjbLoUwMxAUnZ9AUH9ajBMmw+anHILtc2Kc4pW2oX+R92H+kLjhpOavqHeMu1CzajaBvvqzA9UQbhZCb76s033zyhIhbLBMUDO33rq+DJySDtgl/LRypWDSd9wUGdSlhGcQ6pwYFNDgvXGDl9Tbt0gaPUR/qCQ3Ut/e8t9Y9Su5T4qMUhO9o4Jbn2HyUO8KWw9AUHGEtYvK/C0kTpipNU/yBaqV2w6QoHvlJYxggiAZT2lUrXTlP6Gh8lm5LeYhkmDuLUYukLDjDHsNTUoysbMCAxHOSX4pT0NT6wkUwXB+VLWEp6YSAdJg7812LpC44UJzX16MoGDMh0OekLDuogLNOtCz4kg/gQDnzl/OT0o8QhjEoV26YpXW1dVV6p9c12jR+VyfnAJqeXTql8Ku0Kh/wrlX+lyleqfKWjwlGKU9ILL+kgdamJU2PTJxwpLDX16MoGDMh026YvOKhDCUtJjw/JdPmgfE2cGht89QVHCktNPbqyAQMyXU58AZQl/PlfZ8AZcAZmFQMrrrhis/zyy88qzA7WGXAGnAFnwBlwBrplwL8z1y2f7s0ZcAacgZEwsMwyyzQLFiwYSSwP4gw4A86AM+AMOAP9ZMBn5vrZLo7KGXAGnAFnwBlwBpwBZ8AZcAacgSwDPjOXpceVzoAz4Az0k4Frr702+Xx9PxE7KmfAGXAGnAFnwBnomgEfzHXNqPtzBpwBZ2AEDLCqlYsz4Aw4A86AM+AMzG8GxlZeeeVxBliVBUmtpiJD3tXIScmP9PiIxZI+prNxh42DWDVY+oIDvDkspbpIj58U97JJ6SmL5HCgz/mRDrtUHNmk9JRFBsFBecVhOxZL+piOMpJh4yBODZa+4ABvDkupLtLjJ8W9bFJ6yiI5HOhzfqTDLhVHNik9ZZGp4hgbGwsx9SmZUpySfgmKqeNQOaWKw36qztikdPIzVT5UTmktDuxzWPqCA5w1WFJ16YqPWhzYlbBMV49vpIYP7EpxUjbiLFWecsiwcRCjBktfcJQ4oS7LLbdcs9122yXf+8Umx3sNH+BYaqmlmoULF7IZlZKfvuAAfA5LqR6q/KB8lHBIT5prv1HheMhDHtKcc845zQUXXACkqOSOmxKv0uM4VV/ZpPQClcOBTc7PmP1WEd8wwTj1HQMFJLXlbD7l8QPo1J1jxUnZSD/TOKhXLZZh8jEVHNjGsHTRLl3gwEcJizhP9Y9R4bBxUliE1fsqbC2RQTkp9Q+iKEaqXazNMNtmJnGsueaa4UJIx7uwaHC3pDX++Vf6YfJheS+1DXp+OVHd2jaj7iN9wQEPOSzwQvvGRO1fahf5GGbbPPjBD666RpjpvirOZhoH7VmLJdc/8FHT/jU20+VExy4r8T7zmc9sTjjhhFh39TxnoBMG1l577ea1r31t84Mf/CDrL3bcqK/WHA81NtM9ZgBewuKPWWab15XOgDPgDDgDzoAz4Aw4A10zcP311zdf+9rXunbr/pyBcQY22WSTZrXVVhvfn6sbPpibqy3r9XIGnIE5zcBtt93WpGbh5nTFvXLOgDMw5xhYZZVVinW66aabijZu4AzMRwZ8MDcfW93r7Aw4A7OegTvuuGPW18Er4Aw4A84ADOy294HNQ5dZNknGr376rea0005L6l3hDMxnBnwwN59b3+vuDDgDzoAz4Aw4A85ADxh4xsbrNiuuMHlA97uLr2x+1QN8DsEZ6CsD/tHwvraM43IGnAFnIMPAqquu2qy00koZC1c5A86AMzB7GLj//iWLIrEs0pIFJR5YJKmwUNLsqaEjdQaGw8AYK6RY0b5Sq7PbOT06DsRBbFRWqY1tt3N6dIPiIJZiKLXxtV3SjQqHxStsSkfJRw6HdDlOarHKl+oYS4fdNvKvNIahhLO2vjnObIwclpKuJkaNjcUzVU5GyUcJZwlLSW/957i3djG+2nH0aQLrk2273/YjndK2Xvs5Pbqa9i/ZECsXp6TvCocwKBUHNi3pSnWtxVqq86D6UeEoxSnpbT2xzUlOXxsn137yrzSFJafvAkctJ33BYfG2OYthvG/xKqx333Nvs/PO+7TNFz+C+e7FnxdYNCnfM5yBWgZifc6WTenJz50f8FFrI1sbt72dwqGyKSxjLFUrYblgOaJASrCx5awdOvygT72cLxvKxeL0BQf4arAMm49aHNilsIjzQdqlCxzCmOsjwoptrH+MCofFmsJS0z/kZ5jHTC0nqf4hjLl2sTZsD6tt1P7eV2F5icQ4YZljfupXshlWu4BEMbpom9IyzcRS3R6gYTzpEge+kBRvfcEBxhKWLtqlxEcNjtJ5BD2S4rwv59W+4ICrGiyl/oGPme4jYAQHPyucDxbce2/ziEc8wmaH7UWLFiWvJycZe4Yz0GIgd1xgmtKrr870MSOMueN3zJ5Mtc1BVRLZtu3Ip+KkKRsIkk6p9aO8mcYBplossrP1UPlB+ZAf0ulyAr4+4FBdclhK/UM+BuFDPnI4sClhUbtPt126wiE/pCUswoytlb70kb7ggJsSllL/kA/SUrtYW7atxHCwrLcVYcE2JsrvGkc7lnCQr5htG/L7ggNsJSy5egx6DiG+/JdwWFu2reDDcm91bFud4rVtlD8ojhIniqN0pnCUOBG+YfNRwgE/tVhkF+O01C5d4rCYLRbwgaMt9933jzAz95977tM8aPE14v305+b+ZrF1c9V1t/jMXJsw369mgD6XOi7kJKZXX82VH8UxA8YSlrH2SUrAYhWzlW6Xk47yzMhRPmUjYDmbvuAAawlLqR5d8FGDQ7zGeO+qXQbFofIlTuA0x6v8yI79mOR8dMVJqX+AaxQ4iFPC0hccOU66apcaPnI4VH629dXY8U9dkFL/wGZUfYQ4/FIyKhwlTvqCo7Ztcu0vznM2JT5qceR4Kx1TxBgFDtUlh7UvOGo4KdWjhvdh9xH4BAc/K//4x/3NPfcsWDyAY/i2+AbL4p/S+xYtnGRvy/Z9+6EPfWhzwAEHNK973esmQN1vv/2a008/fUJezc7LX/7yZptttmn23Xff5tZbb40WWWeddZotttii+dznPhfVz7fM3Dkvddyor6b04nDYxwxxSlh8NUu1hqfOgDPgDMwiBpZddtlwgXP33XfPItQO1RlwBpyByQwsWvxE2GV/vXmy4oGcRYsHdLNdjjrqqObYY48N1eBj1rvvvnvz4x//ODkgS9WXAWBuEMjg8S1veUtz3XXXpVx4/hxjwAdzc6xBvTrOgDMwPxhYYYUVmgULFjQ+mJsf7e21dAbmMgMf+693zeXqTarbmmuuOZ7He4JHHnlk85znPKf5yU9+Mj7jxoDvlFNOCXYMBNlnNu65z33u+MwcSpVlm9k/fNtZwM9+9rMTZgbtoJIyLrOfgckPLs/+OnkNnAFnwBlwBpwBZ8AZcAacgd4wsPfeezeXXHJJ+O2yyy7NIYccEmbltt9+++bXv/51s+666zZf//rXGx6/5NMzzNyxTX5KGNghm266abDDz1lnnRUGgRq0bbnllsFmgw02CHYMCvm5zB0GfDA3d9rSa+IMOAPziIGbbrppyo/nzCN6vKrOgDPgDPSKAQZXDKiYbbvxxhubW265peGRyNVWW63RQO+II44IM2sPe9jDAvarr746pL/4xS+ideExTeS8884Lg0Tep2vLWmutFR65vOeeexa/l3hPg087M9i29/3Zx4AP5mZfmzliZ8AZcAaaexcv471w4ex/j8Sb0hlwBpyB+cIAgykGbAgzcuzzbhsDPWbg+PG+mxY20aBrs802i1KEHfaUYxaPGbqll156gu1VV10VZuJ4nJPBIz41SJxg6DuzloEJ35nTcrGsmsIvJehkG7OpKS//MT/Kq/Ej22HgwKf857Cgk91M4iB2DkuuDiqLDZKqj/JrfMk2OGz9yZW3upQP5VvbVoiwi162KT02KbH+Y36UZ+1ivoaNg5g1WPqCA7w5LDV8YoOo3mHH/FF+jS/ZmuLjm7nyVpfyoXxrO+7cbKCXrcke32yXZ59VtCTSp3woX3Yq107Ry7atY7+mPDZIyg/5rC4mu2Dc+jMqHITN1akvOIQzxSn6nM7WMWWnfGuL37Z0wQk+Fa/tX/mjwEGMFJa+4LD4cpx00S45PmpxYJfDktNRdq4LAzAep2RQx4zbSSedFN574xFMhPfdeFySxVKYxcOOwV5M7Ht1KnvbbbeFASKzfQjvzDHIY/YOYdCH//kkOpZjdc71R3T8UmL1qRjKt7Yxf+hlm9KnsIxZBU60by8SUk5T+XzYTkt15mzaS9PKti84wFOLRbypDkrJH5SPqeDANoalLziEL8eJsKb6Rxd81OCwNikstf1DvkjbovoOcszgsxZLrH9QftQ4FJPUSl9wgKmERfpU/8BHbbsoHmlbFMf2kTXWWCPMzPG4DmJt2uXZHxaOdizhKHFCuZn8P0P8Wk6oU0xUV9subTvZlPhQjEE4oT6p8qPEkTu/ww/6UfBRwlHipLZ/UCe1H9tWFGNUfaQvOOAghkV8xHSWt7m0zezbgQceOKFK7RUpmV2zwgwanx/Qe288Pqn33GxZvWtny7LNQFArZ7JP/DYG8ueD0NdK/S2mJ2/Qcwj8juI8MuGj4foOg9JcI6f+Ydh8u932xYk8dXJTfKXtsnY/FcPm221blu0cDvTCoJS8mKRi2Hy73fbRFQ78xuLYPLs9ahxtfCksw+ajFgd2OSzqF0qxT0mqrjbfbrf95HBgKwxK2+W1n4ph8+22yintCgf+YnFsnt1WfKXDxtHGl8IyUzjAQ1tbXMIijmyqfqHU6trb1qfV2Xy7bW3YFo6UDRj6ggO8JSypeth8u41PKzV8YF/CgU0qjvKVYtuWUeIgdgpLX3CAMYdF7aEU+5Sk6mrz7XbbTw4HtsKgtF1e+6kYNt9uq5zSrnDgLxZHeUoV19OJDDAAZPaOmTnNsDFjp8cvJ1r7Xo4B+lqpv8X0Ns9ut2MN+5ghno1vt4VlKB8NJxC/1EmHUarApWwYEcuPwLbTXAxbPhWjBgcxra82Bvb7giOHxdZh2HzkcKArYemqXQbFQfkaLLY+lIlJX/pIX3DAUQqL5dP76pLeFOPkrrvuahYtWjR+nlVfTXGGJ+tniefJf1Pt0i6fiiMcOT/4Qs8vJbnyth6D4rC+Ylj6ggNsJSxwMWw+anCAs4Q1pydGqV26wFHTV/uCo4aTHKe2HjPZR4QjhYF6uixhIDXr5vxMnYFcf0sdN+qrKT0oas4h2Flf7MckF8eWj9XFvzMXY9TznAFnwBnoOQN/+9vfeo7Q4TkDzoAz4Aw4A87AsBnw1SyHzbD7dwacAWfAGXAGnAFnwBlwBpwBZ2AIDPhgbgikuktnwBlwBobNwIorrtgsv/zyww7j/p0BZ8AZcAacAWegxwz4Y5Y9bhyH5gw4A85AioFlllmmWbBgQUrt+c6AM+AMOAPOgDMwDxjwmbl50MheRWfAGXAGnAFnwBlwBpwBZ8AZmHsMTPhoON9T0IoppClBpxVcYjb6LkNMRx5l+cVWZEHfFxy1WIbNRy0O7HJYBm2XrnDIDyv3xKTUP1SeuuKDNCU5PuQnhQN9CYv31cnMd8GJ99U4r7avXn/99aH/00cR9VVrY7100S7466ptWM55Jo9d1aV0Hhn2OaQWB3Y1WLCLifpH6v8uZUbVR4jTBxwlTkbFRwlHbdvU9I/U+YEYXeHAVw4LvPJzcQZGxQB9OyWlvtqHYwbsHDMpLBM+Gk6FVKlUAZGBXUzkA13KxupiNvIB+TOJQzjBU8ISq4ctr23SmKi80rYN+fxKOCgX86HyKb3iqaxS5SuVn+niUHz5Vyr/SpWvVPlKyec3bBzEEwalwiBdH3BMBUusHra8tkljovJK2zbk85tu26g8flMxrC5lIz/TxaEY8q+UfCvKV2p1bJPPr2scOjfauIrVxjBMHKlYipnSd81HKk4JR03bWI5tHMt3ysbGT9nITxecpGKMGoeNZzmz+SmsXfJh47VxWF0MS19wCCd4Sn0kVg9bXtukMVF5pW0b8vmVcFAu5kPl11hjjWadddZpvvrVr7ZDhH3sdI6LGch3zoZyK620UrhxkPo+W8lPVzi68JPzUaqHOMz5wKbGz2zyQftfddVV4/USD+1U9bb55ClfqdVrWzqlyldKPr/pHjP4kQ9ty7fSCd+Z46AgGHdMc4Jd7q4aZdGnDjJVOGXTFxzUowbLsPmoxSG7XNukOKdsqV3kf9h9pC84ajip6R/iLdcu2IyibbyvwvREGYSTmeyrSy+9dOgzCxcuDBWyWCbWcMle3/oqeHIySLvg1/KRilXDSV9wUKcSllGcQ2pwYJPDwjVGTl/TLl3gKPWRvuBQXUv/e0v9o9QuJT5qcciONk4JF9j89tprr0km4GAWQh9jnmSwOAMu+PGtzZzsvPPO4UPbp556atRsbGws9MUY1i5xMKjIfU4mhwPgJSy1fAwbB1hrsIwKx0YbbdS8/OUvD20MtpiUjpvcuWqUxwzYU1jGqIQEUNpXKl07TelrfJRsSnqLZZg4iFOLpS84wBzDUlOPrmzAgMRwkF+KU9LX+MBGMl0clC9hKemFgXSYOPBfi6UvOFKc1NSjKxswINPlZCZxrLzyymEBlBtvvDHUQVimW5fg5IE/g/gQDlzl/OT0D8DIlpdvpSqjtBaHyitVeZumdF3FqPEjPDks2OT00imVT6Vd4ZB/pfKvVPlKla90VDhKcUp64SUdpC41cWps+oQjhcXWg4HYbbfdhukEYTAgu9ggC2PZpC5u5fCee+5p7r777mgcYuCHtovFUYyUfio4GKzF6oqPEg4bJ4VFWEt8DBuHxZrDMiocd9xxR/g/mTo+wYvE9OqDKT35XdngC4nhIL8UJ/0QKaVdnAFnwBlwBpwBZ8AZcAacAWfAGXAGesmAf5qgl83ioJwBZ8AZyDPAXd7SI/F5D651BpwBZ8AZcAacgdnOgA/mZnsLOn5nwBmYlwzw+IiLM+AMOAPOgDPgDMxvBvwxy/nd/l57Z8AZcAacAWfAGXAGnAFnwBmYpQz4YG6WNpzDdgacgfnNwKqrrhqW3Z7fLHjtnQFnwBlwBpyB+c1Arx+z/Pd///ds6yy77LJN7lEjrVKUWh0G59jEVjFSYFaQ4Zez6QsOMOewjIqPEg70JSxdtMtUcHz3u9/F3MUZmDUMaCnrWQPYgToDzoAz4Aw4A85A5wyMsby1hEELkhv8oF9mmWVIklLyIz0OYrGk32effZrzzjuvufPOO5OxXOEMDMrAC1/4wuaCCy5o9L0u6099kbxcX43prJ9hHzPEEtYclr7gAG8OS6ku0uMnVV/ZpPSURXI40Of8SIddKo5sUnrKIlPF8ZCHPKRhQKdzeClOSb8ExdRxqJxSxWE/VWdsUjr5mSofKqe0Fgf2OSx9wQHOGiypunTFRy0O7EpYpqvHN1LDB3alOCkbcZYqTzlk2DiIUYOlLzjECZj5tW+Gk/fUpz413HzW+YsyEtWV/RT3sknp5Yvz5MMf/vDx86Tyleb8SIdtKo5sUnrFGXbb9AUH9a3BMmw+hGO55ZZrnvCEJyTbH7scllJdpMdPqg/IJqWnLJLDgT7nZ+zmm2/GJgizIRjnvg0hW1tOeaSU16xL+wCWneJQsZiN9DfddFNz3HHHNdddd52KeuoMdM7Ac5/73PAxzwULFkzyrb5Y6qszfcwAXFhLWIZ57E4FB7YxLF2cQ7rAgY8SFnGe6h/DxNHmTlhSK1xKX+ofYG77Jg8p8YGN4pQ4Qc8vJ6PAQZ1KnPQFB1zlsKguMU5r20U+htk2fBC61D9GgaPEifSl/lFqF/zU1LfGpoQl1z9GiQNObrnllubMM89suGEqeeITn9i86lWvajbbbLNwrmjjZfB14IEHNq973etUpLnooouaPffcs7n22mubAw44IFwTHn/88eEx88MOOyzY7bbbbg3flGsL/9eZEGjHwW6ppZZqPvWpTzXf+MY3mq9//esTivKh6U033bT58Ic/HL5TB+9WHvGIRzRHHnlk85znPMdmB9y//vWvJ+RpJ4YB3UMf+tDmve99b3P99dc3H//4x2U+IaXttt566/Ch9V/96lcTdOx4X51ESeCEdmMwf+yxxzZf+cpXmq9+9auTDRfnxNqGc9Coj5kYDgCXsPg7c9Fm9UxnwBlwBpwBZ8AZcAacgS4YWHfddZt3vetdzaGHHtr8+c9/bvbbb7/sjfpjjjmmWW+99ZoNNtig+e1vf9u8+MUvngCDAdDee+8d8vbdd9/oQG5CgcgOHy3feeedm9NPPz2irct6xzve0ay//voNg1TqtM0224TBWV3pJVb33ntvc9BBB4UBR6rcOuus0+y0004ptecnGGAgz5NX8PukJz2pOeWUU5ptt902YT17s3v9zpyl9ZWvfGXz5E2eb7MmbD+4WdQcfMBeE/J8xxlwBpyB2cIAsxUrrrhiFK7uyqHUzBt3G7mTf9ddd4UyujMrfdsR/pHSnX3uOLfvQstXDId0SoUjN8sAlr7gAHcOy6j4KOFAX4Ml1f62XVJ3f4nh4gysvfbaYVYtxsRUziOU5zz1/ve/v3na057WnHHGGQ0zaMhaa60VZsbCzhT/sDbAu9/97mbNNddsGMjdeuutU/SwxJzH1O3MHLNxRxxxRJgJ/OlPfzpln9RJsskmm4SBA/tHHXXU+HY7BnUh5tvf/vbxmTlb9ic/+Umo65vf/OYwuP3Sl74UZv/+9re/NQx4GUgi2223XXP++eeHbf8zkYGll166ueGGG8JgmZsKL3vZywKH9Ed+qfPqVP/fzeR5ddYM5miadR+3ZrPBeo+Z2EqL92657Y7mRz/zTjyJGM9wBpyBWcPAa1/72uYVr3hFw+PlNcLFOZIaeNX4iNngt2ufsTilPMcxmaEuOHnUox7VfOhDH2p80afJ/M7nnIc97GENrxzwY6Xc5ZdffiA6GChxY+GRj3xkuHi+5pprmq222ir8cMzMGjNjKeGxSn4IAxoGPBJm0yTg5THJQYWZr1122SVc5P/hD38Ij3PW+OQxTz3qCU4Gl9Rt9913n+CLR03POeecYgzKMrvHAJBHAyUnnnhis/HGG4eBsfB9+tOfDrOKDP722GOPhlnCmRxQCGvf0o022qj57//+7wmw6Jf7779/85rXvKbhUdxcX5xQMLEz0+fVWTWYS3A4J7LtnRhViCn7Qab/5UepYvD8OR171113DSfLv/zlLzLx1BlwBmaIAQZQn/nMZ5qTTz55hhB42PnAADMALs4ADHBzgHe+GBCR/vznP29++MMfNj/60Y/CBW6MJcowY5GbzaYcC5vwztx3vvOd5oQTTgjvyfEuGe8scc3x2Mc+tnnPe94TCxHymHViMGNvLDHQQXhUjhsSPHbIwO7CCy8MPoNygD/cSGPGi3fvWHyPd+ZKwgCKWbyPfvSjzdVXXx3Krr766mEQC04JM4BIKQaxeX+PsjxGqvcF5YcUHpiV1Ht+YKZNmGHywZxlasn2L3/5yzBwY+9FL3pR6IuXXXZZc+qppzb0SfpqjDfNzOWeMtHxwCB+JmUMsFa0r9Tq7HZOj47KD2LTLrto0X3NgoULwwuni18FXAzlny/Ov26HNzf3F16kt9j7uq2DlhMdd4k4mXFySL1MO9V6cPBzgvjgBz8YTjjf/OY3p+piztrT39p9TpUlP9efVU6pyrXTnL4UA1+1NrJtx9d+X3DkcNbWNdcu1n+uztZOHNm0hKWkt/5LOGxc33YGhslAqi8qX2kKQ06PLndslvTElH+lw8ChOCWsskthKOlr65vDYWPkOCnpiPHMZz5zfADHQIgZpY997GPhkW3N/pb8WDwpXuTjy1/+chjE8a7SRz7ykTBQYpYq5kNl2qmNwUIhDHp45JDZqre85S3NwQcfPP4IurXVtvxpv52iX2WVVcKiKiy0ooGcyilVObvPY568C3j00UeHxV5+/OMfNzfeeGOYRfvNb34Tiqy00krNCiusEI0hn6T4pQzv4PF4IAu+8Ijq73//+3Ez6s61Ie2ILb5pVz1uarGNFzIbOT26mn5YY0PIUiwDa8Jm1zg0iGMw/clPfnL8ulr4lE4A8QD+2rpSNucnp0eHpMpLl8IyxoEr4VloOaJASrCx5awdOvygTz27LxvKxeIIh7Bgt+i+Rc19Cxc155573uJB3eJVB8G3OBbpNtu+LhmLsrNRGNBxR4sVnxjMaVaNutjpdz1/Tb4Gak95ylPCNnmIVoWyjyl8+9vfDnfF7ApRsrP+l3iY23/Vn2N9uravwlCsL4s5xdC+TRVjkGMGfzpu2E5h6QsOMKawjJKPHA7pcuczYcU2xXlNu1C+3f94T7gkp512WsnE9c7ABAZ03LX7G0a1fVU+Jjh+YEfHRO58Rhxk0GNmUBzCmsIyKj5KOMBXgyXHx7/+67+G2bdnP/vZzeWXXx5mk5gxY1ZHQpt12Tb4uvLKK8O5jRk2VhNkNunVr351eCQQfbsfsk89VBfbR8QBOh7j/Pvf/x7eeWJWjNUtGeS1BX/6tXXyh/6KK64IM4hcR1188cWBH95nU1mLAz+2LNvU86yzzgqPUfIYJHjwhTBzx2AP3uG8HYO6qL7E471CPWJKWQaJCAMRBrCvf/3rm89//vPhWnCvvfYKeHmSCz7A0sYaCj/wR3FsnrbRUR4M071+x5e4YTuFZVQ4qMvmm28OlPB+pCZHyJeksEyFD/zpJ79Ka/jANoVDulzbjFmitW2ntQWmnco2lk+F0KdsACydUutHeUrRLVp4X/gO2GGHH2lNw/Yddy1YPBU/KXvWZ1x11VXh7hDPr7efv2YQx90fnq1uP45JZ+UlT6biuavDgJDHFbDjbhMzcwz4JFtuuWXYZNUoyrDcLoNHdXrZzeWUvmb7m+pa21dn+pgBr/CXsMhOdVRK/qDH7lRwWFthUF4fcNRgKfUP+SAttQs2VtZ9yjOaJz95PZs1YfvXYXlqH8xNIMV3qhmInQeUV9NXZdsOWHMeUVmlMR/kDRtH6fgVvpnGARe1WGRHGf7P8/gkPwZtP/vZz8Kje3/9619RT5ISHxSQ/xpOeA/prW9964Q4vJ/ETB2PMb7zne8c9ycjVnZ8//vfH/4X2Xhs33333c373ve+YMqFLcL7cjXvzAl3KPTAHz6DoE8BMPvFYIt3qCT8H+JaConVl6ensOGbeegZePHj22bU3fp69KMfHWbOuHbj0UxeoeG6jgViWMRKN+bAIT/CwcIqxAErP2IRg084SBh4gqNmEZQYF/ghf5T/e0eBgxg89caCOTmJYZkqH+KwHUe+Y30oZRvLz7XNWNu5DmYFbztkH127nOwoz4g+ZyMfORv8WFm02OeCxTNzd955t80O2/fcu3Axnvsm5c/2DA5gvrHHhwR5WVN3eagX+Uypc5eLGTd+evkWvf3+CTNtOVEcpu4Rpu95JHO+DObUD1N9Gr1sYjz25ZgBWwlLqR5dHLs1OLBJYenqHDIoDpUvcVLqH/IjO/ZjEut/K63w8GbN1VaeZH7p5ddNyvMMZ6CGAR13sf5G+dI5BBv5YLstNcdv6ZjC5yhwEEfH5UzyUYMDmxIn1OXxj3/8+ACOAQU3fbmQZeZJF4OpunaFQ35icdQ/GNShj9mofK6fYVPiAxvFiMXhXSlmthBitQX/DMLsKpXYsNw9s3dcM2GDxMoHxQN/+KYdM2pf+9rXwvUai6bo1RoGqTkcuFActmOxpH/Tm94U1VMOyXGKj5pjEx85P8TBl+zYb0uufJc4aHfeh4u1vzClsEwFR66fEafEBzYpHCqfa5tZswDKosXvyzEDd8mVN0IL1Z6Q3n//5AMRAmar8CIrs2PMqPESsZ6/bg+wuLvDD3sGcHxHg++xMMhjqp6ZuZIwA8gMHz4Q+2JtqazrnQFnYDgMcEZb/H/ogVW2Jp7z7gsXQXPrnDccFt2rMzD3GXjMYx4TBnDPf/7zw+OHDOD42DUDDgkXky4TGWAmbscdd0xeRDP41UV4ajAgG/RcjKeEgSOiazZrR4wcDmwVJ3XBL73169vzh4FZM5i7/PK/NJ899kNzumX4XgjPXEt4LFKDNwZ1mpnTDBx3hRis6V039EyxM4un9+O+9a1vBXdaBUq+bUpMHr/ksQfExrV2vu0MOAOjY+D+xU8j3HPPvc0LXvCCCcsmc9PlQ4d/YvFAb+49jTA6dj2SMzC7GeD1Cz1CyTYDON7H4hE9F2fAGZhfDMyawdyVV14xp1uGQZuezY5VNKXnmWn73DRlY3d+2vn448OJkpgf6Tx1BpyB0TPAnV4eRXrPe947KfjCBTxanr4LPKmAZzgDzsCsZ4AbOSzmwCImXC8wgPvCF77Q/Cq8P7vkcwCzvpJeAWfAGZgyA7NmMDflmnkBZ8AZcAZmMQMM5u5ZvBjAE9Z94qRa3PC3vydXG5tkPMMZWoiJ93x5wgDhxf/VVltt/DMpLArAu7p8+4fHxXlMnAtVbaNjUQRWeGOl3+mIHkUHg554mI4fL+MMjJIBPubNDNzznve8sAw/T+aw4AeLmbg4A86AMwADPpjzfuAMOAPOQA8ZWHTf4pm5xYs7/e2WRYvR2XfmmmbhgvuyL3T3sDpJSOss/qbmLrvsEgZrLOrEN6MQvcPLdvtJAvJcnIG5ygDvPzGA08e8GbidffbZzSGHHNKw2mPu3ay5yonXyxlwBtIMTPjOHCcQhJcxcy/LopNtzHVNefmP+YnlxeJ4njPQBQPqz7F+Z/tyTK88axfDpBgxHXk15bFBFDPsmD/Kz/nqCw5g57Dk6qCy2CCqd9gxf5Rf40u2pvj4Zq681aV8KN/ajjs3G+it3Hv3Hc1lV1xtsyZs33X3nRP2Z+MOH8Vl8Mb7wrzzu/POOzesxqaZOdWJxaA0M8cHcvX+MHpW6+W7mSwTjh9En2vRbBwXxrYMNswO7r333mwGHZ9s0adZbr/99rAq4CAzgcFxT//Q19QvLUTl1fRV2dry2q4pj23Kh/Jr/MhWsW1aUx4bJOZHeTV+ZGvja7umPDZ8RohHKOmvv/vd78IK1fRvVk+U/5wvdLJTbJvmymJn9Sk/yre2Noa2c1isTv5UjtT6jumxUb61Jb8t0ss+pW/ns6+ybKfKK9/aYt8W9LJt69ivKY8NEvOjvBo/sg3OWn9qyudwWHw5X+hGgaOEFbw5LLk6qKxsUn5UT9lRLiap8rLNlR9DKSGg9kt3fmSnskrJ5/sflE/5kA3LbMZEOJZffvmGb5+xuqKLMzAsBniMhT4Z69O1fRVsqf4u3DH/6BRjkGMGPzpu2M5h6QsOcMawjJqPFA7l585nwpo6l+Fjuu3y6eMOp/icFmYZWLRho402CoM1HrMsid4fZjD2ohe9KAzkePRS7wCTz4JOLOy0/fbbh8c3+T/CN7cY0PGYJYNDfthpISm+t8mjncgll1wyPtAr4Zltevqsfm3stX2VcviIiY6J3PmMY6qLY2ZQHMKawjIKPviYtwZwfD6AxyjbH/MGZy2WQdqlxAd81+JItY1ikK6wwgrhOMTWCjri5FaIFI6cDT7XWGON8E02jve2KA59FT9tkT4XoxYH34Xjo94xUZwUDsrIJoWlLzjAWoNl2HwIx3rrrddwAxD+chLTk5f7/48/2ZDq144jPsjPXZuhx0dMFCd1Xp3w0XB1ZqUxh8pLAbL5dlvllHLyTIFSfAjgo4t87DImfPCRBQJSIlJyOFZcccXmiU98YvPLX/4y6qbGRxc4iJPDWYODCuSw1PgYBQ5wlrCMEsfCxZ+94BswXFjGpKavqs/Gyisv1b42326rnNIcDmyEQanKtdNUDJtvt9vlu8KB31gcm2e3R42jjS+FpSs+Uv7b9Z5t+wyWeF+uLeShm45wYcasGjNwDOT0Xp5d2Vd+FYeBIhfKCDcIeQ+P+MJnvyX1i1/8QsXnXEo/069dOZ07lLb1dj/VX22+3bZluzpm8JmKYfPttsXBdg6LeFDaLmv3UzFsvrb1MW8GcVzfsAIl3xm75pprkvURBqU2tt1WDJvHts232227HB/YKr7Sdnm7H4ujPFJW3n7Vq15li4RtXR+wI/u2kWxSetlvvPHG4TrRPrYtHWnOj3TYpeLIJqWnLMJTCKlrDPQlP9JjG4slfUxHGcmwcRCnBsuocPBJCPVpcRBLY7zZPLvdLi//2MTsdKwobZe3+7Hy6G2+3VbZoXw0nED8UsAZpAlcyobOwPsTrLIYuxCgPI3ExwBjQnnilHA8+clPbnbddddm//33j7mpusPQBQ7wlrBiA1/YpSSFpZaPYeMAdwmL7mIMkw+L44wzzggXdLG+WNtXwZprl1xdxHnOpgaH6pTDkosxShxgTWHpC442n9PtH20/7McEPuaysOCJPpHCduq8XuJgncXv2PHIJY+fsXIvstNOOwV/rPCnxVXkR3H1MWVm5hjI8Z7e6quv3lx77bVhMRZ9mkXl5nKaOvaosz3+UhzUlo8dMzZGSm9tcsfFoDhqzqtd8fGEJzwhrETJI5T6mPd73vOehm+d1fzPq+FkFHzU4MAmhUV80vaXXnpp9Nqrhg/Z4CfXRzgf8K3ek08+GVgTBCz4SWFVjJQeZ7Ip4Uhdm+GjhMPGSWHpCw6LNcfJsPkQDm78ccMALClJcaq+mtIrBik2OTvra6o4sLflY3VZMqpKefZ8Z8AZcAacAWdgQAY++9nPBg+8B8SPmbGTTjop5HGhdeONN4ZHIDfccMNiJB6Z5N04ZuZ4HJJFIX7zm9+M7zOgwz8DR2KwTcxtttlmfGaORzW/853vhEcx0TGw1MCwCMANnIFKBviYN4/6HnfcceGbsFxw8zFvbiTwSQEGci7OgDPgDAzKgK9mOSiDXt4ZcAacAWcgywCPMqa+ZWlXsMTJj370o3FfWtmSDL0Tx2OVsYFX6jud1se448UbzNDxs9LGYnW+7QzUMND+mDeP9h5//PHNhRdemJ0dqPHtNs6AM+AMxBjwwVyMFc9zBpwBZ8AZcAacAWegggEWa3vWs54VVqHkcUoGcPqYtx6hq3DjJs6AM+AMTIsBH8xNizYv5Aw4A86AM+AMOAPzlQF9zJt34J7+9KeH78D5x7zna2/wejsDM8uAD+Zmln+P7gw4A86AM+AMOAOzgAHeeWPw1v6Y9yc+8Ynm+uuvnwU1cIjOgDMwFxmY8NFwvqegFVNIU1J6bEDfZUiV54TIL7YiC2WEgzhsYxuTLnDgI+dHWFilBruY5MpjPygf8kGcHA7sclj6gkP1oS4xKfUPlR+UD/khVUy2rSi/1FcHaRfijaptcv1jlDiIlcMyKj5KOEqclPqHytf0VXy5OAPDZkDHXay/cdzV9FX5SGEtHb/oU+dUfI4KR+n4FY72x7z5lMDRRx/d3HHHHYECvmMV41P8lPgo4ajlZNB26QoHeHNY4IMfEuOtSxzyFYtD/FzbqOxs6qt+LUKrLhHaVu2uVDqblvpq6loVH+ojNrW+2QYHMYbZNhM+Gk4wVSoHHnDYxUQ+cjZWF/NjfVjbVLxUvnwrTdnlYggLDZXjJBVD5XMxrK7kp4TD+mJb0hcc4KnBIh6Uqh5K5WO6fMRw5GLJXvGVDgOHfLdT4VMa06MrcVIqj9+UjdWlbMjnV8JhfbEtUXn2UzGsLmUjP9PFoRjyr5R8K8pXanVsk8+vBke7rO87A8NiINZfp9JXY+XBKh/ajuFXWaVtG/moOWZKPnI4rK7th495MwvHt+ByH/MW9nZ5my+dUulsKp1Sq2ObfH4lTkrl5avtX/sqr1T5SsnnV8KBfcyHylt/2rapyiq1OrblpwaH7FM+Unqb3wWOkg8br43V6mJ+psJHrLz8S6d0qjisn1LbpGKQL53SQXBYfzE/wtzW2XI1OEp+SnykyitfGJRavBO+M8dghWB8AC8n2OXuVFAWfWrwIyApG+FQnFQs6XNYUzEoAw585PygK3GSKy9sJRzY5WxqcOCjhCUXo9Qu8l/iQ3bEykkKy6hxLLfccs3WW2/dfPnLX54Et4Slq3YhcIoPdCUc2NRgKfUP/IwCh/Dm+khfcOQ46apdFIPUxRkYJgM6B8SOvZpzCNjkI4czd/xyjZHTjwpH+/jVx7wZxOlj3nvuuWf4LmGuroPy0cYRi1XDSV9wgL+ERdeZsX7YFR/gwL9+7Mck1Re7xFHiA1wpHOhKWGr6B36GjUMxSteJo8IhTklTUsIiH7Hytl2wi8UZRds8iCD6qRGUKr+d5vTSKW2XZV86pW0b5Stt61mi+k9/+lPzi1/8IqRsk4cdKd80esQjHhH2+WAkepatbvuRf6VtPfsvfvGLm09/+tPj/mTDXTvirLDCChSf5Juv23/gAx8Isf/4xz82F1988bi9fChVeaXKt6l0StHZGHvttVeIxzLctpy2VU6p8m0qnVKr07Z0SpXfTnN66ZSmyqb02EuntO1D+zm9dAsWLGie+MQnho+KvvKVr5zAn2yUyq9S5StVfjvN6aVT2i7LvnRKB7UZtPygOGyd2ljkW2lbb8sOamN9TSeO4iudjg+VwYeLMzAqBtTvbEps9pVand3O6aVTasvZ7ZxeOqW2nN3O6aVTastpGx0fk99xxx2bE044oeH/KI9O8jHvPfbYo/nf//3f8FH5nA985fTSKVVsm0qn1Oq0LZ1S5du0RjcKGzCl4ig/GCz+Y/Fr29oor53W2FBG0i4vnU3bNjUxSjZcp+22224NK562/Wv/SU96UrP22msHqMprp4rDtS3+8GttpFdqdXY7p5dOqS2nbemUKt+m0im1Om3X6EZhA55UHOUrFXabSkeKWJ22la9U+e00p5dOabvsrF0AhaV/+Vgs3xx6+ctfHj4I++Mf/5h6jgv53FV73eteFwZV44opbHz7299uzjzzzOhou8YNz9XzjRmIf9vbWKfhCgAAQABJREFU3tbst99+zQc/+MGG7y4NKnwUlw/iUj8+gousvPLKg7qdd+Xvvffe8CHXddZZp3n1q1/dfOlLX2pOPfXU5qtf/eq848Ir7Aw4A87AXGeAj3lrIRNWpeTagY95c9PVxRkYNQO8k9m+fh01Bo83uxmYtYO5Eu2veMUrmne/+93NdtttNz7QKZWJ6ZmZ23bbbZt99923edzjHteccsopweyoo46KmWfzGBi+733va1ZfffVwt++AAw4IA7GLLrqo2WeffZo///nPzSabbDIegwErcRn4yZYAYDj88MPDwJB/SPze+MY3hlnE22+/vTnssMMm+ME/dxx57t9lMgPcMaO/LFq0qGEWlQ8HM8PLrO7vfve75mc/+1ny8QceJWCaPTcNT8Rll102nKy5+eDiDMQYoC9tvPHGDTcXXJyBYTGw/vrrh/PasPz31W/7Y95cPPPR+D/84Q/hZmvs8ai+1sVxdccAN/0/+tGPBofcbD/99NMnXD/x+gU34JkJ23XXXZvVVluteelLXxquv9Zaa61m7733bo455piGFU3xpTwccqOd/iVhVu3II48M12y6vmNmmGtVruPe/va3hzL4RLjWIzaia0DyrrvuupBn/XEjgnKXXXZZ0LX/cLManBz/XBMy0XHLLbc022+/fXhqjOtMZqg5Lq655pqACfyyvfbaa8cxEItrSmLFrln51iI3xRHVs30d+9a3vjV8zqON0/enx8CsHczR8c8666zxWtPpuAhHNMBhm3ehfv/73w88E8ZBw8W9Dna2pyocOMzQsfLVBhtsEIqTPvWpTw0HCY92bLPNNg0DRf7JWDnooIOa97///c1GG20UUnwcccQRYWZO/5AYeCLCqhk7TjAcpMxkMmBxmcgAg7FVVlll/F1RPb7AI7RcAKDTlPbEkkueY9dgrq2z+zzmy4W6TtJW59vOAAw85CEPCcfuIx/5yCghDPZsP8SeC1Ad0/TDXF+U/lWvelV42uDvf/97NA4zFXfffXdUR2YbR9tQcSzWmA36nIwKR44z8PUFRw0W6pLiVe3CjSXOcfNBVlxxxWbzzTcPv/bHvKm/bsbNBy68jpMZ4Omm5z3veQ0zY7zDx/XdhRde2Oywww7NlltuGW6Acw3J9o9+9KMwkGNAdPDBB4dBGddelOVmPNddEv7fM3h6zWte01x66aXKDgMnyvA6DHoGhzy99aEPfWh8Zo6b/tiAjQETN/+5TvzVr34Vrv24jgATwkDs61//evBH/+bczvVj7MkvfHANefnllzc333xzKG8xh4wH/lBfBozUg8Ea15ZXXXVVc9555zVci3L9CTauQZ/2tKcFfuyN6g033LDZaqutwmBP5yOuQ+WTuFzvnnvuuc2dd95pQ/v2NBmYtYM5+5hlu+6aieKRw5NPPjl0QO62dCFXX311cMP7enTyqQj/WPiHyovVnAAYbPFDuNOxzDLLhAOTOy9c9OuOiB4lZcYNIT8nNg52YGaQyPKouvDLlZ9vuttuuy28F8ngjccsX/jCFzZf+cpXwomdGwS6QIrdudXFQGlmjn8YL3nJS+YbtV7fKTDAP+Czzz47nLPaxeiDGkSpH/KINe973njjjcFcfVELC7R9SP/MZz6z+cIXvjB+d7dtx3lT/+zbuhiOto3i8E9cWGM26PWPvq1nf1Q4qFPu+O0LjhpOVJcYn2qXhz/84XN69pfBNzd0+RYc77ZzreAf8471CM+DAZ6+4UY754ADDzwwDMoYgDEThfz1r39tnvGMZ4Rt5TPQ4rqKmSnOwfYbg1wbIpTn/UtsEW6gMKvH9Z2Evik9eeBYe/G7c5qo4FqP9zaZ7fvlL38ZivEEl2bm7rrrrvFZdspyo4b+HxvMMeOmWUFdW1ImJaoHr/DwYwKD61IGcAg+uNb84Q9/OD7jp1k4Br4MKtdbb73xmTnKyCf4GMSB1wdzMDO4zNrBXK7qXNzQSXmskLsou+yySxjQ6eDMlS3puICiYzMYm6pwZ4QTAzi4y6EpdE4G/BPWxQ93QzjAmVanDHdBuBPDRdhjH/vYcHclF5u644uyDATBzIkndZGX8zUfdGNjYw1T/tw5YhDHAJsBN8IFUBdCG9uTdhc+3Ycz4Aw4A87AkvO0BnCkPBr/gx/8oDn00EPDxXbqpoJz5wzwJAT/m+kjzDZ95zvfaZjlYkaMa8hHP/rR4XqtlimuDblGpDyDFQ2seHyeQZiemIr541UeZrp0DQgehOtFruPOP//8MIDCL8IEgK7zGFgxeEw9VcGNaWYEuTnFgJHZtpNOOikMMHVtYp8K0bWunWFk5vKb3/zmhOtVcPBaCsI1FDdRsOGaFU7RkYeIG+JxU0nfaQxK/zMQA91cqQ4EYbiFWbwEmc7gyyLjQGDqm7sSl1xyiVVltzkYuYPBzBuzY5Tn4NadF+4KoeMgQLj7gX/yOZi4m6JnoM8555ywwhZ2DPBS0sZKXO7I+GAuzhgnFbjhJMvKpRrIxa2nl0ub64Q5PQ9eyhmYyMBNN900/mj5RI3vOQPzg4H/9//+X7P//vuH95x4ooLHwHj/mcfgmOVeuHDh/CDCazktBvi/zPXXBRdcEK65eGee7S9+8YvhGg0dT2Dpeq02CNdwTCQwq2bfgWbwpGs8bHj1hesCBmXMZPH+Pjcj0HFjGeFaj/j0da4lmT2U4I/rO+wpz8JtNp7sSLnGxI7ZMR635HFOrhUZYHLcEI8BKEK8TTfdNNirHt/61rdCHpyAQ6vG2/qAhWtW8rBhJXnl4ZOZSTAQj2tzn5ULdHfy518W3wEYf3GB2SEk9+gLejoe07spKfmRnvKxWNLzQikn5RtuuCEaqgsc3AF585vfHJ7fjQVhBcqllloqilP2zOzkHl9UfWJ1lQ9sSnpsczboc1g4eJmiT/kQzlwc2aR8UBYZpG0UAz+pOLJJ6SmL1ODghPimN70p+o9fcfAViyV9TEcZCXfCeLmZ5a5jUvIjPWVTsWST0lO2ho+aGDU2ORwlLKW6SD9sHPhXrFh9pOsCB4sYcafytNNOw90kUawYDoxr9aM4rwp8DmtKp7J96at9wQEvNVhSvKp/8D/t//7v/8LjUeJaqWxSPmRXgwPblJ9SnJyemQieUuEGLQs1/PSnPw0XqFyYtiXnB1vp2Y5hlT6mo4ykKz7wl4pVg6UvOKhHDgt1YUVRbnazyFtbVFfyB+GD8oOcV6eKgxsKPHnFe3dtyfGBrWKV6ottzKZUnnLIsHEQowbLqHAw08nsILP0KclhKdVF+pk+r47ZdyP0TD1To7HOYomw5Ww+FcMP5VOPNihOykZ67qrxyGAqFnFTulocLALAI3ApP9xZYIAE1hgnPPa48847WwrCNndIuMMDDjV2ig/ZpGLgEE6QnA16pt9jU9fE4E4+s04pHOKdGCUb9DE+wCBJcQoWYqXijBoHs3LwQj9oSwmL9CU+eOEX2xgnJT7ApDgpzqxNCUsMA+VHjYOYMSx9wVHDSZftQv/jTmUtJ8SmP+g4FJbUDLz0oziv0oalvmqxw3VMYlxgN+o+0hcc1D2HBV5K525mI/gfEfOjPlI6h5RwqG+msPD+dql/qC7YsUgYMxb8OFdz9//EE0/M/u/uoo+Mig/FmQontEFMYu2KXRd84EdYp9tHhINZKM5FMbyK0QUfUz2vUkfJVHFwXLGieKxO+Ezli5Oa+qZswMr7cu9617vG12JQPfQum254DBMHMcVbqY+MAkfpGl8cxbBMpV1m+rw6J9+ZU+N0kTIoo0FznfIzn/nMUA9S6lF7cKRe1len7IIT9zF1Bvwxy6lz5iXyDPBIDBcqWgAlb+1aZ2B2McB7S89+9rPDj4t+LkhZAY/V+CT8v3NxBvrCQFcL7U23Plxn8Pkr+yjmdH15udnFgA/mZld7OdpZygDPsXPXzMUZcAacAWcgzoB/zDvOi+c6A86AM5BjwAdzOXZc5wx0xACPRnB3mW+DxR7n7CiMu5lHDLBqWe5d3XlEhVd1FjMQ+5j3cccdF74Pm3siZhZX2aE7A86AM9ApA3N+NctO2XJnzsAADDA75ytaDkDgPC3K+5asHKZVcVkN7IQTTgiPfrOA0xlnnBE+QAs9WrFMq+NOlTJmRvgG3TqLP2hrBQzE5LtdKSEmNtgi2Fps+Nxxxx2DDlvqxIU8K7qx+pliTBc7jjm+8DeIjwBwDv9hqfUPfOAD4ZM9M1VNllFnUQK+nXr88ceH72jR71hRmIEcqzm7OAPOgDPgDNQx4DNzdTy5lTMwMAN6b44XpF2cgaky8M53vjN8/JiFA/jUCN/u4fuREgZPH/3oR8PH7qf77saVV17ZvOENb0i+A6xYU00ZZPGNI33sFnx8yJkP6Up4OR8bl+EywLdO+QAxqzhvv/324VtTfJJl2BL7mPfXvva15uc///mwQ7t/Z8AZcAbmNANjLIxhRftKrc5u5/ToeKxsEBuVJdW2ja/tkq4GB75KfmpthMum+K7BUWNTwpHT9wWHMObqW4tVvkhTUtu2KbsSFpVTmsKhwVzMrhQDn7U2sk3hiMWXbW2MXNvZ+LlY1k7xlfYFhzDm6luLVb5Ux1Ta5iy1z8q1fCMRecYznhFmpBjwMRvWLqNYyifVtnSkzMwxU8InNFhJmO9isoLgKaecMm5GuRgf1l97myW7mXVB0DGgYPaMBS2Ux2wN8RjksVoh303S90G1+AUzePLz5S9/ufmv//qvMEN5wAEHhHw+Vit/pHwjik+PIMxsshQ6y9ljv9xyyzUveclLgg0rnlnMoYD5U9LF+DDFg+8aG8rkYg2ql2++GQUXe+6554RBHbOlslFq62G3c3p01JdVK7UKJWn7Y945TuRfqY1tt3N64RjERmWV2th2O6dHl6srfmptZGtj2+2+4MjhtBjtdrseNZzl4rT92X1tl3gv6W38VF1sLG2309o4OU4UX2k7hvZz+i5wEEcxlCq2TUu6XF0Vo8ZGtjZ2ezuFhfzaGLk48q+0HV/7OX0OyxirJEo48coR4FOCjS1n7dDhB31qiWzZUC4WRzj4WOJ//Md/JD8syN1eLpBjonqkYpCPDY+cPPnJT27e8Y53xNyM85Hz0wUOBY/xga6mPtilsNSU78omhwNdKU5JX+MDGyTFBzrF4SKS/hrr09jQH5FY26ivpvSh4OI/+OExS75n0o6jGIMcM8SpwUKsdnyLER+jwEHMFJZR8pHDId3jH//4Zocddmi44G8LWCWx/oGuxgY7ZtYYjLTbR+3KrBs/hIHMueee2zzucY9r1l9//TCQI3/rrbcOq/4xEGuL/Ij3dhzslUdKnRn4bLTRRuEcefLJJzef/OQnk+d3ysi3+pH2v//97wfM119/fRgsghOdxaRt/DB7vc8++4THPYnLAJVVO/nYLT8GaazattZaawVsnMf59hiPajIIZDDI/4/ddtstzD79+te/DoNHZv4+9rGPhdgsI44fjkti59pPvLQ5VR3QT/f/HT5Vd7ZTONCJT7bbIl0JBwP21772tYE/+YA3voPJ/0E+YZPDQBnqy/tsKQELs660N5/o4VtwRx999Pj/cj73g49UnK74wM8gbdMXHPBcg0V9INYu6AbloxYHdikswgEWhPZpi2zIH7SPcNOGvpqLk+ojXeJI8UEdFSeFw9qwHeOkpn/IT4wL6UbVR4bNB/VRXXKxVO8YJ1NpF8rrh08ro2ibMdsptJ07SQugbLWvlHwqRJqygSDplKo8qc3jbqq+jWFt2E59U012apxUfcDBN2v4Kn3qGf2Sj65wiBNbd9WDtAZHCUvJBxhGgaNUn1Hj4O48vMe4Fx9gjumVl+pjlJNw44ELHJVRPvu0DWlbJ5sSDuxUtoRFdvKtlPxR4rCYhUF5fcABFpZG5wKXx9Ji54gu++oaa6wRaGi3j/b333//MKjRxTr20m233XbNbbfdFgYqbB977LHBl/0jW+W195VvUy7GWWjlz3/+c7ggp29RTj9re9VVV43vyjcDMAaW1l46jGP5ylthhRXCYIxZwe9+97vBltk83rNCLr744vHyzPTddddd4Xf++eeHfG7S0D6KDz7K6xhkgEfdsJntxwx8wJs9T5Bnxep4nPaGG24Iai52+QwAj0Fyjrr00ksDj7Zse7u0kBOxtthii2bbbbdtiNUW9QGlKX2pXSiX8zHoeUS+ZxqHrWcJizDHOB2Uj6ngsLYWC/jAIYnhtX01pre+S3zw7U5uxMX8CAtpTN8lDotZdVdawoFdCYvwl/jAl2zZttIFDvzJfwmL7CwGle+qrxJDv3Ycux/DQt5UcAi79WvzSnxY25iPHJaxtnN1mFjF5Bxdu5x0lOdiI2cjwDkb/DDQOvvss8ffs1AMpalvqqGnvCqewoqeWTm+EH/mmWfK7YQUG3zhI8VJFziIkeOjBgfAU1hq+Rg2DjCWsKiuw+TD4uDRLdo31U/AkcMizrBJCToulLgIasehfBfHjOokvDEspXqMCgfYUlhGyUcOx+tf//qwSMNBBx3UMEBotxtlu+yrzLLF+qHaBL7YFg5mzVhAhBtefPD0iiuuCIuKMHvHe0gMVtqivmr9WBvyEem50UWfXXvttcPA9hOf+ESyr4JvlVVWaRiEMYDiO3htzKofqXTEY5+Y5LFNzF133TXs8+glAzVm0RiMbbrppg2zpQcffPA4X2uuuWYowwCOmcTzzjsvcIIvzvEsGsPgl0EfF3c2pjghdkyEKabrS18Fm7BQ55RQFwZXzACTcoNg4403Dv2FR1YvX/wNN/zgI8UHvlP/Z9BRnuPiwgsvDLN8MTy2rSkTE/yAIYcDXcw//sRHzgY7xcj5kQ32McnF6AoHcUuc9AUHWFNYxIfONSnexXlKX8MHNpTXj30rwpLCim1XOHIxanDUYCn1D/lIcdoVDuKUsIyCD3CorkrJa0sKy1T4UB9LxSnxAaYUDnQlLL4ACiy5OAMjYIDBHI99uvSbAU6avHvGBSvvFHFTqY8S+6fBu2X8ttlmm+Y3v/lN+OcwXey8a8ZCK8xIMjuG35wweGQhje985zvjZrzfpicrWPxk7733Djq7cMu4sdlgIPjUpz61YbVOBmYMWN/73vcGC/Z5bA/h8cCzzjorDPDIZ5DCzBJCXFZG5DHNww8/PODfd999w2OVwWCe/mHAzTuRDIgZ9L/0pS8NM6/QwSDMxRlwBpwBZ2B2MeCDudnVXo52FjPgg7n+Nx7vXjGQu+yyy0LKwG6mL3AZlOy0006TcPC4ILMfLPGOgJMZsUFWhGSA+OEPf7hhxUx+vOfETwIfG264YfIOIrODr371qwMWfHGnEXuEAZgGYWA95phjwiPup556atA/9rGPHY9FbHDw6KgV4VG74H+99dZr8CE/sueJC+7+gwc7hBiIbMHG4I/35+aLcB6ibewgbr7U3evpDDgDzsBcZMAHc3OxVb1OvWSAhRa4AHfpJwMsoMH7cV/84heb0047rZ8gDSpmWPgAPe+ldSUveMELmi233DJ84D7mk5llFlxhIR8rPLLHI4wIAy2JBlHaV4pNSiebpZZaKokDG8VJ+ZEe25wNjxrOp8EcdWXGkvcgXZwBZ8AZcAZmPwM+mJv9beg1mCUM+MxcfxvqVa96VcPCIR/5yEfCYif9RTpcZCeeeGJYZIV38GLCAIlZNQZHscc8KYNeg7WcDT5Sgyz81LyX1QUOO+gjrosz4Aw4A86AMzCbGJjwaQL+CSP8c8v9g0Mn21hla8rLf8yPzWPb7tt4XeHI+VHsXJ1y5Wv5xAeieGHH/FF+DgfmOSw1ZUeBQzgVy1QzbFqcqnfbRvnWtm3DPnrZpvTkYxOzs/5jeuVZu1QcZuZYMU5lrF1NeWyQWHmbn/OFLlUeH7mybX3Kj/JrfMkW31ZqymKDpHwov+SLhTZYSETfIFM54cmVt7p2OZVXvrWVzqbSy97q2JZe+azQxmOEspde+7JTavPZtvuyIcVPSic9NikRDvQpP+Qz0Cv5SZXHt43DflusPuVH+dY25kd2bR37ubJtfcqP8mt8yTaGJaeTb6UxW+XJJhZDdZJtzIbyCDYxO6uPlVeZLnAoViyO9a+Y1k551s7qtY1etsqzaU15bJCUH+XnfPUFB/XIYbE61YsyElvHmB475Vtblbep9LK3Oralb+e3danyys/5kS/ZlmKV9DE/yptpHGCvwQJO2ZXqW9Kn/JBPHCRlgy6HpYZP2aT8KLbsiBmTVHnZ5spP+Gi4rXjujimOcRoT8vmmQu6uq2y0mlHbj3AIeCoW5VI6xSjhUHmlKSzk5zhJla/FAWcpPogtTko40Mew9AWH8OX6iLAOkw+LQ9s53lJYptIuDOb4yHM7jupb6qtd9ZF2fOqPjBqHYobg5s+ocDCA49tavJPGwhgxPCUs0qf6Bz5r+wi+9AtgzB/FsX1EqzKiQ6yNKTq+KRyKoXLjBmYjpbMxUudD2ZQ4IVzKh6CMAodi5LDIRriUqq62XaRTKpsSH4qRw4FP2cm/UvJp41R54SDVT2WVqo+wn/IjW3zERHHQpeJ0dS5TjByOQdqmSz4GwUH9arGU2mVUOFJto/4hnEptG8qmi2MGX/rZGMLXp2uRQdqmtn+o3m0ulJ/jw9p01TbDxiFeYv3Mxo7pyavlQ30s5kcYiEcb5yRWHvsSlgnfmdMjMUpzAVOAbL7dbvuiI6CP2Si+9DEb+UvpbL7dVjml0ilVvlJhUar8dpoqb/Ptdrt8jg9sFV9pu7zdj8WxeXbblmN72DiIYePbbXSSmcAxHSxqD6XCH0t5zJIPGbfj2H273fbRFSepGDbfbg8LB35jcWye3e4SBx/o5v24r3/96833vve9KI42vhSWLtuFGLE4Ns9upzhp57OvPqoYOT8pnc232+14NZwIT7us3U/FsPl225ZluwYHdiUsqRg2327j00pXOPCZiqN8pTa+ti2OmJ14UKpysTRWHjubz7bdlx+LQ3k2VXylVtfejvnHxubb7Xb5HBbFV9oua/dTMWy+3bZl2c7hQC8MSsmLSSqGzbfbbR9d4cBvLI7y2umwcBBHv3YMYUhhJX/YfLRjW0zorOSwqF8oteXY3m233UIWn7S54IILmr/85S9tkwntNV0cOBUGpZMCPZCRimHz7XbbT44PbInPDx85P9jG9DbPbmNvxeKI2YkHpbZseztWHhubb7dVfijfmSMQvxRwRqkCl7LR6BR9yiYXg/I1OEo2L37xixs+nPurX/1qApkisKYexGDhix133LFhue/nPve5DUtz6ztQ8MH3kVjG+zOf+Uz4Hpn1r21bJ763ZH3IJsWJLZvis6ZdiGN9KW47TeFol49hGTUOMKX6WQ2WWj74Vhb9oF1nW76tE681ONrcqqxNB2kX/HSFA18pLMPmY+uttw6rQ/I9NlZX5N2sFO8lLF3zMRVOmFlcuHDh+KcThCVVFzinPgg2KbsUBsqV+MBGOHJ+sEPPLyW58l3isL5iWPqCA2wlLLl2te1S8oOeX0pqylM2hUecp/ogZWUzKI4cVstJCktfcNRwkqurrUeqrjV81ODAJoVFOIRBKWUkXeMoYZGea7Qf/vCH4wOdNg4+hfKUpzyl+dnPfiaoIVWd8JMSxYjpbXlWmdWnW/h+5umnnx6KtLGU/Fg9uFko6+677w6r+/7gBz+Inv8tjli74LMGB3bWF/ttqeVjUBxqk5QfcKWw2Dqkyls+Un6IYX2xH5Pa8jEsvgBKjNEh5+ngHHIYd98zBnwBlJlvEO5O8v0yvh93+eIPJM9mGRsbi/5Dns11cuzOgDPgDPSVAb7NyM2/UQg3+3XDf9B4vErw5S9/ObhhIMq+y9xiwL8QWtmezKgccsghzSWXXBJ+m2yySSjJHY+jjjoq5J1wwgnhI7brrLNOWBEO2z/96U8Nj3RZYVaN8izzjc+LL754/GO62Nny+FAs/ODvjDPOaJ70pCeNu8SfcL3whS8cz/eNfjHAO3P+0fCZaRNmvj/0oQ+F43MuDORgcdGiReERoJlh1KM6A86AMzD7GeD6iWswrt8e9ahHhQpxXcc++RdddFH4lid5u+++e3PEEUeEazJdd2HDE1XoU0I5vnuJcH3H51C4FiBf14kHH3zwhOsDrvuIgbAtLHpcUvEpD1b+xyE2X+UVB1vF1vWnrh11nRmc+J9Zx4DPzFU2GYOk6667rll33XXDQbvffvuFDwtvv/32zZlnntm84Q1vCAcRj1BycPChWmZiOECe9axnNX/4wx8mReJ7Tuedd15z0EEHjZ8cMOIgs+U322yzMIvA42FPf/rTw1T5AQccEPxxYmBgt8EGG4R4vAdEXux56EkAPGOkDNAf/DtzI6U8BOPY4Ljg3bj/+Z//GT2Ayog8rsGj1ptvvnm0BI9pIHpsJGakRzlSOvKf8IQnNIcffvikD3KrDH2UGw8pGRQHfnM4FXdUOIiX47QvOMBZgyVXF3in/fnYvIszMN8Z4FprvfXWazbccMPmIQ95SLgWgxMGRiyKdfvttzePe9zjmm233bb57ne/2xx77LHhPWuu53htgutBztsMlrBLzaT94he/aP7t3/6tOfvssxte3fn+978frvO+/e1vB5/g2HvvvZs11lhjUpMwSNxhhx2aF73oReEadI899gjf+uQ6k/gI8bnuY8Ztiy22aDbddNOQz3Uqx7qNw2Bu9dVXD9eM7Wtavj1JnV1mHwM+mJtCm3FAIlyU8+FVDngOaO7cIHp8kgOTwRYXZsgxxxwT0vaftdZaq5FPBl+8m4ewbcsz80csYvLMM/EZBCIsqLHzzjuHX8hY/IfnoX0wJzb6k9Ju9A2X0TGw1VZbNfzz4/04jou+C//sv/Wtb02CyUU4Fw2lZ+qx4WXsmKDDz6GHHhouIFLfklthhRWSA72p4OC5/tTAQnVJ6cE/KhzUKYe1LzhqOFFdYu2vtnvjG98YU3ueMzDvGFhqqaUaVgXmfzPXcrrJwfUTAyQGWMgpp5wygRvs+fGU1Prrrx90P//5zyfY2B0GfwzmGHCtttpqYSKAgRePbZ511lnBlJm3U0891RYb37700ksbFi5ZsGBBc9hhh4XzFb5sfL6Tivzud78bf4zywAMPDHlMKigOg0Dd1NT1J3XRNa0P5gJls+6PD+am0GTMkHHnhQvyZZddtrnllluaZZZZJlx04IYDBhtOCkx7cyBpZi4W5qqrrmp4wfX8888Ps30sW49wUNry+CQWMflOGQceA0Fekv3b3/4WpviPPvrokJ/70G4Mg+eNjgHazQdzo+N7l112CXco+X4c/yj7LgwouKHDo9Rt0YW4HcxxPmDgxg0eRIO10mCO8xMXK9yVjUnuHBLD0fYhHBZrzAZ9bjA3KhwaAKWw9AUHHJawqC5tvtlXu/A/w8UZcAaasIAU1138X+b8q8cseTyRgQ6zdpqZs3wxW8YMG09QMcBi4JcT/vdzvUYZzrsM5BiM8egls2vE18Ax5ocBINd+xOIxSwZsvPutJ7hs/Ec+8pHj1xn87zvnnHPCoFFxmJmTxK5ppfN0djEw4aPhfE+Bfwb8UyNNCTr+MaRE32VI6SnLj4MnJsJBHLZTsbrAgY+cH+l4ROvd7353eIQSzAy4uIPBHRsGUp/61KfCynh8t+o5z3nO+F0Q9DfddFMY9FEP1Qe/TLXjk2ewuavzxz/+MdSVgZvuolD+hhtuCAcxd2HOPffcQBnT5r/85S+bK664IlyocnBLmI6PzcwN2i74V9sMs4+U+kfXOPCnmGxbUX6pr9bwwYmYkzY+2zKqtlF/bsfX/qhwEC+HZRAcDHJ4rJI24TETPq4d41x1zuHAJoel1D9UnhilPiJfKaxtHFxQsJqlHolUeeLEhPLg4Md2Ks4gfBBXOFLHDDbEZ9BJrJSMCgdxcm3TFxzwVIMlxafaxaZtW/WRHB9TwaFYsTil/lFql1ocqeOB8sKXwtIlH4PgAGsNlpr+MQoc4M1hoS78ENqgLaV2wb6GD+zkKxaHcyc3z1iqnxt+l112WfDLLJhm47jWuvbaa8e/Ecv12nve854ww6brrk984hPhBjs35lOC///8z/8MT0aAhetHXsvBFzoWJuFmDTq4Q2T3jW98I1zvkffxj388PJn1ghe8IAzqyOPpr8c85jFhZhFfwsX/QWYFWaVTcViZnTi6/mSmDuGa9rbbbmtYWGsUfSTXP8BD+3aBQ+2uFN9tyWGpxYF//dr+a/tqDgc+c1gmfDQcR3KWIxGn2MVEPnI2VhfzY31Y21S8VL58K03Z5WLwnDTlufB4//vfH37yQz53WLijwgBMwqCLH4KNGuC4444LedKxg09efMWGGPBuy4cCi/+g/+1vfxvej7Ntg39rz+OYYCHfCvvKU2r12pZOqfKVks+PTmtxSG/Tkg9sczYlfdc4poOFMrU4tABKO4585Oprde3y6BD5KbVNqbx8BaeRPyqvtG1SiyMVR+VTesVTfKXk88gLAzjuRn7+85+vbhvrQ/5Ja7CorFJb3vootYvKxfzEcCjP2itPvmza1tly1o7tlM76SNnY8ikb8mv4yJWXTmm7DrU4arCkYpAvndJh4rB1ascRlhocKT/y0WXbxPAoT2mqLl3iaMfQvjAoVT4pefxmGsdUsMTqYctrmzQmKq+0bUM+v+lyovLym4uDTU5fiyPlh/I81v7Nb34zXH8JEyn/S9DbazMGa3qs8rTTTgvXb+ixK92c4sb7TjvtFEJgz7Ujr8ggisM1FYMtCfHQkbI2gsXCtSM/iXAwSHvf+94XXvthRhBRHLZ1jch22wdtSjxEadhp/ZFOaUsdyqIr9ZFSefymbKwuZUO+/bVx2v2YD5W1sWwZbduydtvqyS/xkYtTwjLhO3N0JILRKXOCXepOlsqhT13sq7IpG+FQnFQs6RUzlqZiYAsOfOT8oCtxkisvTCUc2OVsanDgo4QlF6PULvJf4kN2xMpJCsuocYARLDG8JSxTaRceh9PjHDFeUnxgW8KBTQ2WUv/AzyhwCG+Mc3TIVHFwp5I7kUceeWR4WR3OZlNfpb76LWFg8l/LCd8Nsva2j0wu+c/+oT5A2ZhIH9Mpz+JQnlKLA18xIT+lk/2ocJT6SF9wwEsJS2272H4jvuW/xIfsUv3H+kvF4Rojh5V6doUjF6fUV/uCQ5yXOCn1D/wMwkctDtkRKyW6zozZlNpF/kt8YId//VJY0MNdW6aCgxktu9aBfP3kJz8JNxiH3TbqqzwBxFNbr33ta5vPfe5zgjGeDhsHgYRFbTwe3GyMCofaljQlJSzyEStv+wh2sTg1fOC7hAObFJYxCksApX2l0rXTlL7GR8mmrU/FAlNK1/bRxs9+Vzb46guOFJau6lrjBwzIdDmpiVFjswRFPY4Y3lKckl4YSPXOXDtOjY+ubMDRjk8e0lWMGj9LIsax1JRv27zpTW9qnv/85zf77LPP+MqxbRvFjKXT5aQmRo2NxRTDEvOhu64qK5tYeWykZxublJ30pG1p+2jr2a+1wTaHIaevjSH/SvFppcYP9oOUr4lRYyPcOSy1WFN2XeEQRlJtC7+NHdOhHwYOG1/bpTglvfyQDlKXmjg1Nn3CkcJi61FjMwiv+JfE/Fgs09HjWz548oZ1ErToiOIq5dHGWAzrg+3p2ggH7/uxWjEL8KV8pfLlYxActfUZRYya+oADiXFSU97aDOIngEjgQGfjxLCOyYGnzoAzMFwGuKPCO04sgczdM5fBGYBL3lPl5XDeR+CZ//ki3JXmpB47sc8XDryezoAz4Aw4A/9kgFXVecfOZX4xMPnN0/lVf6+tMzBSBvTe3EiDztFgrDLGZztYYp/HW+bTQI4m5VtBq6yyyhxtXa+WM+AMOAPOgDPgDNQw4IO5GpbcxhnoiAE9atmRu3nrhhVjP/axj4WPoR5//PHzlgevuDPgDDgDzoAz4AzMbwb8Mcv53f5e+xEz4IO5wQl//etf3/BewEEHHRRW+Rrc4+z0wII6ixYtmp3gHbUz4Aw4A86AM+AMdMKAD+Y6odGdOAN1DPhgro6nmBUvALNaJY8W7rnnnuHxypjdfMnzjz/Pl5b2ejoDzoAz4Aw4A2kG/DHLNDeucQY6Z4B35pZeeunO/c51h49+9KObo48+Onwg+53vfGdz0003zfUqz0j9+PDsIYcc0vAhWX7MgCJ8oPyEE04IH9jl5XreV+QzG7vvvvu4PdvY89Favp1JP8dG/vge5jrrrDMj9fKgzoAz4Aw4A87AXGVgjOVSJdz5Rkqroy2zzDIqEk1LfqRPxZJ+qaWWCh84ZAXAmHSB46lPfWq46LA82FjCkuOkCxyKmYpTgwMfOSwlH9LjZ5g48K9YsTjSjQoHH9tcaaWVwkqTxLRSwiJ9rB7Wj9oFu0c96lFNu7+V/EiPz1Qs2aT0lBUOtmNS8iE9ZVNxZJPSK24Oi/WxySabNHvssUdz6qmnhg+8wp30w8aBf8WK1Ue6LnCwMufDH/7wSX0D34hiCQe2rJDK45Yxfcg0f1Q+d15l0MYNh+c973nNaqut1rzsZS8LH7HdfvvtGz5Gy8zo2muv3eywww7ho+yPfexjmzPPPLPhvcW99967ueWWW5otttii2WWXXcJHbvnA7h//+Mdms802a5ZffvnmbW97W7D9+9//nuw/gpzrH1OpL7biTL6VipOUHru+4KjFkqqL6soAe9lll432M9mkfIi3Wk74QHHs5lUpTkk/VRyp+igO/mI20sd0wkBay0fKj+Lgq2ST0vcJRwkL9eVcw7mo/b+Qsl3xga+NN944nNO++93vsjtJFCvGq3QUiunJl01Kjw0y7D7SFxzUtQbLsPkQjuWWWy6sIB7rZ9ggOSylukg/yvNqrK+NsRKchKWuAZb6KJ3sSG05m095LZmNn5goDoBiNtIziOPiIBUL3yldLY7f//73zeabb570IywlTgbFAd4UH9SzFkeKk1o+ho0DfCUsqusw+bA4+LAlj6zFPhdQwiJ9qX+oXVhxkTi2v5T4oKzidMGJjY1vyahxEDeGxeJ45Stf2Wy33XbNoYce2px77rmC2ikfKRzkWyy5c1UX7UK/uPPOO4ucCAf/PGxfUh9JfahV+tx5lQHieeed11xzzTXNXXfdFWZAOTaYCT3nnHPCcQIn3ABBf8UVV4T3Fnl8mLbE5tprr22uuuqqsLooF/MM8pipQy666KKQ4hPO+OUk1j+wL7ULNqpvF23TFxzUK4cFXtQ/sLUiPmirO+64I+pHNrXnM+tf22ob9vn/Tay20H+6aBf85vigPjVxUjZd8pGKQR0Up8am1DbD5MNiLeHANoZF/YObO5yLYjZd8nH++ecnryOFJcV7lzhSfJBfwoFNCYv0022XrnBYrCUssbbvGgc3Du3/SfzHJIZlKu0yqvNqqq/6O3OxVvU8Z2BIDPg7c/XE7rXXXg0zP7wfd/XVV9cXdMvOGeDO5QYbbNBcfvnl4Y46F+j05ZIwqNtvv/0avn1khQsPF2fAGXAGnAFnwBkYnAH/jzo4h+7BGahmwN+ZK1O16qqrNocddlh4BIdZHR/IxTljBmxU7w6edNJJzTbbbBPemePbfl/96lfDo0txZP/MPeuss5pNN910/B083rvj8SoXZ8AZcAacAWfAGeiGAZ+Z64ZH9+IMVDHgM3N5mng/jveymMk55ZRT8sbzXMsjLF3LlVde2ejdkltvvbU59thjQwj67Vve8pZJjwNJj9FHPvKRYMus24knnjj+eNuBBx7Y8LPiM3OWDd92BpwBZ8AZcAamz4AP5qbPnZd0BqbMAItV8K6Ty2QGtt5662annXYKs3I///nPJxt4zgQGWFiCAV1qgagJxr7jDDgDzoAz4Aw4A3OSAR/Mzclm9Ur1lQEes2QlOZeJDOy2227NU57ylPB+HItq+MzNRH5ie3xvjxe7b7zxxpja85wBZ8AZcAacAWdgHjAwxmotVrSv1Orsdk6PjhVXBrFRWVJt2/jaLulqcOCr5KfWRrhsiu8aHDU2JRw5fV9wCGOuvrVY5Ys0JbVtm7IrYVE5pTkcDOa4CG/blmLgs9ZGtjkcOV2uXeS7xka2qVjk80kIHqtkxSnej1u0aFEwr61rVzja7WExl7CU9PiSf6XWf3s7ZROLQ561b++nfNfatcuzT9ka3ks28hWLoTxbN+Up7QqHYiiVf5uWdKW61mIlZi7WoHrr227H6prSyzanl45U2yqnOtRwJltbtr0d8y8bdDVxcjbyr1S+22lO3wUO4imG0jYGa5PS5eqq8jU2so3FUV4Kp8232yon313hkD/rX9vEz8Up6a3vVF1sLG2309o4JawWTzuG9nM4u8BhMZRiCVM7HSUOi3e6OFQuVV/lK5V9O83p0aXaf8zeAWe5YDmiQEqwseWsHTr8oE8tkS0bysXiCIfi5GLldDU4iKE4th7aFpYUVvJz5dHV4MAmF6MGRw5LX3AIY44TYR0mHxYH2/SjWF8qYZlquzCT8rCHPWxCLMUg/nSPGepQg4VYsXpSfpQ4iMdM3Fvf+tbme9/7XvPFL36RrIBt1DgG4URYwR47l5Ff0y7YqQ/G2kdxbB/Rt9pkL5sSDtVX5YhtRXqbp23FsDikUyob9nNYSstWjwoHcXJY+4IDjCUsNe2CjX6h4uZPbV8t4cAPkouDPtc/Su1C+RocNZyksHTJxyA4wFeDZdh81OLALoWFfOpi+wj2VmRD3qB9RH2QtC2Kk2ob6bvAga8YBnwrTgqHtUlhqekf8jNMHMSowTJsPoSDuuZi5TiZSrsQRz98WqnhA/sczhKWMXugaLvmxXrZWsBsk0+FSFM2gJJOqfXTzmvv52ylo8ygOPCl2CVOZKf4SkeNw2IWBuWNkg/FtBi0XeKk1D+s71K7WFvFVyocsom1YQmLytTi4J053nVSOcUeZdvY2OJi1Di22mqrMBPHohk/+MEPLIzAzSj5UN0ngHhgB65yWEr9w/qu6SPW3uKJ4Wh/v0tYcu3b9mn37XbOR44PfAgH2zk/NXzkyneFA5wlLH3BUeLUco+tlbYuVifllfjAr2xtDOXTNtqO2SlPacwHeV3gIEYqjuUkZqO8mcYhLms4EWZsrZA/ymOG2DEswiFsMZtSu1jfNW1j7RVXeTlOusYRq2sNDmxKWOT7/7N3LuC2VWXdn+U+R0Buh0tAQECCeAEiiNIKNOpBpUA0TU2TvOUFVBTvgKE+PloIoimUgUVp3gu8UJEiKaWGpsmDachFQIXgcL983+HU953fOP437x5n3NZec601997v+zxrjzHHe/uP/xhr7TXWnHPMFj5kS1wrtJf4wLaGAxvFr2GRHT5W+sRBLL1sjriewjIqDmLm4qCr8ZHzV3tpbObi4BqoFCACIuhiv42ajQPN2YWSjWKUbISDWLlcNf8+cIBVWPbcc8/ucY97XPcXf/EX6m4ox8Vx1FFHhYf0fv3rX8/21eIgX05yWOhD33wsBof6UcNC7Fxf1HeNy7g4iMccK82zEpZRcGgxZ3NNc2xq/aiNC1wRoxQHmxInL3zhC7tf+qVf6t74xjeGB1Rjb2WafJC31JcWLOPyob5rDtq5IV0Ljlpf0GtcGOdUnlqMUXCUeFUebHJS8u8ThzjJYRkKDnGWGzdxktNbf2xydjU+bJzU2AkHulyels+ZvnCUxk99KdkMBQdYa1hq/WjhnRilOC04xGtqjml+gAVJ2axevbo7+eSTu6c//enBhj9f+tKXule96lXdk5/85O6SSy7puLeaWD//8z8fHpty6qmnJq9s0RxM5Vm1alX3ohe9qDv33HMXbCS11157he9655133kj/77bZZptwxQnf5Z6/YTMvHuly2GGHhcfr3HrrraE/5Iqf0SlOarwfe+yxoe9XXXXVPC+2Upsf2JZytOLoY45MC4fGXaXlS/UcllH4KM0z8kx6bHwDFI3mDMtPf/rTYaBnCMFTT4kBPsQ5M7cShY1fXvva14Z/uC972cs6HkTtsngGeB4fO1nyJcHFGXAGnIHlxMBNN90UfvQrfb4ddNBBwSZ+9EkrD9yjfdZZZ4UFTqtPye6hD31ot/3224fFmn1sCz533nnn/KNeSjFc5wwshoFNLyJeTJRl7MMDbs8555zwsNzf+Z3fme/p0UcfPf8g3Mc//vGhnV9zWJhdeeWVoeQYwfa73/1uaKdOzLe+9a3B5rjjjus4M8eHEl/yaY/9scH/O9/5TveWt7wlbG1PDB7AG9uGhP5nsAys1OfM7bvvvt273/3ujueYvfnNb+44Q+kyHgNzc3Pz952MF8m9nQFnwBlYWgzwnenRj370WAskPkPZSZnHBdnvVPa7XooVnofKdzlkzZo1IQY/rvFd7fTTT+8e85jHhDoxJVtvvXVow07f3fj+Rh07+z1RbfjSjh1n9HbccccQDrz6rogOPLJ917ve1XFG0WVlMeCLucp4P+1pTwu/3DzsYQ/r/vM//zOcTWCR9ohHPKLbf//9u3322afbddddw5uJY07108YC7ZprrumwfexjHxs+dA455JCOl97gv/d7v7fgg+iII47obrzxxuBPnCOPPDLYXnjhhR1fhg888MCO+2R22WWX7lnPelZ3/vnnB9uXv/zlHR8+XJrgMmwGVuJi7jd+4ze6P/mTP+k+9rGPhR9Ghj1CSwcdvyrrUqVRUPMZoi8Fo/i5rTPgDDgD02KARc9Xv/rVsJCxCxbyc5n+hz/84V6h8J2Ks2l8f9N3vVES3H777cH/xBNP7L7xjW9kXe+4447uec97Xshz5plnBh9+3KSPfM8jP5dpcpbPftck7s477xzi2u+KfKc85phjwqIS5Re+8IWOyzFdVhYDfpllZbwf8pCHdLfddluwuvzyy8MpdLZTf8ELXhBecufM2Re/+MXujDPO6A499NBwFo1FFoIfMbimlssBWMyxaIuvm8b2K1/5CkV4M/OGRnhTX3TRRaHO2Tm+FN97770hLo3E5hI2X8wFigb9h0cTrKSHhvNP5fDDD+9e+cpXdldcccWgx2apgeMypMUInxX+bLrFMOc+zoAzMC0GcpdZcnk+LxY+T3rSk8JVTfqutFhs/E/mc1GXdOq73mLjtfhxFo/ve2Dnfiq+D37qU58K/cL/Gc94Rnh0Dz++oWMnbHBJ9F0RHTacIURuuOEGmXi5ghjwM3OVwb7nnnvm3yQs4vgQ4Q3PpZc6M8epft6E/DKjX1x0Zo3w/ArOhwWv173udd0ee+yRzcpZPoRfZLB9+MMf3h1wwAHzZ+YuvfTSoAcH+RHexLyZebO7DJsBPnhXwmKOHxZOOumkjjPa/KjhC7lhz0tH5ww4A87AUmCAH7K5WgnhR26u/OD70jiiBRHf8RB91yvF3H333YOa71/86D+K2IUcfvzAzw7PXGHFmTnO2CF812SRyXcGbsOxV1TwvRNBh41OOoRG/7PiGFjwnDm2vUT4lYBXTtDJNmXT4q/4qTi2jbo9tvn6wlGK88lPfrI77bTTul/91V/t/uVf/iWcfWMXJc6Q2V9JnvnMZ4bLLd/5zncGiOh5CPK1114b7nf7j//4j9D+6le/urv++uvnOVb/wPC5z32ue/3rXx+uuZY/b1B2Q2LnP87+saMTN9hyiQHXZvOSLZddlfqCjldOrD7HudqtbSoeetnm9DksNnYuhtqtbS6PbHN62rFJ2dn4Kb3arF0uD7Y6Myc/2bb4Y4PEvoqh9lIsdLKTny1LvthZfS7O3nvv3XFJCHP+T//0T0P4lG0Ji81j8alu9anY2Knd2srfliUc2JX8rU75bGzqare2sQ3H0ss+tpFe7fwD5zJL3X8ofc7ftlO3x4pJSZycTnpsciIc6HNxaOdKhVqcnD+xbR6OY7H6XBy1W9tUHNnFOo5LvrE+F0ftLbFkm8JS0im2ypSt2mSTyqE+yTZlgz+CTcrO6lP+8ukDh3Kl8tj4ymnt1GbtrF519LJVmy1b/LFBcnHUXoo1FBz0o4TF6tQvfCS0ySbW23b+n37iE5/o/vAP/zB832KTkViwl09Jp+9U9ruefPGzOLiF5vjjjw+XRvK9kO9gsuU72Rve8Ib5nGpXye6bfDeU4MsP91xWqu+J3F++2267hcs10fNdk+9/V199dYjLs1n5TsilmQjfP7l8EyGPxRoazZ8WPTY5UT/Q5/Ko3drG8aaFQ30RphgHxyUspT7IVza5OMotuxQGxZJtyqbkP4dSQhAds1VnSWQX29DOA/K0dWms51g2ufs9hAM7vVJxFCulU44aDuxKcfhwePGLXxy+NIkTfD7zmc+EF778MsOii+ukabdCX/gV6bOf/eyC+1vOPvvsYEYsNk2BM/jgjB4vK1zSqYcOYiMctFsp9QXduONCLo0NdeGgnhLhiXU1LNLn5gfx+sRBPHKm8NawjIqDs6f8kmZzKUdtrmqOgDclrVhsbhunDxxcYvya17wm3KzN2epcLuVN6fvAQfxWPrBN4VB76X0jrH3MVWLpRW4rymPnCNtgs5slvyoj1sb6qi4+lIMyJzmdzZF7/8umxgm5czGEaxo4lKOERTbCpVJ9teMinUrZ1PhQjhIOYspO8VXSzhjn/IWDUi/5qtQc4TgXR7bESInyoMvl6euzTDlKOMYZmz75GAcH/WvFUhuXaeHIjY3mh3CqtGPI/8k/+7M/C9+JYr0292AOoePHdR4DUMqHXRwHe35QIg+c8KNY6jtVaq6ycJKtcPD+5jsgV1NZ0XdCvifqe19sAzY2NGGDO/s5Qbu+a1IXFvDG3xXR8V0T/1RfLaacXjmmNUemgUPvm1wu8ZLSj8IHtnoppkph4BhuS5LCgX0Ny5ydOCTBgQleSojO+llg+KPnRZyU0LGSDTrFIU8uF3Y5nfxrONTXXBxhkV2qP33gIEYJawsOsOWwtPIxaRxgrGGpzQ/1kzilcZFdbmyFAztsUnY1LKOOCzn4As4Hry6LFQ5iLfY9o77WOMnND/zHxfG7v/u7YeOfN73pTd03v/nNRY/NuDjoCzLq2Gz0Wvi3hqU2P0bBwdjzSs3DFA7Zyl5YdLywJw/woTlQssvpUjjiPMJRms/o9Ir9dSycOrZlnziIBZfkS8lQcICthkVzKNUPjYtsUmNM/BofLTjEJTlSeRQDLCnpEwexcnnESc5mKDjEV21swJvje5rvGeFNYREO6VTaeVAbF8Wv8YFdab4LS2r8+dGVWwW4d82KnnfHbTXIUObIUHC0cjKtucr8KuUS3tQ8LM0P/BDN1dI8m8bYzG2E43+dAWdgWgzoUkst5qaVd1J5+MDjbNwOO+zQ8fw4rvOnzWWyDNxyyy3ZL6mTzezRnQFnwBlY3gxwxQOXb3IGjC/juR8EljcL3rulwoBvgLJURspxLhsG+CexXB4cznX9XN/PApUHgrPAcJkOA3DOWV4XZ8AZcAacAWfAGVi5DPhibuWOvfd8RgywmNt8881nlL2/tDwY9T3veU93ySWXhAVdf5E9UgsDXN7hZ0BbmHIbZ8AZcAacAWdg+TLgi7nlO7bes4EywGKO6/GXsjz1qU/t2Jn1He94R/e3f/u3S7krSxb7LrvsEi5tHXIHDj744O7oo48OW2+zHbcvPoc8Wo7NGXAGnAFnYCky4PfMLcVRc8xLmgEuj1vKl1m+4hWvCM9K5PlxP/jBD5b0WDj4yTLAA3F58RwlF2fAGXAGnAFnwBnon4EFz5nTFqvaeSWXjl9XucQnJ8QhRk7w5ZW7oVQ4yEM9l6sPHMQoxRGWEiclfzgYlw/FIE8JB3YlLEPBof7k5khtfsh/XD4Uh1I5qVtRe22ujjIuLOZ46Lud19Mam9L8oN8lHDwHh41ObrrppvAcOTixfRBvxBh3bEo4yFMbF2z6wKE405ir6lOK0xQO5hHPlpS9/HNYxQdjQ11+xJasWrUqPOvymGOOCc814nlIPNuIs2s8JJcFPM9VYovtU045JbjJhjNv6JGPfQ8moY0AAEAASURBVOxj3dvf/vawTTf3VbIDnMVHfnYPA0tOxpmrxFS+3HsXG3FSev8OBQd4W7BglxLxYcvYroUPfFpxKFcqz7jj0ooj937AX/hyWPrkYxwcYG3B0jIu08AB3hIW+sILYQxiqY0L9i18YKdYqTyKk+NEvrn5IX/6SgzKnJT4UJwcDvQ1LK18TBqH+lLjZFo4NO4qwRdLCQu8toyLxieVZxpjs+A5c3RInSqBhwjsUqIYJRurS8WxMaxtLl+uXbFV5uxKOYSFASpxkssh/1IOq6vFqeGwsahLhoIDPC1YxINK9UOlYiyWjxSOUi7ZK7/KxeDgS7h91pxi5HLYXCUbxalxUuqndCqV+6CDDgqXVfLsOB7S2geOXAz1I6cPyTf8EUaValepODU+sK/FqNnU9MRvwZGLo75YPc+2tMeqt/RFtiGA+fOoRz0qPFbi9a9/fXh+Jgu1M888c56fRzziEWFhx+Lu6U9/enfEEUd0+++/f8c23Tzj6Kyzzgr3g7Ko4zJQ4RYmW7bwIXsDMVQVl4OcjdXlbBSnhqXmb3NRj0X+KlN6dDUc+NVi5PSxb8qONl594FC+XB7pKWOZBI44h46FT6XaKYeCYxQsqX5Yf9UpUyJ/lbHNuJzIn7jbbbddx7NJU8IcLC2iFKdkQ9yf+Zmfqebhu13u+11fOLbccsvu7rvvTnU1tOk9l8OBUQlLKx+TxgHOFizTwrH33nuH8QdTSVJ69UN9yvlbX1uXveJojNWeKlP+2CmG6rHvnH0jMIlIlnregnXEzvpZneroc5NSYHM2wqE8uVzSK2eqzOXAFhx84eAsSSlHjZM+cICnhFWcjDs2pRy1cQFjXzhK/Z02DmFJzYEalsXwce+993arV6/eZM5NY2wWM1f54v78DQ9lPe2008JZGf1DIVZKFsNJKs40+CDvYjgR3tr8UPzaZwh29FcvxY/LVk5iP441LuovsWLhQeT2YbTf+c53uq233jrg+td//dfwvwH/yy67rGMeX3fddR1n3tauXRsuvcUe+e53v9t99KMfne8Pn1vKS6lXnN8ey962xfVWPoiVEtprYzMUHOCvYWnlA7vU+Lfw0YJDXOfyMB9KWPvEUcpTe/8OBYc4X05zlTnAWf9f+7Vf03RZUDI28F+SFhs2G+PMyGLztORoseHWCn7IzUlLjJpNTU/uaeAgTw3LtHDwP+3jH/948vMOnAjzLPV5uFFb/m5OPxF91qXiTONzZM6+WSz5tl0dsmVO3xKjZhPrc7nAk9PFMSx21bHhnp977rlnrDh94FA/VAqjypb+yDYVo8W/L5sSDnS1PDV9SwxhoEzxkYqRsqthqelTOPhA54NM+Vpi9GUzCh/YvvSlL+04W8OZlmuvvXbBL/bCb/tIvQWrfFIxWvz7sinhaOlL3zjI2coJv2pzmeWdd94ZuiEsKf9UX1J2PCOQZyv9zd/8TYipP/vtt5+q86X8Kffcc8/ugAMO6PbZZ59wZo77KiXo4xdYEcWQbVzm9OprKUZfNtPI0YJV3JQ4acWas+sLhzBSqi78NndKh34SOGx+1Wt5anrFoRynLy15WmyGhCOHRf3g/wmbaKWERavsUl+O8ZEN+hz32G2//fbhxybqsZCDOPin8ihHTk882UwSh82TwzIUHBZriZNxxsXmyPFhbUo4sEOIE4vmYE5Pu7XJ2VmbVB78JDl9LcamFysropfOgDMwEQaWwm6Wa9asCfc8sXEFX8z5x+syLAb4xZkfBfqUK664ojvwwAO7K6+8Mrw+8IEPNG1ewiWfXC6FH/fLIcwhF2fAGXAGnAFnwBmYLAO+m+Vk+fXozsAmDAx9Mcc9UPxi+k//9E/dX/3VX22C3xuWLwOc6fujP/qj8AB420vulUT4dZC6fj3UbpXonve851HM/1KNDb+IYoO8733vC6X/cQacAWfAGXAGnIH+GPDFXH9ceiRnoIkBFnPc/DtEeeITn9gdf/zx4Qv9F77whSFCdEw/ZuBHP/rR/KLKSXEGnAFnwBlwBpyBlcmAL+ZW5rh7r2fIAIs5rhcfmrzgBS/ofumXfilcVskGFi7DZoCzXi7OgDPgDDgDzoAzsLIZ8MXcyh5/7/0MGBjaZZacJXzta18bLol75StfGTYEmgEtnnJEBrhfjgXd/fffP6KnmzsDzoAz4Aw4A87AcmHAN0BZLiPp/VgyDAxpMbfvvvt27373u8MW829+85vDdvNLhsgVDnSHHXZo2pxkhdPk3XcGnAFnwBlwBpY1A3P2ci9ubkd0c3uu5zyXrSS1ONITI5VL+lWrVoUd0XK/PPeBY6uttgrP/LI82L4JSwqn7Fpw7LHHHh1nPc4999xur7326i644AK5h00FdJDL04KDGCUstRjSE2eSOIivXKk80k0LB8+gYZv31DyrYZE+1Q/wS+y48Iw5nn1i51wtjvTEy+WSTU6Pr8Vx2GGHdccdd1z3p3/6px33x8FBLYb04+KIsXBsRXlyfZEen5pNTq98lhO12VK5UnGkwz6lp102OT02CPPiIQ95yIJ5sVGz8W8cB9z2eYWx3vpSl34an6vKneszWHI6+Y4zLra/1HO5xElOj+9QcLRiyfVFfd1ss83CPbv284fYiGxyMTZatXPCjqapHVdreWr6UXHk+qM8xEvZSJ/SCQPlUObIUHDUOKnxKj1xctzLJqfHFxmHE+UgTi6PbHJ6fJFxcOCvPNRTuaRP6fCRTBoHeVqwDAUHeEtYan2Rfpqfq6kxnuNhr5LW51Rgb/3kT0nHiEOy3D0dypOzkZ4v12x5nctFvpyuFcddd93VrVu3LhtHWOhLikAwIDEOBpYHLfO8Jp4DddBBB3Xvete7wpfn888/f4G9cuT4IL5sajhSWGhr5QO7SeJowaK+TgsHDy/l+VrMg1hqWKQfZVxuvvnmkEZzZtpjQ95jjz22O/zww8P9cWxHj0wbBznFAXXJUHCAp4ZF49/HXGX+8czLVk54XiFz97777gvUCQttKZF+Gp+r8FbjBD2vkqS4wL42LtiovzUcxKq9f4eCg36VsKgv2MUiPrgy4O67707GkU2ND2KXcBAH4f83uWLhB7Q+xoW4NRwteXI2ffKRy0EflKfFpjY2k+TDYq3hwDaFZdrv3RwO2mtY+hyXcXDgW8Mi/WLHhRw1PlpwWJsaltT8mAUOcqawjMLHtD5Xc58Rfs8cozgBYWDZiluT4XOf+1z4wqDtuyeQ0kMuEQZmeZklZ2VOPvnk8GBnHgR+xx13LBHWHGbMQOpLcmzjx86AM+AMOAPOgDOwvBnwe+Yq43vkkUd2Z5xxRni20sMf/vDurW99a3gw7qc//elwuSTuW2+9dcfDdXlg7ute97ruuc99bseZOS5h46HLe224rJJnM+lBvAcffHDISkkbOwdyv1LqcpQKPFcvQQZmtZj72Z/92e5tb3tb+AXqpJNO8oXcEpw7DtkZcAacAWfAGXAGnAHLgJ+Zs2xk6pdcckl3wgkndEcddVR32WWXdaecckpYpJ144ond6aef3j31qU8NZ+E463b00Ud3u++++4JILOx+53d+J2wuwQLu0Y9+dHfVVVd1z372s7sjjjii+/73v9896UlPCnV7L92CIH6wbBjg8jjmxDSF++PYsfJDH/pQ9+EPf3iaqT1XIwNcJsOjIbgELRbO8Eu4zALhfl8uqbz33nvDsWykD43mj/Q777xz95SnPKXjEvOUcN8el3umRDHQ1fK02ORi4DtNHCWsQ8HRykmOU43dfvvt133rW98inIsz4Aw4A87AMmDAF3MNg3jDDTcEKxZpLOpYwCHf+c53Or4YISzOkMsvv3yTDQyuueaa7g1veEP3jGc8I9iceeaZofze977X8eBfhBx8kXNZ/gxM+8zc7/7u74YfIvgR4rrrrlv+BC/RHn7sYx/rHv/4x4dLs1NdYLGHcB8CMje38eNbX9IpeUkfjMwf+f/1X/91aJWfMZlvz+kwUJxcHuHILSoUA/9SHsUJoBJ/+sJB6BKWoeAAZwuW2rhcfPHF3UUXXUQ4F2fAGXAGnIFlwIAv5kYYxOuvv77jbByXTFrhjN1DH/rQ7utf/3q3//77b7IzDou48847L5zR05k5/Pfee+9ul112CWfmdtttt474LsufgWkt5vjix9k4dq172cte1t1yyy2b/NCw/NleOj1cv35991d/9VdJwIwlixcWSPqyvtNOO4UdWNm8B0GPXW0DFPxLCy3mS+pmcHKkcNBuRTgsVqunrr4MAQd9KnEyLT5qOOCthkUxsI3FjkuJ99jPj50BZ8AZcAaGzcAcH/5WdKzS6my9pEfHP4txbORLqbrNr3pN14KDWLU42PBrJvca6czcl770pbC4+8QnPhEWaoceemh3zjnndNqtUDH5svX3f//3hOg+8pGPdDfddFPHF/oPfvCD87+QfvSjHw33M8knGEd/pFMZqecPc3raW/hosSFZLo+AlPQ1LDW9zV/KY+2Ey5bypVTd6uVf4kR+KmN/HUuvxZyOW3KMYoMtZ5FZyHH2l/s45W/L0Bj9AVOpr/JvsZFtlGLBoeXAKoaCQ30o9bcVq2LZfsb1HB/ytTj++7//O7hbH+r2OBe/ZKNcsa+O8bU41G7LFhvsh4BDGFTafqhe0/XBh3KoVO64HEePbwtWco6bRzFScaaJo6W/JRvhVxmPh45L+tb+lnCIT1sqty2HgqOEc5p8lHBIV+K9FatiUeZk0mOj+CpnhYO8wqAyhaWmK42LcrTYyDaFQW05LLS35ijlUXyVyhuXJX0Jyxy/1km4V0OBAJ8TbKyftUNHHPS5X4hlg18qj3AoTylXSdeCgxzKY/uhOgs44WVL71NPPTW8pKd84Qtf2J199tmh5J45BFva8L3wwgu7z372s5vw8c1vfrNjUxXFh69cf8QJsVOc0Y7k+qIc44wL8cfFIYylsRFWbHN97RMHeeAlxX0Ny2JxcBaG++bYjl45+hobLtd99atfHe6P+7u/+7sF/SJXqp9w0DcOYubGT/lSWIaCQxiHNFdb5kiO88XOVXiQ9Dk2pbNh5BvKXB0KjhZOWuYHcaYxR8gDntR7nLmITAPHOJwM7T3DXCzxthTmKhhLn6n0Tzalvk5jbIaCo4WTafDRggObFizLba7qsy73eUd/kdxnHrpxOJmzgVXXZTwEz4lsYz3tdIYyZwNg6VTaOHFbfFyylQ6fcXEQS7lLnHz+858Pu1Huu+++3aWXXhq+SMtvmjhs31VXORQc4Klhqc0PxaAsjQt6RGOx8eiBv8Ihm5RdDYt8RsXB2Tl2L2UzFOGgVLwHUG6s1XCoD2xs8bSnPa374z/+4+6rX/1qHCYc53L0iYNEo3IisEPBAZ4altZxIdZi+cjh2HLLLUNMuwEKeHmlRO1944hztXIyFBzgr2ERd3FfaZ/W/xnlLmGx3MtepdWVYmBf4wObUgx9ocEmZac2lcSzovY+cBBL8WwO6jVO5DdrHGBtxSI7fKzQPoS5OhQccFPDUpsfikE56zmicZ81jlE4EWZ8rNTGBdtpjM2oOMCV6pPaJjk2c3FwEaTkgIsFXewnG/w5w1SywRZ9yUY4iJXLVfPvAwdYhYV8Kbn22mu73/qt30qpgu+0cAAgx0lf40KOGh8lHPKvcUI/cn0hBtIXDmIxx0rzrIRlMThYzPHMN3L2NTaveMUruj333LPj+XE/+MEP6NYmUutHbVwIOOmx6YsPsC5mbPCTtGCZNB9gSeFgN0vO7NrnzZXGV3GEV32My1KMFI7Yn2PlyL2nrE3KX/qcf584iCW8KSzT4qOGo5WTHGfyL/UHm75wEAssKTwtnzN94aj1V2OfwtknH+PiaMFSygGfLbzX+GjBgU0Oy1BwqB81TibNRysOcZrjVXGEl+OU1PxrfBBTOXLvGWxq79+h4FB/Un0ZZa7irxcxY6nxgf04nPgGKDHjfuwMTIEB3TfXRyo2wuD+OO7FfNWrXpX88tRHHo/hDDgDzoAz4Aw4A86AMzAsBnwxN6zxcDQrhAEWc5tvvvnYvWV31Ne85jXd+eef37G1Pb/+uKwMBtidNPVr4srovffSGXAGnAFnwBlwBmDAF3M+D5yBGTDAvXLcMzeO8KD55z//+eH+OO7V1H0q48R036XDAHPIxRlwBpwBZ8AZcAZWNgO+mFvZ4++9nxED415medxxx3WPfOQjw/1x3LPpsvIYqG1msPIY8R47A86AM+AMOAMrjwFfzK28MfceD4CBxS7m1qxZE3ZLveuuu8JCjpuVXVYmA7vsskvYAEXPtVyZLHivnQFnwBlwBpyBlc3AgufM6TIt7rsp3XuDTrYp+lr8FT8Vx7ZRt8c2X184SnGUu9Snkj94S76xXvlsP6mrvSWWbOMYLb7Y2HxxDMVuiSXbOAbHJX+ry8VQu7XN5ZFtTk87Nik7Gz+lV5u1y+WRLXoukeOeObW1+B9wwAHhIfU8+5AHziPyt/VSLHTWJwQxf0q+mFl9Lo7ara1JMV8tYWnxxQZRvvnAP66ovSWWbOMYHJf8rS4XQ+3WNpdHtjk9MSSKJ5/4WHYqYzu1xyVxZBvrOFaelC7W5+LQzv1+xMrJtHDEmGM8Q8EhnDlO0Zd0dtxydmq3tjEfLTjwR4inmKHhx3+s3rarLp8+cCiXYtvSxldOq1ebtbN61dHLVm22bPHHBsnFUXsp1lBw0I8SllIf5IsNon6HA/NH7S2xZGvc56slf6vLxVC7tZ0PbiroZWua56st/tggqThqa4kj2/nkptLiX8Jh8ZVioRsCDvCWsJT6IF/Z5OKon7LDLyU5f9mW/OdQSkioY7bILInsYhvaeWCgti6N9RzLJndWQTiw0ysVR7FSOuWo4dh11127LbbYYr7fcSxhob3ECflS0ooDznJ8ELcVB7YpLEPBIXylOSKsk+TD4lC9xFsOy2LHhcUcDw0np/pbmqtPfOITu5e97GXdO9/5zu7iiy9OjnErllQ/xUFpXKxNjg9sWnEoHqWVFj5kM0kcYFKe3NhIPwscnN3l4fNgiLGGhujPuOMS58h9HrZyQrxcDEFX33SsUjly44KdbPoYm6HgUL/Egy3ByBjnOO2TjxoOPkdkk+Ju0v/vlHvcz7OhvWfEZW6M1e9AfvRH4z+t90wOy1BwCF9pjghrH58hyhcNSzhUnnHGxufqpsyOy8ko44KtXjGScXEQr4ZlwUPDtTOayhiQPc59mNh2W7e+1Hlz5Cau8ktfipPT2XZbj3HwPC4eupuzERaVsb+Oc/623dblp7LEBzbKr1J+qTKVx7bZeuw/aRzks/lt3WKZBY7FYNF4qLR9iOs2Pl/E2QCFNttu6/J/wQte0P3iL/5id8IJJ3T/9V//tcBeNpTCoNLqbD2VA71tt3XrS33SY2Nz2/q0cZDP5rd1i2XSfORw3HrrrRZGqAvLJooNDZoXKlM2asv11bbbuvxUCkfOBgxDwQHmGpZcP2y7rYsHlS18tODAJpdH7SqV25bTxCGsKTyzwGF5sPUSFs0LldYvrqf6iY1tt/XYv4QDW2FQGfvrOJfDttu6/FT2hYN4qTy2zdaVX+WkccT4cliGggO8JSyaFyrFY6rM9dW223oco4QDW2FQGfvrOJfDttu6/FT2hYN4qTy2zdaVX6XFkbITDyrllypT/tjZdltXjIk8NJxEvHLAWaUKXM6GVSiCPmdTyoF/C46aDRhsLI5j6QMHMUtx0NdwlGJY3xyfLeMyLo7YP4Vl2jjAlJtnLVgst8RKSTy29913X1jMkdf6Wz623HLL8Pw4Pih4IDgLwDhOnMvGinUcl/ytr8Vh47Twgb2NZf1tPYfF+s4SR9yPFJZp8NGCAxthSeFEj1huN7Zs+jc3LrF/Lo9wlOIQCz2vnJT8bT/GxWFjpbAMBQfYaljgYtJ8tODQuObwiPMcVnLIRrFoi6XGB/qSTctcHQoO+l7DUuqr9c3x3sJHCw5scliGgiPuR4qTafDRggObFiyWW3xSkhsXbK1/ig9sWnDEsTiOZSg4wJXDMiofuTjksLE4Tkmrf2psNq6qUlG9zRlwBibGQG0DlH333bd797vf3V133XXdm9/85o7Fn4szYBnYbrvtuq233to2ed0ZcAacAWfAGXAGVhgDvphbYQPu3R0GA7rMMoXmN37jN7o/+ZM/CQ8BP+ecc1Im3uYMhA10xn1WodPoDDgDzoAz4Aw4A0ubAX80wdIeP0e/RBnInZk79thju8MPP7x75Stf2V1xxRVLtHcO2xlwBpwBZ8AZcAacAWdgGgz4Ym4aLHsOZyBiIF7MrV69Ojw/jh0uX/7yl3d33HFH5OGHzsBCBn70ox+Fa/0XtvqRM+AMOAPOgDPgDKwkBvwyy5U02t7XwTCgRxMA6Gd/9me7M888s1u7dm130kkn+UJuMKM0bCDcBM0N0y7OgDPgDDgDzoAzsHIZWPDQcJ63oR1XKHOCTjvapGz03I6UjjZ8eaV2ZEEvHOShnsvVBw5ilOIIC1+asEtJyV/9KX3pqvGhGOQp4cCuhGXccekLh+LkOJkWH8JBqZzUrai9NldHHZd169aF58w99rGP7V7zmtd05557bveZz3wmO9drOMDsc9WOXBsfeJTeM+hL75u+xmUxOPRoC+YSIiy591XL/FgMjpDc/BGO3HsGU7CwSyvc52SccSFmKw7ylN6/Q8FBn1qwYJeSvvggdisO5YzxMP61+VEbl1YcufcD/sKXwzK090yNk5ZxGYcPOOuDE2IMAYf6k8NSmx/yr40LdpMemz7GRf3J8YG+L04mzYf6Mu7YtM5V8UIZyzTGZsFz5vjnCpDSQAISfcmGD0ZeORt9cOZsLI6cTZ84Sv2xWOIB0nHJHxv6UOoHOtnlOGvBQYwSlqHgUF9znEyLD+GYm5vL8lbDsthxYXfKhz3sYd2LX/zi7pRTTukuv/zyqcyR0vwQH7lxkV6lz9WFz9OZJB/i3I4Nu1nef//93c0334w6zB/KaeMgp5XaewZb3jc5nIqFvmRDHsuH/FS24qj9zxsKDvpVw1LitS8+WnAoVw4vel658V3s56rGXmUtj3DmsAwFB/1pwZLjuy8+WnFgV8Iy7rj0hYM4JSy1+TEtHMKpMvW+aZkf+JfGRfFz7wfpVaZwoGvBMhQc4C1hKc0PfO0cyfHWwkcNh3LlcvykOqFBsaXV2bpNatut7zg28lUZ5+D4pS99afeVr3wlPESZByl/6lOf6vbcc8/uoIMO6o466ihcwwCtWbOmO+OMM7qdd955fsAUTzYq1W7LI488svv5n/95TOb9t9lmm5Bfv4xbnfWlLh0l9r/+678e4ginYtkyjhHHSelpo98HHHDAPE5rZ3HYdlvvy4aYimXjqy6dSrWrVLtKtdtSOpVWZ+slvXRwz2MADt+w8Yj13WmnncLcoU22Vm/bc3rZWz31Zz/72R1fxl/2spd13/zmN0NeayM/ldKpVLstpVNpdaq36KZhA55cHrWrFHZbSqfS6lSXTqXa47Kkl05lzjenx146lXEMHZf00qm0cVv8rb2NIV9blvTSqbR+qkunUu22RIfYtrhe0kunMvblWDqV49qM6z8uDtunHJZxc8hfZSpPC46aTU2v/ConhUPxVcZ51K4y1uu4pJdOpXxsKZ1Kq1NdOpVqt2WLbho2YMrlUbtKi1916VSq3ZbSqbQ6Wy/ppVNp/airXWWsb7WxdouNIQwq4zhqVxnrdVzSS6dSPraUTqXVqS6dSrXbskU3DRsw5fKoXaXFr7p0lIjabal2lVZn6yW9dCqtH/UluwHKvffe2z396U/v/v3f/52+zQtfkCUs5HjYMs/puv3229U8UnnhhRcWLwUaJdguu+zS7b777sHl61//esdr2223DcdsiHHWWWfNr/JHieu24zHAvWof+tCHuic96Undb//2b3ef/OQnu89//vMh6Pbbbz9e8Mh7t912Cw8Cv+mmm7prrrmmu+WWW3qbX1EqP1zmDLBJDr/4uTgDzoAz4Aw4A87AymVg04s7lwkXLJJOOOGEsLHEYhdyUMGZOc6icVbtrW99a3fllVd2J554YpElch933HHhnigMf//3f797xCMe0T3vec/r3vjGN3ZHH310d/DBB4dSgdjFkLON8iWPXtiyScYFF1wQzkTSThtCyfGnP/3pkEPxyCF/sCD0413veldo32KLLWTq5QYGvvrVr4bdJP/6r/+6e+ITnxgW1r/yK7/SKzePecxjuve85z3dJZdc0p199tnz86PXJB5sxTBw9913+8PkV8xoe0edAWfAGXAGnIE0A0v2zByLkY9+9KPzvWKBxaWWCGdTTj/99F7PeDz+8Y/vLrvssnB/EwuoY445Zj53S4XdCz/wgQ90V199dcCpxVjK933ve1/HC5tHP/rR4Qzeox71qHAmkjOSLMpov+qqqwKOQw45pOPMHjshInvttVf3a7/2ax3tLGRZzOGDfO973+v22WefUPc/GxngMsv3v//9C86Kclb35JNP7latWtXx4G5OY6eEm2uRnF4+m2++eZiP73jHO7p/+7d/65i/LOBdnAFnwBlwBpwBZ8AZcAacgcUysGQXc7nLLCHi0EMPDWfPWNSx6GKnwHGFyyO//OUvhzAsom688cZxQxb9tZBjUYdwSR5n9bi0FGErexYc/DrPQo4Xi03Jt771rflLS6+//vqOy/t++MMfdtRdFjLAXHrLW94SNpNgMxTOzPH6whe+EBa+6HQT7ELPB3b24nK30oKOM66c3f3a174WQjBevpiL2fTjURjgnk42QLn11ltHcXNbZ8AZcAacAWfAGVhGDCzZxVxpDM4///ywkLnzzju7/fbbL1zOqLN2Jb+SjkXQrrvuGs6SsYjacsstS+ZhwxV9Wd9xxx2LtrEyXsihf+Yzn9n95V/+ZTgzqDNzt912W8BBHhYHLDi//e1vh3BshMICgjNztLNZTGrL1Dj3SjzmCzH3sLGBzFOf+tSwKOZeSxZ5p512WnfdddeFhZp2LbIcwSln53I7DMmWWNybJ8GevDwsnNLFGRiVAX54SM3JUeO4vTPgDDgDzoAz4AwsXQaW7T1zGpKLLrooXG74y7/8y2paVPmP//iPIQ73ob3pTW8qxmABxZk7zpR9/OMf79j4RPKUpzwlXPao47jUPXPc76d73rj/jYXA3//934d75nSJJws4Fq7kwVaXT3IWj7NKaidHvFFMnHclH3OZJffK7bHHHmFzkj/6oz8Kl8NOmhP74PBJ5/L4y4+B9evX+wYoy29YvUfOgDPgDDgDzsBIDPzEhgXA/M1Arff/cL8PZxpyUosjPf6pS9Okf+973xt2ovzv//7vZKo+cLAAYoMSLmFMibCkcMq+DxyKlcvTgoMYJSy1GNITZ5I4iK9cqTzSTQsHu1e+9rWvDfcTklOy1VZbBZx33XVXaCphTekUhzI1LmyCwjPm7I6WuTh9cZLCYXEqz6Rx5DgRlqHgAE8Ji3TY1TjL6fFF+hqbXB5hzek3ougPB/FyucCS000bRwknur7GpZSnz7HJ8aoc08Lxz//8z90TnvCE5HcFYalhzenpAzLpsanh3Ihi8jjI04Jl0ny04sCuhKXWF+mJk5sDssnp8UVKONCX4kiHXS6PbHJ6fJFxcOCvPNRTuaRP6fCRTBoHeVqwDAUHeEtYan2R/iUveUm4Mo4N7mKRzSTHZs5e+tV6yRhArZ8FDmg9hDV3CZDy0LGUjfRcfsalhLlcfeDgi/q6deuyOYQFnPFAcDnkRz7yEdv9ULebsfTBB0FLOGIAKb6GggOsNSzqa25+EEM2qXFBbyXFB3rhuOeee7pvfOMbYR7EfsqTwyL9YnBwvyM/inDPE3FyOcCkPC02NSw1PlpytNjUcNCvFBaNS0uOFpvF4gBfDUuf45LjowUHNsKSe1yB9JPkw+KojQ16XiVJzQ/sa+OCjfpbw0GsGidDwUG/SljUF+xi6ZMPYpdwkAvh/zefc7E86EEPavq8q40LcWs4WsY/ZyPOZo2DfrZimSQfo+DANoVl2u/dHA7aa1jEeW5+EEM2s54jQ8ExCiep+YF/bVxsjkmOzSg4uFKOz7pUn6YxNsvynjkGehrCc+I4s8dGK6kBnAYGz7F0GfBNUJbu2A0BOfftsnC77777hgDHMTgDzoAz4Aw4A87ADBhY9vfMzYBTT+kMNDHg98w10eRGGQa417O2EVPG1ZudAWfAGXAGnAFnYJkw4Iu5ZTKQ3o2lx4CfmVt6Y+aInQFnwBlwBpwBZ8AZGBIDfpnlkEbDsawoBnwxt6KGu/fOsnEO92m4OAPOgDPgDDgDzsDKZcAXcyt37L3nM2bAF3MzHoAlnp7LdF2cgUkwwGNa2FggJzxCJ3eJL5sG6JXz93ZnwBlwBpyB/hiY40PXio5VWp2tl/To+Ecwjo18KVW3+VWv6VpwEKsWp9VGuGxJ7BYcLTY1HCX9UHAIY6m/rVgVizInrWObs6thkZ/KVhx8GX/wgx8czGs5MGq1kW0InPhTwtmaozR2Nn8pl7WLYQ4FhzCW+tuKVbHivtrjEl9xHtmCTUKb2tVmS+lUWp2tl/ToSnwQp8VGdjZvXJ8GDuVQGWOo4Wzpa6tNLde4+hYcW2+9dXfaaad1d955Z4qK0LZq1aqO3aZzQh425qHkFUsLDvmpjGPouKRvzVOaz4qvUnnjsqTvAwf5lENljMHa5HSlvsq/xUa2qTxqy+GcJh81nDUsNb2Nn+tvjQ/FaOG9ZKP8KpU3Lkt6dKUco2CVbZxfx0PBUcLZyketT+qrStnHZUlfwjLHlpkStgtWIAYzJ9hYP2uHjjjoc1tkywa/VB7hUJ5SrpKuBQc5lMf2Q3VhyWGlveSPrgUHNqUcLThKWIaCQxhLnAjrJPmwOKgzj1JzqYZlnHHhkRg834QYJT5irKn3DDYtWOhPqp82B/rFvndbcShfCos4nzUOYSyNjbBiO864KFeKD+liHD/90z8dvlDffPPNmITPIWymjSMkN39aOalt5T2UuToUHBrj0hzp4z3DHJqbm+v+4A/+wIzqwuqaNWvCYwcWtm480vj/3d/9XceD7VN4yYEMfa6Ck/6UsKIbyhwZCo4SJ5offczVSY+NsJbGfyhzZCg44KoFy3Kbq8xnveDASgsf2I/DyZz9MFW95T4M2VrA1GmnQ5Q5GwBLp9LGidvi45KtdPi04vjqV786j0f+KpW7xons5KdyFBz4lOKgr+HIxRgKDuErjU1tfigG5WL5UAxwqJ7ivoZFPovBwS/Xm222WehDiQ/w1XCoD5Q1LMKMrZWhzJGh4ICbGpY+x0X57JionsJBm17YCQttKVF7bX7gK9s4Du19zdWh4KCPNSzT4KMFBzYlLJoD2MVidaUY6PSKY9jjUoza56p8Vdq41NVeGxdrm4ox7lwdCg7bzxonwjwJPkbBYW0tFvCNOy42do0Pa2txqL2EpfU9Q6xJ4iB+DYvGfdY4wNqKRXb4WBnKHBkVB31I9UltkxybuTi4JoySW4JVRxf7SYc/v+qXbLBFX7IRDmLlctX8W3B8+9vf7q644opsDrAKC/lS0gcOYpTitODAJhejr3EZF4f8a2MzaT4sDurMsdI8y/GqOMLLcUpS/izmuO8EXY0PYipHDic2Pldh4QGp8YFlamwUoeV908e4LAYHD5znzIedD6W+kGMafKgvNSziDfuUlPxbxoWYymE5inPVOBkKDvUn1xdxktPLv9QfbPgsQmpxcnrhUIyUXcvnXW1ciF/qi3CUbBSjZDMUHGCtYan1o4V3YpTitOAQr6mx72tcxsUh/xonk+ajFYc4LY1NbX4oRmpc+sShWOKO41hq/aiNC/EUP9cfbMbhZJS5Cga9yBvLODiIVcPiG6DEjPuxMzAlBtgAhQfOuzgDi2Hg1ltvXYyb+zgDzoAz4Aw4A87AMmLggRvmllGnvCvOwFJgwHezXAqj5BidAWfAGXAGnAFnwBkYLgO+mBvu2DiyZc6AL+aW+QBPuHvbbbddx86DLs6AM+AMOAPOgDOwchnwyyxX7th7z2fMAI8mYAMUF2dgMQxsvvnmHTuiujgDzoAz4Aw4A87AymXAz8yt3LH3ns+YAc7M6TlzM4bi6Z0BZ8AZcAacAWfAGXAGliADC54zp+2E2TWFV07QyTZl0+Kv+Kk4to26Pbb5Jo2DXMpd6tNQcIC3hKXUB/lig6jf4cD8UXtLLNka9/lqyd/qcjHUbm3ng5sKetma5vkqegSblJ2Nn9KrzdrNBzeVFA7OqnB2Rb6UOZENeuWMbdVubWMbdLKLdRyXfGN9Lo7aW2LJNsbS4osNkouh9pZYso1xcFzyt7pcDLVb21we2eb0xJDceOONYTcv+Si+jmWnUu2yU3tcopdtrOO4xR8bJBeHdnb+kl0wjv5MCwdpS30aCg7hzHGKvqSzfczZ0Y5dS6xcDHxtjJSd1Ydk0R/5WMyRSThEL9ucXrlq+lQctc0aB9hbsEyaj1Yc2JWwtPCJjc0XDsyfFj4wL+GQXrlM+FC1OJUvtlG7tY1tOB4Hh/yFUzltHrXNGgeYWrBMmo9WHNiVsLTwKZtcnBY+ajikJ0dK5qyChDpmy8+SyC62oZ0H5GnL0FjPsWzYejQlwsE9IUcffXR35513pszCA5fZnjsnxCnhwA+b2ram4C3Z8ODnIeCgPyUs0+KjhgN9DUsf49KKY5tttglzMjWnW+cquUZ9z3CZJYs5+jrue4b8xFEfSlhkg48V9bX0npFN7r1LvFYc2KawKMescQhfaWyEdZJ8lHBY/oQlN/bjjksJBzqJcNQ4wT6H1cZS3ZbKMa05YnmeJQ5yl7AwxjlOxVltXPSA21we9T+nVx5hTdmRo4ZDfrn+tOIYZ44M7T3TwolsxI9K2kufZRqvSY/NUHDY/ubmiLD6XNUsqn9/x7L1fbOc5ip90esBtjbWWvnAerGcLHhouBYsKmNA9jj3AWvbbd36UufNkXsDKf9ZZ53V7b777mGBEvtzzMKlJBCIKF5sK+JzOLCvxcBmKDhqWGp96YuPGg70JSzTxvGhD30oOxfB2jJXc3MMf0n8fuA5c6tXr14wP2Mb+VKWcKAXBpW0pSSXw7bbehyjLxzETeWxbbY+bRwxvhyWSfORw8HcAdP9998/T42wzDeYiuaFSqPapJrrq2239TiAcORswDAUHGCvYcn1w7bb+mL4aMGBTS6P2lXGGDhuGZeajeLm8th26vZYvrUcGg+V8kuVqfjY2XZbj2OUsCi/ytjXHudy2HZbt77USzjQC4NK2lKSy2HbbT2O0RcO4qby2DZbnzaOGF8Oy6T5aMWBXQmL5oVK7HOS66ttt/U4TgkHtsKgMvbXcS6Hbbd1+ansCwfxUnlsm60rv0qLI2UnHlTKL1Wm/LGz7bauGBN5aDiJeOWA64t8yYYv9BdeeOGCDgi0Sp7RtXbtWh0uKPEnTykHeuxabOgLdikZCg6w5bBMk48SDnQ1LH2Ny7g48G+dq8yN3PwgTmqOsZhjAxT5pmzwRVpwYKf5nMNSymF9x3nvtuDAJodlKDjifqQ46WtcSnzkcPBe51Ldm2++GZP5OZLCGQw2/LHcqi0uc+OCnfXP5WnlhDy8cjItHLZPKSxDwQG2GhbGpI9xIVcuTgsOjWsOjzgv5ZCNYpE3lhof6Es2LXN1KDjoew1Lqa/WN8d7Cx8tOLDJYRkKjrgfKU6mwUcLDmxasFhu8UlJblywtf4pPrBpwRHH4jiWoeAAVw7LqHzk4pDDxuI4Ja3+qbHxDVBSjHqbMzAFBvzRBFMg2VM4A86AM+AMOAPOgDOwjBnwRxMs48H1rg2bAV/MDXt8ho7ujjvuCJfdDB2n43MGnAFnwBlwBpyByTHgi7nJceuRnYEiA5wq534n7n1av3590daVzkDMwN133x03+bEz4Aw4A86AM+AMrDAG/DLLFTbg3t1hMcCOlv6suWGNiaNxBpwBZ8AZcAacAWdgqTDgi7mlMlKOc1ky4JdaLsthnUqndtppp47Ht7g4A86AM+AMOAPOwMplYMFDw/V8GXZUYeeVnKDTjjYpGz3LJKWjDV9eqR1Z0A8FRyuWSfPRigO7EpZxx6UvHIrDPEtJbX7In74u9bnKmTkebXH77beHvqT4oK0vTkrzQ7zmxqVPHMQqYfG5CkMLJeZk1apVwYC5gWiO5MZvaJ+rbOfMHMhJaX7gE/MRxxEfuf8zikGe0ufIUHCAtwVLzIOOW/mAV0TzSv62bMWhnNaXOjnGHRfitODIvR/wF74clqG9Z+jvcpir03rvjjtHavOD+EOZI0PB0crJpN+7rTiwK2FpnauaK5SxTGNsFjw0nA6pU6UPQHU+Bqx2YqiesrE62Vq7oeAQzhZOUv2w/qrbftq6/FVanXxbcMg255/Ty175VapdJe3j4FB+xVep+CrVrlLtKmnnxRtnKc9Vzszx4HD1U6X6aUvpVFodddp51Tip+StWHF/H8lepdpW086rhwD4VQ/45vc1TslGcxeJQbGFUqfwq1a5S7Spp59U3DhZD8YJIuZTbltL1jcPmUJ1ciEq1q6R9KDhasJT6IZ1K9dGW0qm0Ouq08+qDk1wO5bEldSvCodLq4nouj/W1desvX5VWR11+ffCheHEOHQuDSrXLj/ZZ4xgFS6of1l91ypTIX2VsQzuvxXIif+LmclhdzkZxFotDORRfJe1W1K7S6qjTzmvSOJTLltQlQ8EBnlYs2KVE/oqVsrG6WpzFjs2oOCwmi1lxFotDcdVPlTbHgufM8aWYZHxBKAl2uV+y5Ic+9yVbQHI2Q8FBX1qwTJqPVhyyK41NjnN8a+Oi+JOeI0PB0cJJy/wQb6lxYTE3NzcX3nPTGBufq4zGQhmHk1nO1RtvvHFBRyyWBYofH4w7V23MPuYqeEoyzrgQ1/KRy9XCyVBw0Kcalj7Ghf//tTw1PVgR8PCKhRwlrMSf9P8ZMNXmyFBwgLUFS8u4lHiv8dGKQ3apsUeHDAVHCcs0+SjhQFfD0jI/iDOUOTIUHC2ctM5V7FJzfhpjM0cSCZNFxyqli8ucviVGzaamt1gmiYM8rViGggPMKSwt/ejLBgxICgfttTw1fUsMbCSLxYF/DUtNLwyUKRy6Z046ldaPekueFhtiTTpHK44clhb/vmzAgCyWk6HgoA/Csti+EEMyTgzhIFYpTkk/TRzCqFK5bZnTtfZV/iptbOotceRTioFNSS+dSsVU2RcOxadUXTko1abS6qhPAkecoyXPUHC0YFX/xuG0pb8tNiUsLf592ZRwtHA6FBx9YR2XjxYcrTbYLbe5mutTyzzCF1ksJ5te3Lkxnv91BpyBKTCgxdwUUnmKZcbAlltuGS7RXWbd8u44A86AM+AMOAPOwAgM+GJuBLLc1BnomwFfzPXN6MqJt80223Qs6FycAWfAGXAGnAFnYOUy4Iu5lTv23vMBMODPmRvAIDgEZ8AZcAacAWfAGXAGligDc0sUt8N2BpYFA/fdd1+32WabLYu+eCemy8Att9ySvNl6uig8mzPgDDgDzoAz4AzMkgFfzM2Sfc+94hngMkseTeDiDIzKAGd1XZwBZ8AZcAacAWdgZTMwt/32288zwI4rSG43FRnykOOS1OJIT4xULulTOpt30jjI1YJlKDjAW8JS64v0xMlxL5ucHl+khAN9KY502OXyyCanxxcZBwf+ykM9lUv6lA4fSQ4HD35Gt2bNmmCai6M8GNVscnp8czjQIcqTiyE9tjWbnB5fpIRFeXIxpCdOzSanxxcp4UCvXKk40mGX0tf80UtGxaHcyhsfK67Kml52o+KQn0rl4VjYpFOJTU4nm2nhIF8Jy1BwgLMFS64vreOy1VZbhcel2O8G5LbSgoMH5W633Xbd/fffb11DXVhqWHN6BWzBgW0ujnDkbKTP+U8LB3lasEyaj1Yc2JWw1PoiPXFy3Msmp8cXKeFAX4ojHXa5PLLJ6fFFxsGBv/JQT+WSPqXDRzJpHORpwTIUHOAtYan1RXqusOIe9tTnpmwmOTZza9eupS9BeK4LSUvPVJCt9VMbJf7EAXTqeQvYKE/ORvpZ47BYa1gmyccoOLBNYeljXPrAQYwaFo1/bn5MC4fNk8MirLX5QazUuHCp3G677dbddtttY71nLNYalhQO/GvjYnPk+LA2NRzYprAMBQf4alg0/pPkI4dj11137datW9cxhxBhyT0nVPrFjksOR0hu/ihPjRP0vEqSmh/Y18YFm1YcxKpxMhQc9KuERX3BLpZWPtavX9/xyuVR3JxeY8M8vPXWW8MclY9KFnq1+aG+zHKOiLPa/KBfNT5a+ttiU8MyFBw5TjQ/WvraYlPjI4eD9hoWjf+scYC1hkX6SfLRgsPa1LAsp7nKVVZ333138nNgGmPjG6Aw81ycgRkx4LtZzoh4T+sMOAPOgDPgDDgDzsAyYMDvmVsGg+hdWLoM+GJu6Y7drJHfe++9Xe4s3KyxeX5nwBlwBpwBZ8AZmA4DvpibDs+exRlIMuCPJkjS4o0NDHBprosz4Aw4A86AM+AMrGwG/DLLlT3+3vsZM+Bn5mY8AJ7eGXAGnAFnwBlwBpyBJcyAL+aW8OA59KXPgC/mlv4YzqoH7BS49dZbzyq953UGnAFnwBlwBpyBATAwx24+VnSs0upsvaRHx+4/49jIV6XNbeslPbpxcZBLOVTa/KrXdNPCYfEKm8pp8lHCIV2Jk1asiqU+pspJj43iq0xhyOHkMku2tG3tb4kzm6OEpaZrydFiY/GMwon8WnK02CheDkNNXxubmt7GL3Fv7VJY4zw8n5Bt3++66655c2xKOaRTOe8YVUp6dC2812xIWcpT0/eFQxhURlSEw5qu1tdWrLU+j6ufFg7xRam65XWaOMYdG+FXafth6yV9a39bsNbmwFBwlHBOk48SDulKvLdiVSzKnEx6bBRf5axwkFcYVKaw1HSlcVGOFhvZpjCoLYeF9tYcpTyKr1J547KkL2GZY8tMCdsFKxDgc4KN9bN26IiDPndzvmzwS+UZCg7wtWCZNB+tOLDLYRHn44xLHziEsTRHhBXb1PyYFg6LNYelZX4oTuo9w9byLOZKfMgfmxwO2luw5OYH/uJ91nNkKDhaOBFWbKc9VxknvSzWaeMgt5VWTmrbVhMn9Z4hl3JMY64OBYf6XeKkDz70OZLL04JDn1XESMWRfuhzVVzQ5xzWVj76GBvmYgnLUpir03zvjjs2wlrifChzZCg44KoFy3Kbq/qsy33e0d/SPEI3Didz9gNKdf7J1kS2sR3tdIYyZwNg6VTaOGqbNQ4wtWKRne2H/MflQ3EoF8sJ+IaAQ30pYanND8UYhw/FKOHApoZF477YcdFllsTRi7yx1HBg34pFdnEO2sflYxQc1tZiGQoO4Stx0ue4KJ/lQvUUJz/84Q+DWuMpLDqWr0q1L3auEieFQ/FVCofs1W5L4gwFB7hqWMSd7QP1PvkgXg2HclLGAhbLfay3ulJ/0OkVx7DHpRi8Z5BcHPmqtHHlRzkuH6X3LvFrnAjfrHGAtRWL7PCxQvu4fBBP8RfLyVBwqC8lTmrzQzEoF8uHYpRwYFPDMu649IVDcShrnAgztlaGMkdGxUEfUn1SW42PnL/aS3NkLg6uCaPkBIkFXewnG/w5I1eywRZ9yWYoOMBaw1LrRx98tODAJoelr3EZF4f8a5zU5ofiyI7jlOT4wLYvTmrzg1w5HGwv/+AHP7iX94z6VOIkh0O+tXFRX0pxFKuEQ3FSnyN9jcu4OORf40T9TPWFGMg4c0T+NRzYTXJcRsVRwyLeiJuSkv8058hQcMBRC5bSPBTnJRvmGVKyacGhGKk4LXN5mu+ZWn/EWyAm8afm39Jf5UjxpZQ1ToaCA7w5LNN875ZwoGvB0se49IFDMXK8qj/Cy3FKav4+Vx9grWV+YC1Oee/m3r+1966N8wCCB2o1LA9cY/mAj9ecAWdgSgzozNyU0nmaZcQAPwKsWrVqGfXIu+IMOAPOgDPgDDgDozLgi7lRGXN7Z6BHBvgVh00sVq9e3WNUD7USGNhhhx26bbfddiV01fvoDDgDzoAz4Aw4AxkGfDGXIcabnYFpMaAdLaeVz/M4A86AM+AMOAPOgDPgDCwPBnwxtzzG0XuxhBnwSy2X8ODNEPodd9zR3X333TNE4KmdAWfAGXAGnAFnYNYMzM0agOd3BlY6A76YW+kzYHH994Xc4nhzL2fAGXAGnAFnYDkxsOA5c2x7ibBrCq+coJNtyqbFX/FTcdTWEke2k8BBTMUvYUEnu1niIHcJS6kP8sUGyfVH7S2xZBsCRn9K/laXi6F2axulCIfoZZvTY5MTGz8VR23WLhWrhEOLOcXK+Qtnzk7tJSwlHOQt+cZ65Yvxqr0llmzjGC2+2CC5GGpviSXbGAfHJX+ry8VQu7XN5ZFtTk+MnCh+LobaZVeKI9uUTYu/cObi0M79orLL5cn5Y98Xjlos8gwBh3CWsJR0lq+cHe0ak5xNCw4bIxXH6okXi3ws5tiGY/SyzemVq6ZPxVHbrHGAvQXLpPloxYFdCUsLn9jYfOHA/GnhA/MSDumVy4QPVYtT+WIbtVvb2IbjcXDIXziV0+ZR26xxgKkFy6T5aMWBXQlLC5+yycVp4aOGQ3pypGTOKkioY7baLInsYhvaeWBgaXtU2WgL5DjGUHCAqxXLJPkYBQe2KSzifJxx6QOH8JXmiLDm5se0cFisOSyt80OxKGPhnrktttgizLXc+65PTlLzA0zKMes5MhQcLZwIa25+EKOPOaI8dmx+6qd+Kmyec9ttt5FmwfiFhujPpHBEaeZx1DjBLzffFZN+pyTFR2wnmxoO5ShhkU0uhx2XnE0fOIhdwsIY5/rRyoce+JvLo/7l9MojrCk7ckyDj9L/GeErYRnae0Zc5sZYfdIY2VLjMuu5OhQc4qo0R4TV5+oDM6lPToiVEuVYSnMVzHrFfZrG58iCh4br+QgqY0D2OPdhYttt3fpS582RGyjlVxn72uNcDttu69aXegkHemFQSVtKcjlsu63HMfrCQdxUHttm69PGEePLYZk0H604sCth0bxQiX1Ocn3lzBxbzBMjZ0PMEg70wqCStpTkcth2W49j9IWDuKk8ts3Wp40jxpfDMmk+cjj0JdTiEpaYK441L1SmbNRmY6qN0rbburWhLhw5GzAMBQd4a1hy/bDttk5MKy18YF/DgU0uj9pVYhtLC46ajWLm8th26vZYvrUc4kGl/FJlKj52tt3W4xglLMqvMva1x7kctt3WrS/1Eg70wqCStpTkcth2W49j9IWDuKk8ts3Wp40jxpfDMmk+WnFgV8KieaES+5zk+mrbbT2OU8KBrTCojP11nMth221dfir7wkG8VB7bZuvKr9LiSNmJB5XyS5Upf+xsu60rxkQeGk4iXjngrFIFLmfDCldxBDYuSzmsfy5HCw5y2lgxBo6HgqOExfZh0nyUcKCrYelrXMbFgX8LFtsffFJSmiMs5nhmGOMy6bEp4bD9mDQOOMphGQoOMNawtMyPOA7HKcnxgW0KB4+0WL9+/fycEZbc2MVxUhhoGxVHHEc4SnGUB5uclPxTfMRxWnHYWHEMjoeCowVLH58hGpPSPGrhBLw5POK8lEM2wkO8WFpwlGxa5shQcND3GpZSX61vjvcWPlpwYJPDMhQccT9SnEyDjxYc2LRgsdzik5LcuGBr/VN8YNOCI47FcSxDwQGuHJZR+cjFIYeNxXFKWv1TY+MboKQY9TZnYIoMaDE3xZSeahkwcNNNNy2DXngXnAFnwBlwBpwBZ2AcBvzRBOOw577OQA8M+HPmeiDRQzgDzoAz4Aw4A86AM7ACGfDF3AocdO/ysBjQbpbDQuVohs7Alltu2W2++eZDh+n4nAFnwBlwBpwBZ2CCDPhiboLkemhnoIUBX8y1sOQ2MQPbbLOhLfINAABAAElEQVRNx4LOxRlwBpwBZ8AZcAZWLgO+mFu5Y+89HwgDfs/cQAbCYTgDzoAz4Aw4A86AM7DEGFjw0HC2utaOK5Q5QacdbVI2em5HSkcbvrxSO7KgHwqOViyT5qMVB3YlLOOOS184FIede1JSmx/yp6/EoMxJiQ/FyeFAX8PSx1xdt25deM4csXJSw4FfC5ZJ89GKA7sSFp+rMLRQYk7Wrl0bDJgbiOZIbj63zA/ilMYFfYyDNivCkft8x5YYbOdMrpxMCwd5Sp8jQ8EBTy1Ycny2jgtjg2hepeK14lDOOAY5avOjNi7EbMGRez/gL3w5LOAcAg6wtmCZNB+tOLArYaEv44xLXzgUJ4elNj/kP4Q50jI/wFsaF/Unxwf6vjgZCg76VMLSOlfFC2Us0xibBQ8Np0PqVGkw1fkYsNqJoXrKxupka+2GgkM4WzhJ9cP6q277aevyV2l18m3BIducf04ve+VXqXaVtI+DQ/kVX6Xiq1S7SrWrpJ0Xb5ylPldZzG222WahP7n+0m/pVIoLlbTzKnGy4447dq95zWuynCl2iVNsanowlWzQ82w9ttdPyVBwgK2GZRp8tOCQTY73Wj/wR0rjgr4lzrbbbttdfPHF3Sc/+UlcNhFilOapHJRLxyppl06ldLaUTqXVUaedVw1LzV+x4vg6lr9KtauknVcNB/a1GDm99c3Z0G5fwpcqazGUL2WnNpVxfNp59cGHcMQ5dCwMKtUuvyHgGAVLqh/WX3XKlMhfZWxDO6/Fjo38iZvLYXU5G8VZLA7lUHyVtFtRu0qro047r0njUC5bUpcMBQd4WrFglxL5K1bKxupqcRY7NqPisJgsZsVZLA7FVT9V2hwLnjPHlwCS8YtpSbDL/ZIlP/S1LxU5m6HgoC8tWCbNRysO2ZXGJsc5vpogJZsWPlpwYJPLMxQcYKxh6YOPe+65p1u9enV4ZhjxUlLDgU8LFjh/xCMe0b3lLW9JpfE2Z6AXBvbYY4/uyU9+cvfxj388GY+5mpvrckDPfC1J7jMEn77eM0PBQZ9qWPrgQw/ALXFfwwFWhBipOOQoYSW+fxfZyKH+tnDSMi4l3vt6z4C5hmUoOMCawzJNPko40NWwtMwP4tTGBZscH+hqOLBpwTIUHMJLn3PSygd2qTgtfLTgwCaHZY4kEgZJxyqli8ucviVGzaamt1gmiYM8rViGggPMKSwt/ejLBgxICgfttTw1fUsMbCSLxYF/DUtNLwyUORz2nrmcTUueFhtw3HXXXd3XvvY1qi7OwEQY4AeKxz3ucdk5z1xFcvNdoHL6lrnel00JZ185WuK0cDINrC04NG6UqsvPYkzp0PfFh+KrtBha8gwFRwtW9W2xfW3NMS4nLf592YzLyVBwtIxNC9Zx+WjB0WqD3XKbq7k+TWNsNr24EzQuzoAzMDUG/DlzU6PaEzkDzoAz4Aw4A86AM7CsGJhbVr3xzjgDS5CBWT6agEsun/ac47OsrfrJB3WnvO7FWb0rnAFnwBlwBpwBZ8AZcAZmx4Av5mbHvWd2BgIDs1zMAWD7bbfpDjlw7+RoXHjx15Pt3ugMOAPOgDPgDDgDzoAzMHsGfDE3+zFwBCucAS6zfPCDHzxTFjZ78OqZ5vfkzoAz4Aw4A86AM+AMOAOjM+CLudE5cw9noFcGZnlmjp2R/mfD6yMf+Wj3Ez+5YQOk/93w3L4fl/sf8HMbblDutasezBlwBpwBZ8AZcAacAWegRwZ8MdcjmR7KGVgMAzNdzG1Yra3fsE34f/7nt7svf/nLC+C//e1/nN1taoGhHzgDzoAzsAgG9txzz6QXjyVgB7jcNtxy4nmGW221lQ4XlPjruU6p7cIxlk0uz1BwgLUFy6T5aMWBXQ6LOGcnw8WOSx84iGGxXH311TS5OANLkoG57bfffh44ExvJbRcqwy222ELVZFmLIz3OqVzSp3Q24aRxkKsFy1BwgLeEpdYX6YmT4142OT2+SAkH+lIc6bDL5ZFNTo8vMg4O/JWHeiqX9CkdPpISDmKg32677ZI5iKE81HO5ZJPT40sevhRI/vd/NpyZ2/B64R+8JLzUrvLqG69S1UtnYCQG5ubmOvv/xTozV0vzFNvSewZ9bb5Lj20ul2xyenyHgqMVS64v6itxSjYsjkpj14rjQQ96UPhMu//++3FZIGB5whOe0B177LHdddddt0A3ygFxcn0ZJc64to5jUwaXEifM+Ze//OVdPFfpgyQ3z2ST08t/0p8jQ8FBf1uwTJqPVhzYlbDU+iL9Zptt1m255ZbJ/3mymeQcmVu7di19CdLyy49srZ/aKAFNHEDnfnVRnpyN9Llfy2y+SeIgTyuWoeAAcwpLH+MyCh85HLTXsIjz3PyYFg6bJ4dFWMedq5ydu/vuuzvKlChPDofFWsKyww47LHhfYvs/6/+3u+eee7uf3PDe/d8N71tbbjicuPAL7hlnnNG9733v677+9fE3XOFD9aSTTuqe8YxnhJgsKG688cZQH6UzwnX++ed3n/rUpzrFtbGe+9zndpdcckl32223hT5g+4Mf/KA79dRTw5eD/fffvzvmmGO6V73qVd3tt98+Svp524MPPrg77rjjxooxH2yKlfXr1yc/i4DAfGYu8ypJ6rMM+9pnCDZ9vWeINRQcNSzwwns6Ja18MG6lsVPsGic8GPzWW2/t1q1bJ5f5koUen3cXXHBB9973vne+3SvOwCwY+OxnP5ucq63vGb3vZvl5Jqyl///itvbebfme0WJTwzIUHPCSwjLK/xl9h0vFmcbY+GWWmt1eOgMzZEDPmsst5iYF7f/9P+6Z+5/u6hse+FHH5qr9c7K2Q6mz6Np1113DYq6PxWGuXyyynvKUp4TFHAu15z3vecGUdgmLQF4uzoAz4Aw4A86AM+AMTIIBX8xNglWP6QyMyIAWcyO6jW3+vxs2PPnEB882cbisxJ4teeAyE2M0dlVnvQ499NANm698ZD6ezn5xVu073/lOOLt1zTXXhPsvOHuHPYKehRpnrE444YTQ9qUvfal7wxve0B1//PHBDtvnPOc53ZFHHjl/Zo6FlvLZ+CHACH/AT+6HP/zh3Xve857u5JNP7l7xild0OjOnUEcfffT8mbnDDjusO/3006XqTjzxxHAWT3hQqF8W55lnnjnvY/mhER1nNLHnbOAtt9zS3XDDDd3b3va27Fne+WBecQYGxMCLXvSibqfdH5lFtG7d3d073nJSVu8KZ8AZcAZWKgO+mFupI+/9HhQDnJHji/q05brrvr8hJa/pyrOe9aywkOEyxEc96lFhgcWi5IgjjghA1H7KKaeEywtZCCGHHHLIgssV8eG11157hUXVbrvtFhZMnJmj/YorrgiLOXy1ANOCiYUWZ9MWs/DhTBzxd9xxx7Dg5DLLmnCG7qKLLgqXgILvi1/8YujLPvvsM38J56Mf/ejuqquuCgtFFnv4sGiUWH6YLyxwdSaQhaX6JnsvnYGlxMB+j9yn237NlptAvve+/9td+uV/36TdG5wBZ8AZcAY23FbgJDgDzsDsGWAxN+tnzU2bBe49o98sXjirhuy+++5hQXL55ZeHBR6LpTVr1oSFD/rLLrusu/LKKzsWYggLGY5ZJLGYKQlxuAae+3gQ7m1jUZVbRIMNm1iuv/76uKn5mMUYCy4WgiwIWWB+4AMf6Ogv7VaU+ytf+cp8M/yIN+GjDwgcwqWLM7CUGVizzZZd/FrK/XHszoAz4AxMmgFfzE2aYY/vDDQwwBfz3KKiwX1Jmuy8886hzw996EPnL59kocRlh5yZ44zVUUcd1XGZpe5Jo40zVpyhY/HGJZUskHhx2WRJOHvGPYDERlgEsWCC+5KwgEIYHy2cSvY5HQtPLrMEP5eIEo86l2aCyV5uSQzl4mydBH6IwyJQeLTok42XzsBSZIANU3jxiJQvf/krD5QbfsxYv2GTpqV4/+5SHAfH7Aw4A0uPgTl2lZJQ55drPlBLH5zYWD/5U0qHP3FSIhv01GMZCg5wtWBRf+J+cCzdOHwQpwWHzUfdylBwgKmGRfrc/CDGuHy04LA2OSx94WDHN7bHJV5K+uKEXZWGIB/60IfCJYI6A6czc5xhY6FGO6JLDVnA2MUOZ7GuvfbacH8YPizkuF+MBVDu7JQujSQOiypysstkbjFHO3ZcysjZPwRf8iE6w6d75kJj4Y8WZcTkxf1unGmkjrCjGkJeztwJp71nTvzgh2hhCD9DE83ZFC7meW2ns5K/dNP4XFWuVD+kmwYO8itfDgvv78X+3yUm48JjCUp5sCvprY54qc80csSfRevW3d9x7zCXPfNelWD7/nM+uGG+pL9PyM5LZ2CxDGjOxnNV7bn//+TDBzts+BzIiWKl9NKN8zkyFBz0rwWL+jwpPlpxYJfDovaWceHzjFc8h/rAYTHmsMzZyad6bmtjAkpkq2OVtNMhypwNBEmnUv6Uaps1jlGwCLPth/zH5UNxKBfLCfiGgEN9KWGpzQ/FGIcPxSjhwKaGReO+2HERDr7Ac5ml4tFupYYDW/m2YLGxZ1HXmbZUbu6T42WFM1mclYslZYuNdpakbmPl4mCXkhJOzhhy5lBic6odG+1myQKNVyzS2/YSzlSfsbf5baxZ1jUnYwy0t8zTkv+4710wKX4Ni+xS/ZgmDos5hcV+TsR6qyv1B51ecQx7XIoBJ0guTsr3/vvXd+s2PJPuz/7sXDw3vPihd2N52x33bPiynH7kwgYjF2dgbAZSc7X1PUPy2mcINql5r/ZxP0cUe9Y41B/KGhZhxtYK7ePyQTzFr+GwtuPgKMVBt1gcilviZC4OrskrEggSC7rYTzb46xeKnA22xKjFkY1ix2XNvw8c5KxxMhQcYM1h6WtcWvgo4ZB/bWw09qU5VBuXPnAoRo5X9Ud4OU5Jzf++++7rVq9enX1fEVM5xuGk5JvCvRLa7I6Y6u84O10qxkovS3MebjSfczyV/Kf5eTYUHOIs9x4WJzm9/Ev9wYbPZqQWJ6cXDsVI2ZEjbr9//f906/7v+u6eexc+85I49204Yxfb0+7iDPTBgN4TqTmGTvpcruX0XaT23QwO+uCkxKk+Q0o2feFQnNTYj4IDf72IGcuk58gwrrmKe+3HzsAKY2BWjyZYYTQnu8vZMs762Zfu1Us6eKMz4Az0zsD9Gy41v+//rOuu+9Gt3fd/eNuG18by2h+u7e686//MZDGnDYr6uoyZ+1zf+ta3hsu2eaQKdbtbbe+kFgLutWEH4Oc+97nBgg2l2IiJ/qZEPGjjqZSNtzkDzsDsGPBHE8yOe8/sDMwzwGWW/KN3cQacAWdgJTKwdu0t3QWfOG9Zd12bFs36ESLg4LJsdsZFuNQ7dbm3BqN0ublsvHQGnIHZMeCLudlx75mdgXkG/MzcPBVecQacgRXIwKWXfnEQveYsFJseHXrooQs2XWIBdNJJJ4VHiNjLsK09HWChxvMtZUsbmxm9853vDBsWEZfXc57znPAMTBZUXB1gN3my8fGPRTm5V5YzfIgWiPaycW3yhJ4+3XnnnR27B19wwQULHoXCLrnHHHNM2BCKR7iwqRO7BYObDWnoO/7svMvuueSgJKdy8INk3Gd8eY7oqaeeGjaouuGGGxb1XE/wuzgDzkCeAb/MMs+Na5yBqTGgDVCmltATOQPOgDPgDGzCwLOe9aywUOFxISxeWHghPP4EoZ3FCRsRsag67LDDQju78HKpNgssPs/Rc8yC58ADD+y22267+V10afvGN74R/PhDHBZItOPz53/+5+HMGYuommDPrrb4E0eXjYOX53SyeJOwKy+XkH/wgx8MCzV2yrWbMrEJF2fsyK9HuKjfikEJJ3qkCos6OEv1eZdddgluLAzf+973Bk6wc3EGnIF+GfDFXL98ejRnYFEM8A+u5R/3ooK7kzPgDDgDzkAzA5wt4zOZx5zosSk8b5LFlh6nwkKJs1hf/OLGM4o8LoTFku4ro+SYs1s1IQ4bJOhxJyyQeMxK7X/CVzY8gw/BXsIZPvLyGBMWUVZkb9tsffPNNw95iafFWerySziBG2x0qSZxcn2Wvc3ldWfAGeiPgTm2upSozocKr5ygk23KpsVf8VNx1NYSR7aTwEFMxS9hQSe7WeIgdwlLqQ/yxQbJ9UftLbFkGwJGf0r+VpeLoXZrG6UIh+hlm9NjkxMbPxVHbdYuFauGg8ss+UeqeHEMGz9no3Zrm4oTt/mxMzApBjQn4/i0s/MXczUntfdMaZ4T0+pLOGLbGM9QcAhnri/oS7pWPrBriVXLpRgpuxqnAcAM/+y8885hIcVZLc5CcfaKSxF12SGLGCt6LAiLGc7Q3XzzzeGyRerE4ExeSW677bawQyBnw3icCQs5LahKfjy7kjOB2CN77LFHd/zxx8+fReRyyVGEXZW1kCQuZ/sQngtqBU7oF5eTwhULOhaRXKrZ2mcbb9Z1zcd4rra+Z8BvbVP9UY6UrtWfGEiM07bNGkcrlknz0YoDuxKWFj5lk4uj8ZIdOVOS85dtyX8OpYSEOmZL0JLILrahnYfmaevSWM+xbLQFcmwzFBzgasUyST5GwYFtCos4H2dc+sAhfKU5Iqy5+TEtHBZrDkvr/FAsyljo7/0bnq/Er7CpscO+L04UZ6uttoph+LEz0BsDW2yxRbdq1arsfOZ9g8zy/wz5W9+/tfflUD5X6U+OU733c59l4kMP/M31GTskp1ce2aTsUg/WDUEH8IeFC/eH6QyczsxxpouFCu0IlzZy1sre60Y7Z+84a4Vwtu7SSy8NdS6zZNGWEjYYYcHIYvH0009fcB9ayt62cRYOIe93v/vdjvvSwMp9d7fccktY6AmP/HRGTffbsVBF+FGRXS1ZBFoc8lMJJyzcwEsdW0ncZ7UPvWSexnNVc7n2npFf7r2nvstOxyqVZ5zPkdbPMnJOEgfxW7EMBUeOk1HGBVu9iGellQ98FsvJgoeG6zkLKi2YuJ6btLbd1mN/3hy5iav8KmNfe5zLYdtt3fpSL+FALwwqaUtJLodtt/U4Rl84iJvKY9tsfdo4Ynw5LJPmoxUHdiUsmhcqsc9Jrq+037vh2Uqlh4YTs4QDvTCopC0WvlDwOu+882LV1I/5gCthbQH0Uz/1U90dd9wRvoS02Kds+sCRijtq26g49KGfm1ej5pf9qDjkZ0vu3eHX+hw2xr1l7HP+tt3WLQbqfbxniJPLYdttHR8rfeEgZi6P2lXa/Kq34KjZKFYuj22nbo/lS46hSmnnRu6D42WFM1jctxaLztaV2m2sXJzY3x5z2WScO4URnxgPi0d7v5wup6T/3FcXi/xZvCIs4Cx+2mRD3Uqu3drMul6aqzkdmPU5prLUj9R7AXvbbutxrNJ7U/lVxr72OJfDttu69aVewoFeGFTSlpJcDttu63GMvnAQN5XHttl6CUfKTjyojP3tccofvW23dflO5KHhJOKVA86XBYHL2fBFRXEENi5LOax/LkcLDnLaWDEGjoeCo4TF9mHSfJRwoKth6WtcxsWBfwsW2x98UlKbI1zewmJu0mPDL7VcAsQN67HQD/pbwope/S1hxQY9sXKy/fbbd2vXrt1EPQqOs88+u3v7298eLk2KAwnrYnEQr4ZFOVo4myQOsApL7ouy9NPA8chHPrJ70YtelJ3P4IWz0vwocao5WLKhv8pDn3NiY6VsSjmsby5HXzhqfQELGMbFoTHJxWnBYWOk4ghrim9ve4ABLnPU2TO1csbt5JNP1qGXPTCg93g8V6f53gWDcKS61ILFfh6lYtBWymH9Yy4UrwUHtjaWfG05FBxgymGxfWjhIxeHHDYWxylp9U9hmUsF9DZnwBmYLgP+aILp8r0csvFPlQ9/Xi7OgDOw/BiIz57ZHs7qbBdnEGeV2/bf686AM/AAAw/sfvJAm9ecAWdgygxwD0Nt57IpQ/J0A2eAbb932GGHgaN0eM6AM+AMOAPOgDMwSQZ8MTdJdj22M9DIAIs5LrN0cQacAWfAGXAGnAFnwBlwBloZ8MssW5lyO2dgggz4mbkJkrtMQ7NpTu7+uGXaZe+WM+AMOAPOgDPgDEQM+GIuIsQPnYFZMLBu3Tq/zHIWxC/hnLltzpdwlxy6M+AMOAPOgDPgDIzIwIKHhuv5MtxQz84rOUGnHW1SNnqGWEpHG768UjuyoB8KjlYsk+ajFQd2JSzjjktfOBQnt3FDbX7In74ul7nKYo7LLHPvq744UXyVcGllKHOkFQdzANtUf2if9Bzpa1wYg9J7F30rJ7n31TT4ACec0JdSf8DCWUVsclLyx6eVj9z/GcUgT+lzZCg4wNuCBbuUtM5VeEVS7ynFbcWhnPJTSY5SfNl56QxMgwHN53hOav6O+xlCH5Qj159xP8/wJ0fps2waOMjRgmXSfLTiqHHSOi6aK/Ec6guH4uT+vy94aDjkiuCcAwER7FKiGCUbq0vFUQxImSUO4QRPDUuqH9ZfdcqUyF9lbEM7rxoO/FIx5J/TK598VapdpeIsFofyK75KxVepdpVqV0k7r0njIJ8wqBQG6frAwTxfv359WNCxsEuJ8quMbWhvwSK7nD/tuRxWl7NR/MWOjfxtLuqxKL+1tzZqXywOYimG6ja+6haH2mypGH3jWLNmTZgzd91113w65ZpvMBXp+sZhUsxXWzgZCg6w1rCoP/Md/HFFnHKYs7G6nI3i1HDYWNStKEYuB7bSqbT+0rfEkW3sr3bFV6zYjnb6etBBB3XPfe5zY/WSO6YvSOlL/5Lr1AoCzGfpqlWruvvvv3+TXtu5vIlyQ4PmeB/vXeIrXy5XzmYoOIQPPDVOcn1VXxQrxYXV1eLUcNhYNteoOGpxFotDcdVPlRbrgufM8YWSZLX7MLCrfWihzy3EBCRnMxQcENWCZdJ8tOKQXWlscpzjWxsXxZ/0HBkKjhZOWuaHeCuNCzbcN8c/FMpY+uLkgAMO6LbYYovi+3coc6QFB/zzeZXits+xyWHpa1wY71E/R3QmV323WOL5o/iTfu+SBxz0Zc899+x++qd/urvhhhs2gYOeV0lG5SOOZfnI5aK9xslQcNC/GpbcPMW3lQ/eT7U8NT35EPBofm5s2fiXHPx4RcljWWJhTMCLviQPechDunvuuSdrol/VUxhwIge5cry14thpp526I488svuLv/iLJJZxcRC0Bcuk+WjFgV0Jy7T4qOFALyz8iBrPk9b3DGNTm6st75ncPARnDQvxh4ADrC1YJs1HKw7ZxWNPu6R1XLBLxWnhg1zjcDKHs4TJomOV0sVlTt8So2ZT01ssk8RBnlYsQ8EB5hSWln70ZQMGJIWD9lqemr4lBjaSxeLAv4alphcGyhoO7Wh55513WrdQb8lTsnnMYx7TPfWpT+123HHHsGBMYcF/q6226s4444zuV3/1V+cxfOlLX+pe9apXheN3vetd3ac+9anuggsu6Pbc8GX9Pe95T/fNb36ze9vb3ja/CN188827N77xjd3Tn/70+Rg86PblL395t//++3fHHHPMfLyXvvSl4aG4z3jGMzqeX4QcfPDB3fHHH9+9+tWvTj5UHJu4r6n+7L777t1ZZ50V8l599dW4BeERECeddFJ32WWXhb7QGPsfffTRAeeJJ57YMR6cQfjDP/zDEOuaa67p9tprr+5xj3tcd95553VHHXVUh/3rX//6gPvGG2/szj333JCDOg82V3yVG5Fs+tfqLc5Pf/rTyRjYy0ec6DiOLj3tORv55PQtMbBZvXp1+KfGc7K+8IUvdJ/4xCe666+/XuHD+E0Dh/qhch7Ajyst/SnhbPHvy0bYS32ZBtYWHMJIqbr8LMb/+I//6P7mb/7GqkJdC5fSlygMt99+++JnBHHIn/qChb/y5Gykr+HYd999u1/4hV9I9oXxHxeHxVrCMmk+WnFgl8MyTT5KONAJyzOf+cwwT+K5Os33rnKrBJ+VGpaa3sZabA5itORpsSHWUHDksLT0w9qMEwdfZLGc+KMJNvLnf52BmTMwiR0tWcSdfvrp3bOf/ezuM5/5TFh03X777dW+sojZZ599ukMOOSTYHnbYYQt8tt122+6UU07ZZCFnjd797neHGMRhwcMiyMrjH//45ELuIx/5iDVbdJ0zQk960pM2ybvogD92ZJHFQ3M5w4mwuH3+85/f3XHHHT+22HiWFX5YzExKfvSjH3W33HLLpMKPFZezLd///vc7Fulr164NPLzyla/sWGC7OAPOgDPgDDgDzkB/DPhulv1x6ZGcgbEY4LK5n/u5n+u4fj8Wfv3h193Sr7L6FZnLPTizxhkuYl588cXd1772tRDyYQ97WLj8JY4/yvF2220XFogsluwZuVFiPPnJTw5n7+wZOc52seh8+9vf3h166KGjhEva7rbbbvNn5n74wx+GM2XkY1E7jhxxxBFhkUIMxuUHP/jB/Jk5xdVZNc7MsTh95zvfOX+2kzOdb3jDG8JZPPAg2HAGT34pnJwd1FkMnelkQcdZRs6o/uZv/mZYfLcs1oVzkuU222zT7b333mHBD97DDz88nLHkTO7nPve5Dm5Kgr9dIMe2ujwqd9Zl1PdMHF/HQ8EBnhoWfUYIuy1b+eDyOH6o4JLsnNRwMDbMZRdnwBlwBpyByTPgi7nJc+wZnIEmBj772c+GS/tSX2D5IsaLU/Cl0/Cy4Ys/lzteeeWV3aMe9ajwAgRfwrgEriaczeOFsNC46KKL5r+ccTmh5Pzzz5+/PFJtKl/xild0vJAzzzxz/iwVCzUt1rjk8oorrgiXaHLmjrM3nE3rW1iA7brrrmGxw2KZy0O5/G8xAhdwoksoa3h5hMALXvCC7sADDwx+cHbTTTeFM5ucvWPRfeqpp3Y777xzuFQrhZMzoVySyuVALMy5rJOYXPaKsAkKX75zm+cspp/j+vzMz/xMd+yxx86H4Qs+9zc98YlPDH3lrGJuLuPEDxGp+6nQjfp+yOVpiTMUHC2cYDNOX+GD+3Z32GGHBWNHXCstnFxyySXWxevOgDPgDDgDE2LAF3MTItbDOgOjMsACQWdeYl+ddeOLWu5MhGx09u5XfuVXwn1yfPHiniW+XHFvx5ve9KY4/CbHXGbJ5YNW9Es7C6FzzjknnFk77rjjwv1vqbNBXGb53ve+14YIdZ1V2nPDPXfvf//7F9y7tolxjw2cQeNSVs5mcXaoJNjGcvPNN3eLfbYbC0i40sKY2CzItGCGE0kKJ/580RbP2HAmk40XEO7/Y+GDzVDk8ssv75hHzJunPe1p3W//9m93X/ziF8Oltdw/x1zOLTzoQ+6eG3T0k/ne8n5osdF7htixDAUHuGpY4KX2+VDjY+utt+4+8IEPhLGLudBxDUdtbBTHS2fAGXAGnIHxGfB75sbn0CM4A4Nk4F/+5V/Cma4Pf/jD4WwXCyvdAzcOYC6vZOHAFz42VHnWs541Ujgtir71rW+FM3YvfOELw8JkpCCLMOaMFwuLXXbZJZwlq4Wgb7rklUs2FyvkPOGEE4I7izcWlJyN46wk46FLLRU/hZNFJF/C99tvv2CGDWcGiTVU4Qv97/3e74UFLFxylpbNdbiXzsUZcAacAWfAGXAG+mHAz8z1w6NHcQYGywCLOl6cqeOZTnyx7kO4LPIf/uEfuic84Qnd5z//+bCo4wwR90O1yoUXXhj82dZ7kpuFcGkkCyfwcc/c9773vSJEdtb88z//8+4f//Ef5+1YdOnMGAspFmicCUmdxZt32lBhe34useSsKPk5C3fyyScHE44vvfTSUOcS2BxO8rIzJ2duTzvttI777rhE895777WpBlXnss+rrroqLOJ8ATeooXEwzoAz4Aw4A8uIgZ/YsNPc/LMJdIkOvwCXhJujS18ianGkJ0cql/QpncU1aRzkasEyFBzgLWGp9UV64uS4l01Ojy9SwoG+FEc67HJ5ZJPT44uMgwN/5aGeyiV9SoePZNI4yNOChfuY2HzjJS95iaAtKGsxpMcp7vMee+zR8WKhkdKHRvOnxInyxDnkLj0bi3DZZ2qx8PCHP7zbc8OlnLkYilW6/wcb5UrFkQ67lL7mj14yDg5igIX76XI7XAprDqdwlMZFeShzccjDDqbMMe6BTMn/b+9MYy0rqre//6+31VZIHABxQMShndIMjoDQUeMsKqBGxQ8KajvFVjEqdiSi0CoYQUVNnEPihIjSIuIcFBFEJagRxVkBUUGILUpQP7z8Cp7DutU1nbv3OXd337WSc2ufWqvWeuqpOufuOlW7CptcedkPgUO+crFaOBkLDurSgqVWV/yUbNhMhyXSpcO8W3DU4vAjED90cIxHLC3tQpkhcCh2ipNWHHyv8iwxz7WmpOZHesqmcJAvm5wem1nz0YqjhqVWF+nxk6uvbHJ6yiItnLB6hVUE8aHhioGfXBzZ5PSURVpwYJfzozg5G+lz5SmHzBoHMVqwjAVHjZNaXaTn/90ll1wSHmfBpxXZzLJtFtg2WhI/c6P8VGrLWT2ga+vlFYeKpdb3S196jkExZ4mDGK1YxoIDzCksQ7TLNHzkcJBfwyLOc/1jXjhsnBwWYd1W+iobG/APa+g+wlLCxz/+8d3nPve57pprrgltvFROav3DtgsbfrAEMVUfnv1hQIekvkTZkIONYthx0QrP1J1//vlbPYOW8gFWSUqPrsUGu9JgrsUHNt///veTXOB/nn2VDVnYyCfVLsICXznOsEFy5akr9aF86n8IZVXfFptaXx0Ljhon8NKXDw7z5pWrMxiQnL6lbQ466KCwvPgHP/hB0g9tx1Lk+BlibaSkTYM4+/Giiy6aPH9qn/UFB8/2MZMdn5up3WTZiIhdZJkV54chhDM1NQPPUmjOjzvuuOOKS5r5Xs1xBo7HPe5x3WGHHRZ+3JBvYlEPnqXlTE0+L3Ff5XuV3Wrjpdi2nvixUmoX6gJnr3rVq5JHtsA7uxUTj+eiU8u49bmqfWbAlMLS0j8UI+bD1lM2S8WBL2HZYYcdupe97GXh/xc35BLFmBeOljg5G2Edgo9cDHhRnBabGpZU/yCG2qUlRotNDQcxU1imwcFn5brrrkv6EWdLxdHCiS+zhCUXZ8AZ6MUAX2THH3988MEX1xiEJZIsW6x9gfbZzEFf0kP8Q5kWB5ufMDBn8IwIyxi4dwzOQIoBjs9gIxyWKX/jG9/oOEalJNosiSXdGsCxNNsK+TyLWhrgxDoGSRKuNYNsB3JsUMRA8NRTT5XpklOOh2EpOt9FSxEGsQw6ublkyTYDQDYTsgPDFr8a+JZwsGPuLrvs0uJuu7HhB0F2VWb5+y9+8Yvu9NNPD7Ms200FvSLbPQPjuOva7mn2CjoDzoAzMCwDCwsLHbOLLs7A2BlgEMeGSfvvv3938sknh+c9U0ujp63HPvvsEzbYiQdrrX44U49ZOjY4sgM5Bog8Y8vs1BDy2JvPWOSIEXxzZAyvfffdd2r3djMmBqLHHnts8HXmmWeGZe44JA58EwM916xC4MUuxXvcuBOutcEOXOg3bNgQZuaYEcQ/A0fhxZcdCE8NfsQFNm/eHGZPNajjmeQHPvCBI0bs0JyBWxjwmblbuPArZ8AZcAa2GQZY1lWb2dhmKuNAR8UAgxxu3HPCWZWtZxqypJLZ40svvTTMTB166KEdL56vZUfbkrBMmtl1CYM2ZulYCohOZ16yHLI0U8XMnY4BwYd8clajZN26dZPjWNgAiRfLEXmGcChhAMXgSINPrluEzZa0I65mK5mVY/YQWbt2bThLlBlGMLPDMBszKZ8jUeINpqgvwqBVM3zM7vMMMjNzmzZtCj41sGX1BQM8zuxk4Lg9CctsObKHFRYIGzetWbOmO+WUU8KZoMxo9pVpPjN9Y5XKO46t2RmCk7322qv6fbZ15OFyfDA3HJfuyRlwBpyBuTHA8z4uzsDQDPC8I4fYl4TnUbds2ZI10VJrZo+5UWaGg8EAG/T87W9/C0uC99tvv2x5KTRwYQCXkvXr13d/+MMfwgCEAUw8YFEZDZ70XrNLDHLe+c53hs1eOCKFsxFzsVR2iFQ74F5wwQVhRqzmk2WWn/jEJ8LZnmwao/Mud9tttzCLpmfqmEHTcSo6uoSBiTalsnEY/DIIZkddBI7Y6dcKR6CAlbbjhU9ibm/CcnUG+NoAhRvz+9znPmHn4QsvvDD0Ww304rqrr5eWrlKm9TOT88MSW17gSGEZCw7q2oJl1ny04sCuhKVWF7XL2WefHZ5Zx99yiA/mloN1j+kMOAPOgDPgDIyUAQYZqRtGwZ3m+c7vfOc73erVq7tnPetZYdDEIOKLX/xiOB7ELhmU79aUgR6bhjD44hgRZt7AzYxaq/CDCIMUNlphieERRxwRZqTIm6UwSALnNMsswcSg7oQTTggzbwxcL7vssrDMlFk09LZddt1117AkkkHJgQceuNVAl9k46osww8cMHc8xWmEgxyCXsznZGAqf0/BrfY35mt3Z6Tv8wEA/ZdUDR8GwoZQGULlBFjf72KAf6jOT4kpxiJHCIv1y4wB7CxbbV+P6wic+cnW1MVpslsrJtDjieszz/QJgrei9Uquz1yU9OgjuY6OySm1se13So+uLg1iKodTG13VNNy8cFq+wKZ0nHyUc0pU4acUqX6pjKp1128i/0hSGGs7W+pY4szGWimVbw6E65+qrfKWzaJtWzoQ1h6Gmj+OwAxvLLK+//vqJS2xKdZVO6aRgdFHSo5t1PxScIXAMgXUsOOClhKWmn1fbxXEYaHzyk58MG0uwAQqDEmZ5Lr/88mx9VE9SXatf2BQdM0+8mGliAPL2t789DF70XF7JBzoGNjwzxY6WZ5xxRtgh08ao8SrbHE7lM/hkEMaMIINPjoCQYJPrqypvcTL4YDaJQRgzigg7VbLNPoNT/JNPLM3MyQ8pyyfRSZjdu+GGG0Kb8NwcwiBRG0nxHrw8c8eNNiJ/4U3iT05Pfq6uctNqg30ujvWl6zilLNvkn3TSSWHpMDsy6+xPdPPE0ZcT8aA0rqvel/St9W3BSrxaLGGK03niKOEcCw5hzPG+oA8lhjxML+IpkBNsbDlrhw4/6HPPc8iGcqk4Y8EBvhYss+ajFQd2OSzivE+7DIFDGEt9RFixTfWPeeGwWHNYWvqH/MzyM9PKCRjG3kfU/i191drCgZV5tI3iE3fefZXnb1gWxA0YIizzxhGCmz/g0CvX52mb2q+l+MiVV11b+gjQ+nAyFhzUo4ZlHny04Mh9v9NXGWgwIGCDCQY3qTam/E9+8pPukEMOCW0X21x88cVh4MaSQnQs+WQGScLOj/hgyehLX/rScC9iffC5YSmp+hHlWGKoZYay/dCHPhRsuJdRnmLYFF2ubchndvKcc84JOMCuI1Pkw+KwfVU4sWPJKnZnnXXWBCf51IMXIj4e/ehHB1tmmvieYPAsTnlekfow0I1xUA92C+WZOOGAS14S4eC9bKSzaYmPXP9Q+Rwf0pPiAztkKTgopzikX/jCFyZnhKmtpS/FGBIHcf2++ZZ26cMHbda3bdT+y42DutSwLNgPga5TU7g4syJbm8c1+VScNGcDKOmUWj/KW24cqg9pDYsw23qofF8+5Ie0hsPaci0B3xhwgKeGpdY/5IN0qXzIR19O1O7LjUP1aeEEzMKNvaTWLtjNo22mwcGNBZs15OoD5lm2zTz4oA4pTsjTCxthSXEhH6Sz5AP/wsF1CctYcICzhqVUj77fIZanGg5ry7UVMFrurY5rqyvVB9u+OGqcMJvMEjaWWaawKG8pOBjQsGyQAQx+9KJesdQ4mRaH7G0c8sDCUsWUHlu+w+LzLsn/05/+NHk+DqxIzgc6vg8ZrLGUFQ44LxNhUxOeVzzttNPC+5wPxcCoZMMAWUeiBIeZPykf5NX6R61dLL6l9BHBFZZ//etf3XnnnbdVneeNAzwpzsBbw6JyQ/DRB8c0bSPMag+l5I+hj4wFhzgtcbIQN7w6TI5kOY3LqREozy8LlM/ZyEfJZiw4wFrDUqvHEHy04BCvKd6Hape+OFS+xgmclniVH9nxPiUlH0NxUusf4JoHDuLUsKhvKKWMZCg+8FfDgU2Ok2lw8Ms1v+6n6tMXh8qPta9eddVVod627jlOqQvSp11UvsYHduCoYZEN9ikplZ+mj5T8ELfGSan8PHGAtQWL7Q+UsUL5kg9sa3xgU/LRwgl9CJx64TOWpeLg8F9m/Sivm58+nLTgkH+lti6UP/HEE7tVq1YVv6dqcagLkoqheGw2gx4ODj/8cGWHFP8bN24M1zkf2LTgoLz60qIg5k2uj+B/qO+QGlbg5HCgExauqVOKF9UzpaMcMhSOElbi1LCMBUcLJ6W6ql1KNi18tOCQn1T7jgWH6lH63PgGKLDk4gw4A87ANsaAllduY7AdrjOw4hhgSWPpxpSBmm7EUzeVECYb9PhKCZtKlOQ3v/nNYDhKcVznDDgD82Xgpp965hvTozkDzoAz4Az0ZEA3dz3deHFnwBlwBpwBZ8AZ2IYZ8MHcNtx4Dt0ZcAZWLgM8g7PTTjutXAK85s6AM+AMOAPOgDPQ+WDOO4Ez4Aw4A86AM+AMOAPOgDPgDDgD2yADi44m0AO2rN3mlRN0sk3ZtJSX/5Qf5bX4ke0scOBT/ktY0MluOXEQu4SlVAeVxQbJ1Uf5Lb5kGxxGf0rlrS7nQ/nWNgoR3qKXbU6PTU6s/5Qf5Vm7lK9Z4yBmCxbVVbYx1pZ61HzId4sv2S4VBzHwkfKjvD44wFUqb3WKF9dF+dY2tlEc2eb0+JBwdheH26qM/Ou97JQqX3bKj1P0so11vG8pL5ucH/J59ge7nAyFA/8lHOiFl+tYxoIDXDUsuXqqLOWRnJ3yS3zIl2yDw+hPa/lcfeS71U8UfvK2pTw2iGJOCpu8Fj85H+S3lC/hsL5LvtCl6kF5pFQ21uf8KL/Fl2xDcPOnpSw2SM6H8lt8ydZAmFzaOLGd9R3r5ED51lY6m6KXrc3XdUt5bJCUH+W1+JGtYtu0pXwJh8VX8oVuDDjAW8JSqoPKYoPk6qP8Fl+yDQ6jP6Xyiw4Nx4lA5R6wlW/Z6b1S8jnbgfI5H7JhZ5aUjAUH2FqxzJKPaXBgm8Iizvu0yxA4hK/UR4Q11z/mhcNizWFp7R/yRRqL6juPtiGWXsuJQ7HBEss0fFDWtoH1ZfNz30WyT+FAV8Mifa5/4GNWODhAGBF2YcnVdVY4AgjzBxwWk1FNLsGC5LDKUH70Xqmta86HbIZom7HgoP4lLPA6Dz5qOErf75RFLx+p+syzr4Il10dacVAHvULFzB/ya3zIJocDd9NgMeEnl4pB/1jOPjIWHBAjLLrmvRXph2gXxbD+da04fdqmtX/MGgf+W7HEfA/JxzQ4sE1hGaJdhsAhfKXvkUXnzGkXJaU4yEnuy8Dm2+vYDx+OXMdVfKVxWfs+F8Pm22tblusSDvTCoJS8lORi2Hx7HfsYCgd+U3Fsnr2eN44YXw7LrPloxYFdCYv6hVLsc5Krq82317GfEg5shUFpXJ73+Ncr1tvY9jq2GwKHfKbi2Dx7rTJKwYFQ35SdeFCqcqk0VR47m2+vrY9Z89GKAzthsfh0LR6UKj+V5upq8+117EM6pbEeDPPAIT5KOMBWw5Irb/PtdVzfoXDgNxdH+UpjDLyfJw7i5bCAQ/qUjdpDaTDO/EmVl28VydmgL3Gi+ErlL07vdKc7dfy4kopj8+x17KOEA1thUBqX1/tcDJtvr1VO6VA48JeKY/PsteIrnTWOGB9YUniWA4c4iNMSFvULpXFZ+z5VT/Q2317bslyXcKAXBqXkpSQXw+bb69jHUDjwm4pj8+z1vHHE+FJYZnLOHIF45RqSUbvA5WwYEctPTJzel2LY8rkYLTiIZX0ptk3HggNMOSy2DrPmo4QDXQ3LUO3SFwflW7DY+lAmJbl2wdaWn3XbgANJxQHHjjvuGM5EOuCAA4Idf84999zuyCOPDO9POumk7ktf+lK3efPmbvfddw+H0V588cXdpk2bOpb9Ibe97W3DeUbPec5zwnv+/PKXv+w2bNjQrV27tjv44IODP7C8/OUv717zmtd0z33uc7vf/va3IfaBBx4Yyj3vec8LB91OnJiLuF1S9cHccmuKL7rs0zYxjkWOzZtZ4OAGkmWWW7ZsCZGEJccFRrPAYao5wQGnJV4xlE1cXu9L5W09cvUVHyU/xLK+FNumpfK27KxxgKmGBQxjwAHOFqw1G/mx7WGvW8v34cS2sY1tr6+++upOZ7zZfK5t+T44Yl9xHN7Pg48WHCUs8+SjhMPWg+vUZ2eo75BWHKX2a8FiuSVmSkoxbHnvq/P97NJWfdrGN0BJ9XbPcwZWOAOve93ruvvd737dwx/+8MDEunXrFjFyhzvcIRzMGw/krNF73/ve4AM/T3va07rf//73Vt098YlPnAzkfvzjH3fEuOKKK8KA77DDDute+cpXdsRxSTOwevXq7ja3uU1a6bnOgDPgDDgDzoAzsCIY8EPDV0QzeyWdgeEYYEbo3e9+d3f55ZcvmpGbJsIhhxwSZu+YkWMghzDjx4tfB+9xj3tM485tnQFnwBlwBpwBZ8AZWJEM+Mzcimx2r7QzUGaAwdqvf/3r7oc//GGYLfv6178+KXDUUUd1LMNkIPbgBz94kh9fvPrVrw4+8MMsm4RllBs3bgxvWXLJskwrD3nIQ7oTTjihu+iii8JzKFbn17cwcOWVV3Ys73JxBpwBZ8AZcAacgZXLgA/mVm7be82dgSwDWmbJEsmjjz568jwcBd73vvd1e+65Z/fZz362uBTSLrP8wAc+MInF83NPeMITuvXr14cBIdeShz70ocHvqaee2n3sYx9TtqcJBnimgTX2Ls6AM+AMOAPOgDOwchnwwdzKbXuvuTOwJAZYXnnDDTd0H//4x7udd965e/7znz+Vn6uuuqq79tpru5/+9Kfde97znu4lL3lJt8cee4TXMccc0zEIfMtb3rJoADlVgJuNWa6JkPLweO51/fXXZ3U1HzeHCknOf82HyrXgsPF4Xm7VqlU2y6+dAWfAGXAGnAFnYIUxsOjQcM4w4MaDX3t1A5LiAx03IDnRWQg5vW5ecrvljAUH+FuwzJqPVhzYlbD0bZehcMhPblah1j9Unrp6X4WNm6Slr+pzq1RllcqH2kD5pOgQ9bE//vGPHcsvn/zkJ3fnnHNOmGXj+bdvfetbwUZ2odDNf/BLvuJ87WtfC+UPOuigYPGABzyg48USzfPOO69jhpCBXyzCJ1+p+qCr9Q/8MjDFtiYlm5JOfms2NRxwZj8zDKT/+9//dgyOEXFibRSbVJzXOAFnik/5inEoXyll8VHygw+2lS5xUipPrBYcYMn9n5EP4pQ4GQsO8LZgwS4l6h99+cB3C45cP6Q8bSc8pLGgr7ULZfriEIYcJ604VAelqfqU+KjhwF8Lllnz0YoDuxIW6jIPPmo4VB9StQHXEuXl+gd2Le2CXYkP+enDyVhwqC7Ul/qQpmTWfLTiwK6EZWx9NddHFh0aToVUqVwBNQp2KZEPdDkbq0vZyAcfpOXEIZzgqWFJ1cOW1zVpSlReaWxDPq8aDsqlfKh8Tq94KqtU+UrlZ6k4FF/+lcq/UuUrVb5S8nnNGgfxhEGpMEg3BhzTYAFvri7//Oc/w/LH1I025ygxi8aXm+J98IMf7Hghp5xySnfve987DI7e9ra3JW/WzzzzzI4Xcsc73jHscPmMZzwjvOcPvsCmL9AUDhmrDrn6yG57SW19qZPqrXybl6qz7Jf7MyOcY8EBLzUslmPLrThVnazOXqu8UqtTWXQ1HLKNyyvf4snZyDanHwpHLY7ipzhRPYbgo4TD6obAUfJhY6nuNlVZpVansuhqnNTKy1fsX+9VXqnylZLPq4YD+5QPlc/pbZySjfwsFYd8C6P8Kb5Sq1eeTVVuSBzWv70uYRkLDvC2YlF9bB1teV3Her1XeaXKV9qKA/uUD5XP6W2cko38zLKPLDpnjoETwbiBKgl2pV8qKIs+NxATaTmbseCgHi1YZs1HKw7Zldomxzlla+0i/7PuI2PB0cJJS/8Qb6V2wWYebaMYJSyyAVMsubZhyd8zn/nM7rTTTgtnnw3RR1pwwD/fV6n63POe9+x4Vo9z7OyxCGy48qY3vSnsosnumSl5+tOfHjZhsTqOS2BTlqGEjV4+/elPd5deemk4t2///ffvXv/61ydnIm09uUYYXNu627ZJYZxnXyUWr1S7gE36FE7llcrLpqWPlGyIUeurY8FBnWtYSnW1/QM/KWnhowUHNiUs6re5+swLR42TVhyqK2lOZJPS13BQpgVLjk8bcx44hHe5+WjBIW7AGuMdql1acfRpm5b+MQ8ciuHfq+pZbZ9d8Rb3wVu83HSV6yP/jw6gl5wpVX6clvTSKY3L8l46pbGN8pXGer0v6aVTqjI2lU6p1elaOqXKt2mLbh42YMrFUb5Si1/X0ilVvk2lU2p19rqkl06pLce18pXG+lYba7dUH8KgNPajfKWxXu9LeumUqoxNpVNqdbqWTqnybYoOsXm6Vr5S5dtUOqXScWD48ccf3/3ud79DFfwrlU2c5vTKVxqX4710SlM2PNvHrJ8dyIWCjX++973vdfvtt19Y9slAjuf49rjx2b6hhOMX2OiFw9V5/vDFL35xciCneLbeXDOL+u9//3vSltileFCe9EqVH6clvXRK47K8l05pzqakt35y5edts9w4Wupb4lQ6pUutTwuOmk1ND8Z99tmn+9WvfrXo9YpXvCL0cX4I4YeY3XffPbznHEtsSVUvfHBOJRspWT+832WXXTpWD8if7NBx+Pe97nWv4J8fWs4444zwuZffVEosJKd7zGMeE3Dg29pQD2ISn/ycD6uzNi984QsDVvzih7M7xQ11sNcqp9Ti0LV0SskXRmGXTqnKxmlOr3ylcTneS6d0qTbW11J8KL7SpfhQmb4+VF6p/CpVvlLlx2lJL53SuCzvpVPa16Zv+b44bJ1iLPKtNNbbsn1trK+lxNl6sTqIXJwBZ8AZ2MYZYLC0efPmcCPGbNxb3/rWjp00N23a1O2www5T1e6SSy7pOCB97dq1oRwzd/jixTViY9h8boZkS8p7Xhy/wECOWcJDDz20++hHPxqWnsZ+uOF0cQZWIgN8Xtjtll11OQrlSU960lY/qLADLkep8Hxtbqbd7s57xBFHdP/4xz8mdPJ5e+1rXxveH3nkkWHG+ylPeUr31a9+tbv//e8fBkmHH354x+qDpcq3v/3t7kUvetGgR61Qb743EGbpqRfPIFvhGWYGuEv9Qcv68mtnwBkYLwM+mBtv2zgyZ8AZGIgBbgjvfve7h5m297///d1973vfqTwz8/jXv/41HGbO7Bwzfmz8wswdgzkGZw960IO6vffeO+SziYtuLFmayXt0zMTtu+++YbnmG97whvD+He94R1iaKkA6qgF7/ON7zZo1Uk/Su9zlLh0HuLs4AyuVAWbvOCKlNJArcXP7298+/JjCDz8ayGHP8mwdp4Kurzz2sY+dzMAxCOPsTV58F5SEgeaxxx47+cGI7xpm4Jh14+xOvlc4KmavvfYKs/vMzFkhFs8o852lH6CYbSQ278lHLzwM/BC+c5QXYyQug2xmO8EGRmYWWV3A7sR6Jtri8GtnwBmYLQM+mJstv+7dGXAGRsLAFVdc0bH9P4dtM8s2jXDDwuCJpZts3PKoRz2qO/vss7vzzz8/HKDODZ9m78jnZkczatgz60ZMZuJqgi8GjgwgwQvunXbaaatiCwsLk81otlJ6hjOwHTDAYIUdcxlYMGj7yEc+MpllQnfUUUeFWh588MFhQJGrMjN3GpwwiJGwtJnP5AEHHNCtW7dO2ZMU2w0bNnQ/+tGPwsZOE8USLxj0MBjSTOES3YSZOAabfM+Aj52Fa8KPS/xABI/nnntu993vfjdwyQCOmU8GYg972MO6XXfdNYuRwSEDPX5k0ioFGQRUyAAACnJJREFU/fhEfDjWgLCGx/XOgDMwHAM+mBuOS/fkDDgDI2aAmbnVq1d3d73rXcNNzTRQKcMg62c/+1l4ro1jE5iZ44aSFzdKDL54ro73PGPHTQ83RmzAohspZuZqwoCRsgwCwQvuq6++eqti//vf/6qbVW1VyDOcgW2IAbvMkgGHZrtVhfXr14dlmLXzLjV4in0wsGGAw9mWOu9SvhnIvetd7wozX3Fc2Sw15Qca5IILLliqiyWVY+DFclUGgizN1MwfgzC+p6ykMPJdxPcTPzJxlMpf/vKXbrfddpsUm3d9JoH9whlY4Qz4YG6FdwCvvjOwvTLArk/cdJDyLAmbs3zzm98MN20///nPwxlt1F07llkeOL+NJVzY89zJ5z//+e7kk08Ov2Tz/AnveaHbuHFjeJ6GzRi4OSSPGYTTTz893Oxwg8MgjwHgrW996zCDwPM3xOCGiIeduWYwyLXFSnz8sKQpFmbvrrnmmjjb3zsDK4IBBno8+8bnkc8bgxFmjqYRzYCzqyznNfLcGQMc/DCbx+6yOnplGr81WwZFSLyEMVdOA6Y+Sz75gYjndKkT31EIz/ExINPMnI2fwsgAj+9FftziO4wfqy677DJbzK+dAWdgGRhYWIaYHtIZcAacgZkzwI0Hv0JrK1+e7+AVy53vfOfu73//+6LsL3/5yx0vBnpsscwgCz8S6dFhg57B4rOf/WyZTNKvfOUrYUmmcEghH7znmiWbwhFjJUZq0ClfnjoDK5kBlgyydJDllswc8Rwqs08tyw/hjVkqdq1kAMfnlQ1QEGbmePEjzXHHHdd7qSVxwIU/YrG0sST8wAMu7Bmsgk2iH3J4Zu7Nb36zsrMpSyMR1YnY/NAk32eddVbYyZMfmMD4mc98ZiuMDAL5sYml5Ag+mLVk+aiLM+AMLB8D/3fjLzI37TV6IwbdLHBjUpLb3e52YUvsnE3Nj/SUT8WSPqWzMWeNg1gtWMaCA7wlLLW6SI+fHPeyyekpi5RwoC/5kQ67XBzZ5PSURfrgoLzicJ2KJX1KRxnJrHEQpwULZ699+MMf7n1Tonr1ScFb463mn+2yr7vuul7LDYfAUcPZop8WR0t7t8SNbabFEZfnPc/z8Ys/v/ynpCXGWD4zY8EBjy1Ycp8p9Rf81GxyesoiLTiwy/kBCztT3u1udwsbemBrRVhz5WWbw7HnnnsGE5ZFIzk/ipOzkT5XPji/8Q/fqzy/p+dkla8U/apVqxb9ICQdKXF4EScXix+OEPujUsgwf1iWzWqEnNR8DIWD2dJc24Ctxqv02Ob4kE1OT1mkhAM9fj71qU91L3jBCyarNchHFIPrXBzZ5PSURVpwYJfzozg5G+lz5SmHzBoHMVqwjAVHjZNaXaTHT4572eT0lEX6cLKgX4JxpF+Z41+Q0cViy1kdoPED6NyXjuLkbKRfbhzUqxXLLPmYBge2KSxDtMsQOPBRwyLOc/1jXjhsnBwWYd2W+irnK6VE7YKOQ31Tovrm+KDMrW51q1C0xsmOO+4YzkqL44wFB7hqWObBRw4HO1ny3NyWLVsChcKSa7u+7ZLDEYKbP8JBH0l9F2GKDXpeJcmVV7uU+qHFUftfVOurY8EBVyUs8FKrawtnNT5qONS+OSz0RX6E4ZzEVH3UdkvBwSwRu0eeeOKJ4bPRUt+cTSsONijis5iqC21yzDHHhKWJxEkJR6WkdthlZvHaa68NRfAjyfnhRxRwpKSl/FA2WqGQ46PWP8R7rl2on2yW0kfED/XFD9+ZzHT+5z//kSqkijEvHC1xcjbCOgQfuRiQojgtNjUsqf5BDLVLS4wWmxoOYqawjAVHCye+zBKWXJyBFcRAbuvoeX9xpZY30gxjwdGCZch/bDk+cjh4poWbD571QYQlN5iTvvaPbVocIbj5ozj8k3VxBubNAEsZjz766Mn3yLzjp+KxRLLlprPFpvT5HfKzS5yU6PNdwpEq53nOgDMwOwZ8MDc7bt2zM+AMOAMzY4AdLnM3XDML6o6dAWfAGXAGnAFnYFQM+GBuVM3hYJwBZ8AZaGOAjQpcnAFnwBlwBpwBZ2BlM+BHE6zs9vfaOwPOwDbKgJY7baPwHbYz4Aw4A86AM+AMDMCAD+YGINFdOAPOgDMwbwY464mNF1ycAWfAGXAGnAFnYOUysMBmA1b0XqnV2euSHh0P8vaxUVmlNra9LunR9cVBLMVQauPruqabFw6LV9iUzpOPEg7pSpy0YpUv1TGVzrpt5F9pCkMNZ2t9S5zZGCUsNV1LjBYbi2daTubJRw1nDUtNb/2XuLd2Kb5SccizPuP3sR/ZKo31el/So2tp/5oNsUpxavqhcAiDUnFg05quVtdWrLU699XPC0ctjvgk1bXl29Yzp5d9SY+ub9vIv1LFTaU5myFwtHKSw6DyffmQH5tynZIclnnyAa4cDqvDJmXXitX64jolKf+ya41Taj/5VyrfcVrSD4GDeIqhNMZgbXK6Ul1VvsVGtqk4ysvhnCcfNZwlLAss1ZGwXbAqBEE5wcaWs3bo8IM+t6uabCiXijMWHOBrwTJrPlpxYJfDIs77tMsQOISx1EeEFdtU/5gXDos1h6Wlf8jPLD8zrZzk+ocwltrF2nA9q7ZR+3tfheWbJMUJz8yxDbn6lWxm1S4gUYwh2qa2Gx6xVLebaZgkQ+LAF5LjbSw4wFjDMkS71PhowVH7HpF+zZo13VOf+lRcLhLqAY5aH2FLf444SIm4ol1zGwXJJhenFQez5OwkmaqLYvTBQf1asMyaj1Yc2OWwzJOPEg50wsIxOfDLywp6+iqS+35Aj13JBp1iBcPoj+IQ3++bh/0/06dthmgXmnoefWTBdlBd5774bP+Trc3jmnw6JGnOBoKkU2r9KG+5cag+pDUswmzrofJ9+ZAf0hoOa8u1BHxjwAGeGpZa/5AP0qXyIR99OVG7LzcO1aeFE2HG1kqtXbCdR9uMBQf1rWGZBx85HJyLZEVYSu2L/Vj66lhwtHBS4rTvdwjx5b8vJ+oD+IzF6hQvtlF+Xxw1Tojz5z//uXvEIx7R7b333jGM8N7iTRrcmEmcEtYWHzWbmh5snO8Glje+8Y1JqC0+hrCZBx9UsAVrCUtL+aFsSjhUlyuvvDJ8BtX/1YgWQ6yTjfJL/TC21Xul+AAnqfxJp7SGReWWGwd4W7HITnVUSn5fPqbBYW2FQXljwNGCZSFueHWYHMlyGpcTAZTnlwXK52zko2QzFhxgrWGp1WMIPlpwiNcU70O1S18cKl/jBE5LvMqP7HifkpKPoTip9Q9wzQMHcWpYxoKjxMlQ7dLCRwmHym9rfTX1+acuSK1/YDOvPkIcXjmZF44aJ2PB0do2pfYX5yWbGh+tOEq88Zm68MILu0c+8pHJ5ucGChzgxE9OZn2u2lhwUP8WLLPmoxUHdjkstKtukHP9UHUt9SHZzLqPjOUzA6c1LPP47LbgwKaGpdS2lK393x0Kh/yk+uJYcIjPEif/t/POO+e/KfHg4gw4A86AM+AMOAPOgDPgDDgDzoAzMDoGFi8QHh08B+QMOAPOgDPgDDgDzoAz4Aw4A86AM5Bi4P8D1A3IYC6igBoAAAAASUVORK5CYII=;" vertex="1" parent="1">
          <mxGeometry x="64" y="-440" width="699.46" height="282" as="geometry" />
        </mxCell>
      </root>
    </mxGraphModel>
  </diagram>
</mxfile>
